<svg width="233" height="81" viewBox="0 0 233 81" fill="none" xmlns="http://www.w3.org/2000/svg">
<path d="M6.52628 0.909091H8.49503V10.1903C8.49503 11.0298 8.32884 11.7479 7.99645 12.3445C7.66832 12.9411 7.20597 13.397 6.60938 13.7124C6.01278 14.0234 5.31392 14.179 4.51278 14.179C3.77557 14.179 3.11293 14.0447 2.52486 13.7763C1.94105 13.5078 1.47869 13.1179 1.13778 12.6065C0.801136 12.0909 0.632812 11.4645 0.632812 10.7273H2.59517C2.59517 11.0895 2.67827 11.4027 2.84446 11.6669C3.01491 11.9311 3.24716 12.1378 3.54119 12.2869C3.83949 12.4318 4.1804 12.5043 4.56392 12.5043C4.98153 12.5043 5.33523 12.4169 5.625 12.2422C5.91903 12.0632 6.14276 11.8011 6.29616 11.456C6.44957 11.1108 6.52628 10.6889 6.52628 10.1903V0.909091ZM14.0737 14.2173C13.4515 14.2173 12.889 14.1023 12.3862 13.8722C11.8833 13.6378 11.4849 13.299 11.1909 12.8558C10.9011 12.4126 10.7562 11.8693 10.7562 11.2259C10.7562 10.6719 10.8627 10.2159 11.0758 9.85795C11.2889 9.5 11.5765 9.21662 11.9387 9.00781C12.301 8.79901 12.7058 8.64134 13.1532 8.5348C13.6007 8.42827 14.0566 8.3473 14.5211 8.2919C15.1092 8.22372 15.5865 8.16832 15.9529 8.12571C16.3194 8.07884 16.5858 8.00426 16.752 7.90199C16.9181 7.79972 17.0012 7.63352 17.0012 7.40341V7.35866C17.0012 6.80043 16.8436 6.3679 16.5282 6.06108C16.2172 5.75426 15.7527 5.60085 15.1348 5.60085C14.4913 5.60085 13.9842 5.74361 13.6135 6.02912C13.247 6.31037 12.9934 6.62358 12.8528 6.96875L11.0566 6.55966C11.2697 5.96307 11.5808 5.48153 11.9899 5.11506C12.4032 4.74432 12.8784 4.47585 13.4153 4.30966C13.9522 4.1392 14.5169 4.05398 15.1092 4.05398C15.5012 4.05398 15.9167 4.10085 16.3556 4.1946C16.7988 4.28409 17.2122 4.45028 17.5957 4.69318C17.9835 4.93608 18.301 5.28338 18.5481 5.73509C18.7953 6.18253 18.9189 6.7642 18.9189 7.48011V14H17.0524V12.6577H16.9757C16.8521 12.9048 16.6667 13.1477 16.4196 13.3864C16.1724 13.625 15.8549 13.8232 15.4672 13.9808C15.0794 14.1385 14.6149 14.2173 14.0737 14.2173ZM14.4892 12.6832C15.0176 12.6832 15.4693 12.5788 15.8443 12.37C16.2235 12.1612 16.5112 11.8885 16.7072 11.5518C16.9075 11.2109 17.0076 10.8466 17.0076 10.4588V9.19318C16.9395 9.26136 16.8074 9.32528 16.6113 9.38494C16.4196 9.44034 16.2001 9.48935 15.9529 9.53196C15.7058 9.57031 15.465 9.60653 15.2306 9.64062C14.9963 9.67045 14.8002 9.69602 14.6426 9.71733C14.2718 9.7642 13.9331 9.84304 13.6262 9.95384C13.3237 10.0646 13.0808 10.2244 12.8975 10.4332C12.7186 10.6378 12.6291 10.9105 12.6291 11.2514C12.6291 11.7244 12.8038 12.0824 13.1532 12.3253C13.5027 12.5639 13.948 12.6832 14.4892 12.6832ZM23.3757 0.909091V14H21.4645V0.909091H23.3757ZM28.8042 14.2173C28.182 14.2173 27.6195 14.1023 27.1167 13.8722C26.6138 13.6378 26.2154 13.299 25.9213 12.8558C25.6316 12.4126 25.4867 11.8693 25.4867 11.2259C25.4867 10.6719 25.5932 10.2159 25.8063 9.85795C26.0194 9.5 26.307 9.21662 26.6692 9.00781C27.0314 8.79901 27.4363 8.64134 27.8837 8.5348C28.3311 8.42827 28.7871 8.3473 29.2516 8.2919C29.8397 8.22372 30.3169 8.16832 30.6834 8.12571C31.0499 8.07884 31.3162 8.00426 31.4824 7.90199C31.6486 7.79972 31.7317 7.63352 31.7317 7.40341V7.35866C31.7317 6.80043 31.574 6.3679 31.2587 6.06108C30.9476 5.75426 30.4831 5.60085 29.8652 5.60085C29.2218 5.60085 28.7147 5.74361 28.3439 6.02912C27.9775 6.31037 27.7239 6.62358 27.5833 6.96875L25.7871 6.55966C26.0002 5.96307 26.3113 5.48153 26.7203 5.11506C27.1337 4.74432 27.6088 4.47585 28.1458 4.30966C28.6827 4.1392 29.2473 4.05398 29.8397 4.05398C30.2317 4.05398 30.6472 4.10085 31.0861 4.1946C31.5293 4.28409 31.9426 4.45028 32.3262 4.69318C32.714 4.93608 33.0314 5.28338 33.2786 5.73509C33.5257 6.18253 33.6493 6.7642 33.6493 7.48011V14H31.7828V12.6577H31.7061C31.5826 12.9048 31.3972 13.1477 31.15 13.3864C30.9029 13.625 30.5854 13.8232 30.1976 13.9808C29.8098 14.1385 29.3453 14.2173 28.8042 14.2173ZM29.2196 12.6832C29.748 12.6832 30.1998 12.5788 30.5748 12.37C30.954 12.1612 31.2417 11.8885 31.4377 11.5518C31.638 11.2109 31.7381 10.8466 31.7381 10.4588V9.19318C31.6699 9.26136 31.5378 9.32528 31.3418 9.38494C31.15 9.44034 30.9306 9.48935 30.6834 9.53196C30.4363 9.57031 30.1955 9.60653 29.9611 9.64062C29.7267 9.67045 29.5307 9.69602 29.373 9.71733C29.0023 9.7642 28.6635 9.84304 28.3567 9.95384C28.0542 10.0646 27.8113 10.2244 27.628 10.4332C27.449 10.6378 27.3596 10.9105 27.3596 11.2514C27.3596 11.7244 27.5343 12.0824 27.8837 12.3253C28.2331 12.5639 28.6784 12.6832 29.2196 12.6832ZM38.1062 8.17045V14H36.195V4.18182H38.0295V5.77983H38.1509C38.3768 5.25994 38.7305 4.84233 39.212 4.52699C39.6978 4.21165 40.3093 4.05398 41.0465 4.05398C41.7156 4.05398 42.3015 4.1946 42.8043 4.47585C43.3072 4.75284 43.6971 5.16619 43.9741 5.71591C44.2511 6.26562 44.3896 6.94531 44.3896 7.75497V14H42.4783V7.98509C42.4783 7.27344 42.293 6.71733 41.9222 6.31676C41.5515 5.91193 41.0423 5.70952 40.3945 5.70952C39.9513 5.70952 39.5572 5.8054 39.212 5.99716C38.8711 6.18892 38.6005 6.47017 38.4002 6.84091C38.2042 7.20739 38.1062 7.65057 38.1062 8.17045ZM52.9757 14H50.8791L55.59 0.909091H57.872L62.5829 14H60.4863L56.7853 3.28693H56.6831L52.9757 14ZM53.3272 8.87358H60.1284V10.5355H53.3272V8.87358ZM64.32 4.18182H66.2312V14.6392C66.2312 15.2955 66.1119 15.8494 65.8732 16.3011C65.6388 16.7528 65.2894 17.0959 64.8249 17.3303C64.3647 17.5646 63.7958 17.6818 63.1183 17.6818C63.0501 17.6818 62.9862 17.6818 62.9265 17.6818C62.8626 17.6818 62.7965 17.6797 62.7283 17.6754V16.0327C62.788 16.0327 62.8413 16.0327 62.8881 16.0327C62.9308 16.0327 62.9798 16.0327 63.0352 16.0327C63.4869 16.0327 63.8129 15.9112 64.0131 15.6683C64.2177 15.4297 64.32 15.0824 64.32 14.6264V4.18182ZM65.266 2.6669C64.9336 2.6669 64.6481 2.55611 64.4094 2.33452C64.1751 2.10866 64.0579 1.8402 64.0579 1.52912C64.0579 1.21378 64.1751 0.945312 64.4094 0.723721C64.6481 0.497869 64.9336 0.384943 65.266 0.384943C65.5984 0.384943 65.8817 0.497869 66.1161 0.723721C66.3548 0.945312 66.4741 1.21378 66.4741 1.52912C66.4741 1.8402 66.3548 2.10866 66.1161 2.33452C65.8817 2.55611 65.5984 2.6669 65.266 2.6669ZM71.6596 14.2173C71.0375 14.2173 70.475 14.1023 69.9721 13.8722C69.4693 13.6378 69.0708 13.299 68.7768 12.8558C68.487 12.4126 68.3422 11.8693 68.3422 11.2259C68.3422 10.6719 68.4487 10.2159 68.6618 9.85795C68.8748 9.5 69.1625 9.21662 69.5247 9.00781C69.8869 8.79901 70.2917 8.64134 70.7392 8.5348C71.1866 8.42827 71.6426 8.3473 72.1071 8.2919C72.6951 8.22372 73.1724 8.16832 73.5389 8.12571C73.9054 8.07884 74.1717 8.00426 74.3379 7.90199C74.5041 7.79972 74.5872 7.63352 74.5872 7.40341V7.35866C74.5872 6.80043 74.4295 6.3679 74.1142 6.06108C73.8031 5.75426 73.3386 5.60085 72.7207 5.60085C72.0772 5.60085 71.5701 5.74361 71.1994 6.02912C70.8329 6.31037 70.5794 6.62358 70.4387 6.96875L68.6426 6.55966C68.8556 5.96307 69.1667 5.48153 69.5758 5.11506C69.9892 4.74432 70.4643 4.47585 71.0012 4.30966C71.5382 4.1392 72.1028 4.05398 72.6951 4.05398C73.0872 4.05398 73.5027 4.10085 73.9416 4.1946C74.3848 4.28409 74.7981 4.45028 75.1816 4.69318C75.5694 4.93608 75.8869 5.28338 76.1341 5.73509C76.3812 6.18253 76.5048 6.7642 76.5048 7.48011V14H74.6383V12.6577H74.5616C74.438 12.9048 74.2527 13.1477 74.0055 13.3864C73.7583 13.625 73.4409 13.8232 73.0531 13.9808C72.6653 14.1385 72.2008 14.2173 71.6596 14.2173ZM72.0751 12.6832C72.6035 12.6832 73.0552 12.5788 73.4302 12.37C73.8095 12.1612 74.0971 11.8885 74.2931 11.5518C74.4934 11.2109 74.5936 10.8466 74.5936 10.4588V9.19318C74.5254 9.26136 74.3933 9.32528 74.1973 9.38494C74.0055 9.44034 73.786 9.48935 73.5389 9.53196C73.2917 9.57031 73.051 9.60653 72.8166 9.64062C72.5822 9.67045 72.3862 9.69602 72.2285 9.71733C71.8578 9.7642 71.519 9.84304 71.2122 9.95384C70.9096 10.0646 70.6667 10.2244 70.4835 10.4332C70.3045 10.6378 70.215 10.9105 70.215 11.2514C70.215 11.7244 70.3897 12.0824 70.7392 12.3253C71.0886 12.5639 71.5339 12.6832 72.0751 12.6832ZM88.2054 14H83.9675V0.909091H88.3397C89.6223 0.909091 90.7239 1.17116 91.6444 1.69531C92.5648 2.2152 93.2701 2.96307 93.7601 3.93892C94.2544 4.91051 94.5016 6.07599 94.5016 7.43537C94.5016 8.79901 94.2523 9.97088 93.7537 10.951C93.2594 11.9311 92.5435 12.6854 91.606 13.2138C90.6685 13.7379 89.535 14 88.2054 14ZM85.9426 12.2741H88.0968C89.0939 12.2741 89.9228 12.0866 90.5833 11.7116C91.2438 11.3324 91.7381 10.7848 92.0662 10.0689C92.3944 9.34872 92.5584 8.47088 92.5584 7.43537C92.5584 6.40838 92.3944 5.53693 92.0662 4.82102C91.7424 4.10511 91.2587 3.56179 90.6152 3.19105C89.9718 2.82031 89.1728 2.63494 88.2182 2.63494H85.9426V12.2741ZM103.024 9.92827V4.18182H104.941V14H103.062V12.2997H102.96C102.734 12.8239 102.372 13.2607 101.873 13.6101C101.379 13.9553 100.763 14.1278 100.026 14.1278C99.3952 14.1278 98.837 13.9893 98.3512 13.7124C97.8697 13.4311 97.4904 13.0156 97.2134 12.4659C96.9407 11.9162 96.8043 11.2365 96.8043 10.4268V4.18182H98.7156V10.1967C98.7156 10.8658 98.9009 11.3984 99.2717 11.7947C99.6424 12.1911 100.124 12.3892 100.716 12.3892C101.074 12.3892 101.43 12.2997 101.784 12.1207C102.142 11.9418 102.438 11.6712 102.672 11.3089C102.911 10.9467 103.028 10.4865 103.024 9.92827ZM109.421 0.909091V14H107.509V0.909091H109.421ZM118.211 9.92827V4.18182H120.129V14H118.25V12.2997H118.147C117.922 12.8239 117.559 13.2607 117.061 13.6101C116.566 13.9553 115.951 14.1278 115.213 14.1278C114.583 14.1278 114.025 13.9893 113.539 13.7124C113.057 13.4311 112.678 13.0156 112.401 12.4659C112.128 11.9162 111.992 11.2365 111.992 10.4268V4.18182H113.903V10.1967C113.903 10.8658 114.088 11.3984 114.459 11.7947C114.83 12.1911 115.311 12.3892 115.904 12.3892C116.262 12.3892 116.618 12.2997 116.971 12.1207C117.329 11.9418 117.625 11.6712 117.86 11.3089C118.098 10.9467 118.216 10.4865 118.211 9.92827ZM125.183 12.2102L125.088 12.907C125.024 13.4183 124.915 13.951 124.762 14.505C124.612 15.0632 124.457 15.581 124.295 16.0582C124.137 16.5355 124.007 16.9148 123.905 17.196H122.55C122.605 16.9318 122.682 16.5739 122.78 16.1222C122.878 15.6747 122.974 15.174 123.068 14.62C123.161 14.0661 123.232 13.5014 123.279 12.9261L123.343 12.2102H125.183ZM131.943 2.60938V0.909091H142.074V2.60938H137.99V14H136.021V2.60938H131.943ZM146.968 14.1982C146 14.1982 145.167 13.9915 144.468 13.5781C143.774 13.1605 143.237 12.5746 142.857 11.8203C142.482 11.0618 142.295 10.1733 142.295 9.15483C142.295 8.14915 142.482 7.26278 142.857 6.49574C143.237 5.72869 143.765 5.12997 144.443 4.69957C145.124 4.26918 145.921 4.05398 146.833 4.05398C147.387 4.05398 147.924 4.1456 148.444 4.32884C148.964 4.51207 149.431 4.79972 149.844 5.19176C150.257 5.58381 150.583 6.09304 150.822 6.71946C151.061 7.34162 151.18 8.09801 151.18 8.98864V9.66619H143.375V8.23438H149.307C149.307 7.73153 149.205 7.28622 149 6.89844C148.796 6.50639 148.508 6.19744 148.137 5.97159C147.771 5.74574 147.34 5.63281 146.846 5.63281C146.309 5.63281 145.84 5.76491 145.44 6.02912C145.044 6.28906 144.737 6.62997 144.519 7.05185C144.306 7.46946 144.2 7.9233 144.2 8.41335V9.53196C144.2 10.1882 144.315 10.7464 144.545 11.2067C144.779 11.6669 145.105 12.0185 145.523 12.2614C145.941 12.5 146.428 12.6193 146.987 12.6193C147.349 12.6193 147.679 12.5682 147.977 12.4659C148.276 12.3594 148.534 12.2017 148.751 11.9929C148.968 11.7841 149.134 11.5263 149.249 11.2195L151.058 11.5455C150.914 12.0781 150.654 12.5447 150.279 12.9453C149.908 13.3416 149.441 13.6506 148.879 13.8722C148.32 14.0895 147.683 14.1982 146.968 14.1982ZM153.454 14V0.909091H155.365V5.77344H155.48C155.591 5.56889 155.751 5.33239 155.96 5.06392C156.168 4.79545 156.458 4.56108 156.829 4.3608C157.2 4.15625 157.69 4.05398 158.299 4.05398C159.092 4.05398 159.799 4.25426 160.421 4.65483C161.043 5.0554 161.531 5.63281 161.885 6.38707C162.243 7.14133 162.422 8.04901 162.422 9.11009C162.422 10.1712 162.245 11.081 161.891 11.8395C161.538 12.5937 161.052 13.1754 160.434 13.5845C159.816 13.9893 159.111 14.1918 158.318 14.1918C157.722 14.1918 157.234 14.0916 156.854 13.8913C156.479 13.6911 156.185 13.4567 155.972 13.1882C155.759 12.9197 155.595 12.6811 155.48 12.4723H155.32V14H153.454ZM155.327 9.09091C155.327 9.78125 155.427 10.3864 155.627 10.9062C155.827 11.4261 156.117 11.8331 156.496 12.1271C156.876 12.4169 157.34 12.5618 157.89 12.5618C158.461 12.5618 158.938 12.4105 159.322 12.108C159.705 11.8011 159.995 11.3857 160.191 10.8615C160.391 10.3374 160.491 9.74716 160.491 9.09091C160.491 8.44318 160.393 7.86151 160.197 7.34588C160.006 6.83026 159.716 6.4233 159.328 6.125C158.945 5.8267 158.465 5.67756 157.89 5.67756C157.336 5.67756 156.867 5.82031 156.484 6.10582C156.104 6.39133 155.817 6.78977 155.621 7.30114C155.425 7.8125 155.327 8.40909 155.327 9.09091ZM168.8 14.1982C167.832 14.1982 166.999 13.9915 166.3 13.5781C165.606 13.1605 165.069 12.5746 164.689 11.8203C164.314 11.0618 164.127 10.1733 164.127 9.15483C164.127 8.14915 164.314 7.26278 164.689 6.49574C165.069 5.72869 165.597 5.12997 166.275 4.69957C166.956 4.26918 167.753 4.05398 168.665 4.05398C169.219 4.05398 169.756 4.1456 170.276 4.32884C170.796 4.51207 171.263 4.79972 171.676 5.19176C172.089 5.58381 172.415 6.09304 172.654 6.71946C172.893 7.34162 173.012 8.09801 173.012 8.98864V9.66619H165.207V8.23438H171.139C171.139 7.73153 171.037 7.28622 170.832 6.89844C170.628 6.50639 170.34 6.19744 169.969 5.97159C169.603 5.74574 169.172 5.63281 168.678 5.63281C168.141 5.63281 167.672 5.76491 167.272 6.02912C166.876 6.28906 166.569 6.62997 166.351 7.05185C166.138 7.46946 166.032 7.9233 166.032 8.41335V9.53196C166.032 10.1882 166.147 10.7464 166.377 11.2067C166.611 11.6669 166.937 12.0185 167.355 12.2614C167.773 12.5 168.26 12.6193 168.819 12.6193C169.181 12.6193 169.511 12.5682 169.809 12.4659C170.108 12.3594 170.366 12.2017 170.583 11.9929C170.8 11.7841 170.966 11.5263 171.081 11.2195L172.89 11.5455C172.746 12.0781 172.486 12.5447 172.111 12.9453C171.74 13.3416 171.273 13.6506 170.711 13.8722C170.153 14.0895 169.515 14.1982 168.8 14.1982ZM177.044 0.909091V14H175.132V0.909091H177.044ZM184.532 14V0.909091H189.326C190.255 0.909091 191.024 1.0625 191.634 1.36932C192.243 1.67187 192.699 2.0831 193.001 2.60298C193.304 3.11861 193.455 3.70028 193.455 4.34801C193.455 4.89347 193.355 5.35369 193.155 5.72869C192.955 6.09943 192.686 6.39773 192.349 6.62358C192.017 6.84517 191.651 7.0071 191.25 7.10938V7.23722C191.685 7.25852 192.109 7.39915 192.522 7.65909C192.94 7.91477 193.285 8.27912 193.558 8.75213C193.83 9.22514 193.967 9.80043 193.967 10.478C193.967 11.147 193.809 11.7479 193.494 12.2805C193.183 12.8089 192.701 13.2287 192.049 13.5398C191.397 13.8466 190.564 14 189.55 14H184.532ZM186.507 12.3061H189.358C190.304 12.3061 190.982 12.1229 191.391 11.7564C191.8 11.3899 192.004 10.9318 192.004 10.3821C192.004 9.96875 191.9 9.58949 191.691 9.24432C191.482 8.89915 191.184 8.62429 190.796 8.41974C190.413 8.2152 189.957 8.11293 189.428 8.11293H186.507V12.3061ZM186.507 6.57244H189.153C189.597 6.57244 189.995 6.48722 190.349 6.31676C190.707 6.14631 190.99 5.90767 191.199 5.60085C191.412 5.28977 191.518 4.9233 191.518 4.50142C191.518 3.96023 191.329 3.50639 190.95 3.13991C190.57 2.77344 189.989 2.5902 189.205 2.5902H186.507V6.57244ZM199.013 14.2173C198.391 14.2173 197.828 14.1023 197.326 13.8722C196.823 13.6378 196.424 13.299 196.13 12.8558C195.841 12.4126 195.696 11.8693 195.696 11.2259C195.696 10.6719 195.802 10.2159 196.015 9.85795C196.228 9.5 196.516 9.21662 196.878 9.00781C197.24 8.79901 197.645 8.64134 198.093 8.5348C198.54 8.42827 198.996 8.3473 199.461 8.2919C200.049 8.22372 200.526 8.16832 200.892 8.12571C201.259 8.07884 201.525 8.00426 201.691 7.90199C201.858 7.79972 201.941 7.63352 201.941 7.40341V7.35866C201.941 6.80043 201.783 6.3679 201.468 6.06108C201.157 5.75426 200.692 5.60085 200.074 5.60085C199.431 5.60085 198.924 5.74361 198.553 6.02912C198.186 6.31037 197.933 6.62358 197.792 6.96875L195.996 6.55966C196.209 5.96307 196.52 5.48153 196.929 5.11506C197.343 4.74432 197.818 4.47585 198.355 4.30966C198.892 4.1392 199.456 4.05398 200.049 4.05398C200.441 4.05398 200.856 4.10085 201.295 4.1946C201.738 4.28409 202.152 4.45028 202.535 4.69318C202.923 4.93608 203.24 5.28338 203.488 5.73509C203.735 6.18253 203.858 6.7642 203.858 7.48011V14H201.992V12.6577H201.915C201.792 12.9048 201.606 13.1477 201.359 13.3864C201.112 13.625 200.794 13.8232 200.407 13.9808C200.019 14.1385 199.554 14.2173 199.013 14.2173ZM199.429 12.6832C199.957 12.6832 200.409 12.5788 200.784 12.37C201.163 12.1612 201.451 11.8885 201.647 11.5518C201.847 11.2109 201.947 10.8466 201.947 10.4588V9.19318C201.879 9.26136 201.747 9.32528 201.551 9.38494C201.359 9.44034 201.14 9.48935 200.892 9.53196C200.645 9.57031 200.404 9.60653 200.17 9.64062C199.936 9.67045 199.74 9.69602 199.582 9.71733C199.211 9.7642 198.873 9.84304 198.566 9.95384C198.263 10.0646 198.02 10.2244 197.837 10.4332C197.658 10.6378 197.569 10.9105 197.569 11.2514C197.569 11.7244 197.743 12.0824 198.093 12.3253C198.442 12.5639 198.887 12.6832 199.429 12.6832ZM206.404 14V4.18182H208.251V5.74148H208.354C208.532 5.21307 208.848 4.79758 209.3 4.49503C209.756 4.18821 210.271 4.0348 210.846 4.0348C210.966 4.0348 211.106 4.03906 211.268 4.04759C211.434 4.05611 211.564 4.06676 211.658 4.07955V5.90767C211.581 5.88636 211.445 5.86293 211.249 5.83736C211.053 5.80753 210.857 5.79261 210.661 5.79261C210.209 5.79261 209.807 5.88849 209.453 6.08026C209.104 6.26776 208.827 6.52983 208.622 6.86648C208.417 7.19886 208.315 7.57812 208.315 8.00426V14H206.404ZM216.081 14.2173C215.459 14.2173 214.897 14.1023 214.394 13.8722C213.891 13.6378 213.493 13.299 213.199 12.8558C212.909 12.4126 212.764 11.8693 212.764 11.2259C212.764 10.6719 212.871 10.2159 213.084 9.85795C213.297 9.5 213.584 9.21662 213.947 9.00781C214.309 8.79901 214.714 8.64134 215.161 8.5348C215.608 8.42827 216.064 8.3473 216.529 8.2919C217.117 8.22372 217.594 8.16832 217.961 8.12571C218.327 8.07884 218.594 8.00426 218.76 7.90199C218.926 7.79972 219.009 7.63352 219.009 7.40341V7.35866C219.009 6.80043 218.851 6.3679 218.536 6.06108C218.225 5.75426 217.76 5.60085 217.143 5.60085C216.499 5.60085 215.992 5.74361 215.621 6.02912C215.255 6.31037 215.001 6.62358 214.861 6.96875L213.064 6.55966C213.278 5.96307 213.589 5.48153 213.998 5.11506C214.411 4.74432 214.886 4.47585 215.423 4.30966C215.96 4.1392 216.525 4.05398 217.117 4.05398C217.509 4.05398 217.925 4.10085 218.363 4.1946C218.807 4.28409 219.22 4.45028 219.604 4.69318C219.991 4.93608 220.309 5.28338 220.556 5.73509C220.803 6.18253 220.927 6.7642 220.927 7.48011V14H219.06V12.6577H218.983C218.86 12.9048 218.675 13.1477 218.427 13.3864C218.18 13.625 217.863 13.8232 217.475 13.9808C217.087 14.1385 216.623 14.2173 216.081 14.2173ZM216.497 12.6832C217.025 12.6832 217.477 12.5788 217.852 12.37C218.231 12.1612 218.519 11.8885 218.715 11.5518C218.915 11.2109 219.015 10.8466 219.015 10.4588V9.19318C218.947 9.26136 218.815 9.32528 218.619 9.38494C218.427 9.44034 218.208 9.48935 217.961 9.53196C217.714 9.57031 217.473 9.60653 217.238 9.64062C217.004 9.67045 216.808 9.69602 216.65 9.71733C216.28 9.7642 215.941 9.84304 215.634 9.95384C215.331 10.0646 215.089 10.2244 214.905 10.4332C214.726 10.6378 214.637 10.9105 214.637 11.2514C214.637 11.7244 214.812 12.0824 215.161 12.3253C215.51 12.5639 215.956 12.6832 216.497 12.6832ZM228.055 4.18182V5.71591H222.692V4.18182H228.055ZM224.131 1.82955H226.042V11.1172C226.042 11.4879 226.097 11.767 226.208 11.9545C226.319 12.1378 226.462 12.2635 226.636 12.3317C226.815 12.3956 227.009 12.4276 227.218 12.4276C227.371 12.4276 227.506 12.4169 227.621 12.3956C227.736 12.3743 227.825 12.3572 227.889 12.3445L228.234 13.9233C228.124 13.9659 227.966 14.0085 227.761 14.0511C227.557 14.098 227.301 14.1236 226.994 14.1278C226.491 14.1364 226.023 14.0469 225.588 13.8594C225.153 13.6719 224.802 13.3821 224.533 12.9901C224.265 12.598 224.131 12.1058 224.131 11.5135V1.82955ZM232.656 12.2102L232.56 12.907C232.496 13.4183 232.388 13.951 232.234 14.505C232.085 15.0632 231.93 15.581 231.768 16.0582C231.61 16.5355 231.48 16.9148 231.378 17.196H230.023C230.078 16.9318 230.155 16.5739 230.253 16.1222C230.351 15.6747 230.447 15.174 230.54 14.62C230.634 14.0661 230.704 13.5014 230.751 12.9261L230.815 12.2102H232.656ZM0.792614 24.6094V22.9091H10.924V24.6094H6.83949V36H4.87074V24.6094H0.792614ZM15.8171 36.1982C14.8498 36.1982 14.0167 35.9915 13.3178 35.5781C12.6232 35.1605 12.0863 34.5746 11.707 33.8203C11.332 33.0618 11.1445 32.1733 11.1445 31.1548C11.1445 30.1491 11.332 29.2628 11.707 28.4957C12.0863 27.7287 12.6147 27.13 13.2923 26.6996C13.9741 26.2692 14.771 26.054 15.6829 26.054C16.2369 26.054 16.7738 26.1456 17.2937 26.3288C17.8136 26.5121 18.2802 26.7997 18.6935 27.1918C19.1069 27.5838 19.4329 28.093 19.6715 28.7195C19.9102 29.3416 20.0295 30.098 20.0295 30.9886V31.6662H12.2248V30.2344H18.1566C18.1566 29.7315 18.0543 29.2862 17.8498 28.8984C17.6452 28.5064 17.3576 28.1974 16.9869 27.9716C16.6204 27.7457 16.19 27.6328 15.6957 27.6328C15.1587 27.6328 14.69 27.7649 14.2894 28.0291C13.8931 28.2891 13.5863 28.63 13.369 29.0518C13.1559 29.4695 13.0494 29.9233 13.0494 30.4134V31.532C13.0494 32.1882 13.1644 32.7464 13.3945 33.2067C13.6289 33.6669 13.9549 34.0185 14.3725 34.2614C14.7901 34.5 15.2781 34.6193 15.8363 34.6193C16.1985 34.6193 16.5288 34.5682 16.8271 34.4659C17.1254 34.3594 17.3832 34.2017 17.6005 33.9929C17.8178 33.7841 17.984 33.5263 18.0991 33.2195L19.908 33.5455C19.7631 34.0781 19.5032 34.5447 19.1282 34.9453C18.7575 35.3416 18.2908 35.6506 17.7283 35.8722C17.1701 36.0895 16.533 36.1982 15.8171 36.1982ZM22.3034 36V22.9091H24.2147V27.7734H24.3297C24.4405 27.5689 24.6003 27.3324 24.8091 27.0639C25.0179 26.7955 25.3077 26.5611 25.6784 26.3608C26.0492 26.1562 26.5392 26.054 27.1486 26.054C27.9412 26.054 28.6486 26.2543 29.2708 26.6548C29.8929 27.0554 30.3809 27.6328 30.7346 28.3871C31.0925 29.1413 31.2715 30.049 31.2715 31.1101C31.2715 32.1712 31.0946 33.081 30.7409 33.8395C30.3873 34.5937 29.9015 35.1754 29.2836 35.5845C28.6657 35.9893 27.9604 36.1918 27.1678 36.1918C26.5712 36.1918 26.0833 36.0916 25.704 35.8913C25.329 35.6911 25.035 35.4567 24.8219 35.1882C24.6088 34.9197 24.4448 34.6811 24.3297 34.4723H24.1699V36H22.3034ZM24.1763 31.0909C24.1763 31.7812 24.2765 32.3864 24.4767 32.9062C24.677 33.4261 24.9668 33.8331 25.3461 34.1271C25.7253 34.4169 26.1898 34.5618 26.7395 34.5618C27.3105 34.5618 27.7878 34.4105 28.1713 34.108C28.5549 33.8011 28.8446 33.3857 29.0407 32.8615C29.2409 32.3374 29.3411 31.7472 29.3411 31.0909C29.3411 30.4432 29.2431 29.8615 29.0471 29.3459C28.8553 28.8303 28.5655 28.4233 28.1777 28.125C27.7942 27.8267 27.3148 27.6776 26.7395 27.6776C26.1855 27.6776 25.7168 27.8203 25.3333 28.1058C24.954 28.3913 24.6664 28.7898 24.4703 29.3011C24.2743 29.8125 24.1763 30.4091 24.1763 31.0909ZM37.6491 36.1982C36.6818 36.1982 35.8487 35.9915 35.1499 35.5781C34.4553 35.1605 33.9183 34.5746 33.5391 33.8203C33.1641 33.0618 32.9766 32.1733 32.9766 31.1548C32.9766 30.1491 33.1641 29.2628 33.5391 28.4957C33.9183 27.7287 34.4467 27.13 35.1243 26.6996C35.8061 26.2692 36.603 26.054 37.5149 26.054C38.0689 26.054 38.6058 26.1456 39.1257 26.3288C39.6456 26.5121 40.1122 26.7997 40.5256 27.1918C40.9389 27.5838 41.2649 28.093 41.5036 28.7195C41.7422 29.3416 41.8615 30.098 41.8615 30.9886V31.6662H34.0568V30.2344H39.9886C39.9886 29.7315 39.8864 29.2862 39.6818 28.8984C39.4773 28.5064 39.1896 28.1974 38.8189 27.9716C38.4524 27.7457 38.022 27.6328 37.5277 27.6328C36.9908 27.6328 36.522 27.7649 36.1214 28.0291C35.7251 28.2891 35.4183 28.63 35.201 29.0518C34.9879 29.4695 34.8814 29.9233 34.8814 30.4134V31.532C34.8814 32.1882 34.9964 32.7464 35.2266 33.2067C35.4609 33.6669 35.7869 34.0185 36.2045 34.2614C36.6222 34.5 37.1101 34.6193 37.6683 34.6193C38.0305 34.6193 38.3608 34.5682 38.6591 34.4659C38.9574 34.3594 39.2152 34.2017 39.4325 33.9929C39.6499 33.7841 39.8161 33.5263 39.9311 33.2195L41.7401 33.5455C41.5952 34.0781 41.3352 34.5447 40.9602 34.9453C40.5895 35.3416 40.1229 35.6506 39.5604 35.8722C39.0021 36.0895 38.3651 36.1982 37.6491 36.1982ZM45.8933 22.9091V36H43.9821V22.9091H45.8933ZM50.951 34.2102L50.8551 34.907C50.7912 35.4183 50.6825 35.951 50.5291 36.505C50.38 37.0632 50.2244 37.581 50.0625 38.0582C49.9048 38.5355 49.7749 38.9148 49.6726 39.196H48.3175C48.3729 38.9318 48.4496 38.5739 48.5476 38.1222C48.6456 37.6747 48.7415 37.174 48.8352 36.62C48.929 36.0661 48.9993 35.5014 49.0462 34.9261L49.1101 34.2102H50.951ZM58.3562 36V22.9091H60.3313V29.1605H60.4911L65.9819 22.9091H68.4684L63.1886 28.8026L68.4876 36H66.1097L61.8782 30.1513L60.3313 31.9283V36H58.3562ZM73.6667 36.1982C72.6994 36.1982 71.8663 35.9915 71.1674 35.5781C70.4728 35.1605 69.9359 34.5746 69.5566 33.8203C69.1816 33.0618 68.9941 32.1733 68.9941 31.1548C68.9941 30.1491 69.1816 29.2628 69.5566 28.4957C69.9359 27.7287 70.4643 27.13 71.1419 26.6996C71.8237 26.2692 72.6206 26.054 73.5325 26.054C74.0865 26.054 74.6234 26.1456 75.1433 26.3288C75.6632 26.5121 76.1298 26.7997 76.5431 27.1918C76.9565 27.5838 77.2825 28.093 77.5211 28.7195C77.7598 29.3416 77.8791 30.098 77.8791 30.9886V31.6662H70.0744V30.2344H76.0062C76.0062 29.7315 75.9039 29.2862 75.6994 28.8984C75.4949 28.5064 75.2072 28.1974 74.8365 27.9716C74.47 27.7457 74.0396 27.6328 73.5453 27.6328C73.0083 27.6328 72.5396 27.7649 72.139 28.0291C71.7427 28.2891 71.4359 28.63 71.2186 29.0518C71.0055 29.4695 70.899 29.9233 70.899 30.4134V31.532C70.899 32.1882 71.014 32.7464 71.2441 33.2067C71.4785 33.6669 71.8045 34.0185 72.2221 34.2614C72.6397 34.5 73.1277 34.6193 73.6859 34.6193C74.0481 34.6193 74.3784 34.5682 74.6767 34.4659C74.975 34.3594 75.2328 34.2017 75.4501 33.9929C75.6674 33.7841 75.8336 33.5263 75.9487 33.2195L77.7576 33.5455C77.6127 34.0781 77.3528 34.5447 76.9778 34.9453C76.6071 35.3416 76.1404 35.6506 75.5779 35.8722C75.0197 36.0895 74.3826 36.1982 73.6667 36.1982ZM84.1353 36.1982C83.185 36.1982 82.3668 35.983 81.6808 35.5526C80.9989 35.1179 80.4748 34.5192 80.1083 33.7564C79.7418 32.9936 79.5586 32.12 79.5586 31.1357C79.5586 30.1385 79.7461 29.2585 80.1211 28.4957C80.4961 27.7287 81.0245 27.13 81.7063 26.6996C82.3881 26.2692 83.1914 26.054 84.1161 26.054C84.8619 26.054 85.5266 26.1925 86.1104 26.4695C86.6942 26.7422 87.1651 27.1257 87.5231 27.62C87.8853 28.1143 88.1005 28.6918 88.1687 29.3523H86.3086C86.2063 28.892 85.9719 28.4957 85.6055 28.1634C85.2433 27.831 84.7575 27.6648 84.1481 27.6648C83.6154 27.6648 83.1488 27.8054 82.7482 28.0866C82.3519 28.3636 82.043 28.7599 81.8214 29.2756C81.5998 29.7869 81.489 30.392 81.489 31.0909C81.489 31.8068 81.5977 32.4247 81.815 32.9446C82.0323 33.4645 82.3391 33.8672 82.7354 34.1527C83.136 34.4382 83.6069 34.581 84.1481 34.581C84.5103 34.581 84.8384 34.5149 85.1325 34.3828C85.4308 34.2464 85.68 34.0526 85.8803 33.8011C86.0849 33.5497 86.2276 33.2472 86.3086 32.8935H88.1687C88.1005 33.5284 87.8938 34.0952 87.5487 34.5938C87.2035 35.0923 86.7411 35.4844 86.1616 35.7699C85.5863 36.0554 84.9109 36.1982 84.1353 36.1982ZM91.4718 36.1214C91.1223 36.1214 90.8219 35.9979 90.5705 35.7507C90.3191 35.4993 90.1934 35.1967 90.1934 34.843C90.1934 34.4936 90.3191 34.1953 90.5705 33.9482C90.8219 33.6967 91.1223 33.571 91.4718 33.571C91.8212 33.571 92.1216 33.6967 92.373 33.9482C92.6245 34.1953 92.7502 34.4936 92.7502 34.843C92.7502 35.0774 92.6905 35.2926 92.5712 35.4886C92.4561 35.6804 92.3027 35.8338 92.111 35.9489C91.9192 36.0639 91.7061 36.1214 91.4718 36.1214ZM108.876 27.0447C108.752 26.657 108.586 26.3097 108.377 26.0028C108.173 25.6918 107.928 25.4276 107.642 25.2102C107.357 24.9886 107.031 24.8203 106.664 24.7053C106.302 24.5902 105.903 24.5327 105.469 24.5327C104.732 24.5327 104.067 24.7223 103.474 25.1016C102.882 25.4808 102.413 26.0369 102.068 26.7699C101.727 27.4986 101.557 28.3913 101.557 29.4482C101.557 30.5092 101.729 31.4062 102.075 32.1392C102.42 32.8722 102.893 33.4283 103.494 33.8075C104.094 34.1868 104.778 34.3764 105.545 34.3764C106.257 34.3764 106.877 34.2315 107.406 33.9418C107.938 33.652 108.349 33.2429 108.639 32.7145C108.933 32.1818 109.08 31.5554 109.08 30.8352L109.592 30.9311H105.846V29.3011H110.991V30.7905C110.991 31.8899 110.757 32.8445 110.288 33.6541C109.824 34.4595 109.18 35.0817 108.358 35.5206C107.54 35.9595 106.602 36.179 105.545 36.179C104.361 36.179 103.321 35.9062 102.426 35.3608C101.536 34.8153 100.841 34.0419 100.342 33.0405C99.8438 32.0348 99.5945 30.8416 99.5945 29.4609C99.5945 28.4169 99.7393 27.4794 100.029 26.6484C100.319 25.8175 100.726 25.1122 101.25 24.5327C101.778 23.9489 102.398 23.5036 103.11 23.1967C103.826 22.8857 104.608 22.7301 105.456 22.7301C106.163 22.7301 106.822 22.8345 107.431 23.0433C108.045 23.2521 108.59 23.5483 109.067 23.9318C109.549 24.3153 109.947 24.7713 110.263 25.2997C110.578 25.8239 110.791 26.4055 110.902 27.0447H108.876ZM117.577 36.1982C116.61 36.1982 115.776 35.9915 115.078 35.5781C114.383 35.1605 113.846 34.5746 113.467 33.8203C113.092 33.0618 112.904 32.1733 112.904 31.1548C112.904 30.1491 113.092 29.2628 113.467 28.4957C113.846 27.7287 114.374 27.13 115.052 26.6996C115.734 26.2692 116.531 26.054 117.443 26.054C117.997 26.054 118.534 26.1456 119.053 26.3288C119.573 26.5121 120.04 26.7997 120.453 27.1918C120.867 27.5838 121.193 28.093 121.431 28.7195C121.67 29.3416 121.789 30.098 121.789 30.9886V31.6662H113.985V30.2344H119.916C119.916 29.7315 119.814 29.2862 119.61 28.8984C119.405 28.5064 119.117 28.1974 118.747 27.9716C118.38 27.7457 117.95 27.6328 117.455 27.6328C116.919 27.6328 116.45 27.7649 116.049 28.0291C115.653 28.2891 115.346 28.63 115.129 29.0518C114.916 29.4695 114.809 29.9233 114.809 30.4134V31.532C114.809 32.1882 114.924 32.7464 115.154 33.2067C115.389 33.6669 115.715 34.0185 116.132 34.2614C116.55 34.5 117.038 34.6193 117.596 34.6193C117.958 34.6193 118.289 34.5682 118.587 34.4659C118.885 34.3594 119.143 34.2017 119.36 33.9929C119.578 33.7841 119.744 33.5263 119.859 33.2195L121.668 33.5455C121.523 34.0781 121.263 34.5447 120.888 34.9453C120.517 35.3416 120.051 35.6506 119.488 35.8722C118.93 36.0895 118.293 36.1982 117.577 36.1982ZM127.585 36.1918C126.793 36.1918 126.085 35.9893 125.463 35.5845C124.845 35.1754 124.359 34.5937 124.006 33.8395C123.656 33.081 123.482 32.1712 123.482 31.1101C123.482 30.049 123.658 29.1413 124.012 28.3871C124.37 27.6328 124.86 27.0554 125.482 26.6548C126.104 26.2543 126.81 26.054 127.598 26.054C128.207 26.054 128.697 26.1562 129.068 26.3608C129.443 26.5611 129.733 26.7955 129.938 27.0639C130.146 27.3324 130.308 27.5689 130.423 27.7734H130.538V22.9091H132.45V36H130.583V34.4723H130.423C130.308 34.6811 130.142 34.9197 129.925 35.1882C129.712 35.4567 129.418 35.6911 129.043 35.8913C128.668 36.0916 128.182 36.1918 127.585 36.1918ZM128.007 34.5618C128.557 34.5618 129.021 34.4169 129.401 34.1271C129.784 33.8331 130.074 33.4261 130.27 32.9062C130.47 32.3864 130.57 31.7812 130.57 31.0909C130.57 30.4091 130.472 29.8125 130.276 29.3011C130.08 28.7898 129.793 28.3913 129.413 28.1058C129.034 27.8203 128.565 27.6776 128.007 27.6776C127.432 27.6776 126.952 27.8267 126.569 28.125C126.185 28.4233 125.896 28.8303 125.7 29.3459C125.508 29.8615 125.412 30.4432 125.412 31.0909C125.412 31.7472 125.51 32.3374 125.706 32.8615C125.902 33.3857 126.192 33.8011 126.575 34.108C126.963 34.4105 127.44 34.5618 128.007 34.5618ZM138.035 36.2173C137.412 36.2173 136.85 36.1023 136.347 35.8722C135.844 35.6378 135.446 35.299 135.152 34.8558C134.862 34.4126 134.717 33.8693 134.717 33.2259C134.717 32.6719 134.824 32.2159 135.037 31.858C135.25 31.5 135.537 31.2166 135.9 31.0078C136.262 30.799 136.667 30.6413 137.114 30.5348C137.562 30.4283 138.018 30.3473 138.482 30.2919C139.07 30.2237 139.547 30.1683 139.914 30.1257C140.28 30.0788 140.547 30.0043 140.713 29.902C140.879 29.7997 140.962 29.6335 140.962 29.4034V29.3587C140.962 28.8004 140.805 28.3679 140.489 28.0611C140.178 27.7543 139.714 27.6009 139.096 27.6009C138.452 27.6009 137.945 27.7436 137.574 28.0291C137.208 28.3104 136.954 28.6236 136.814 28.9688L135.018 28.5597C135.231 27.9631 135.542 27.4815 135.951 27.1151C136.364 26.7443 136.839 26.4759 137.376 26.3097C137.913 26.1392 138.478 26.054 139.07 26.054C139.462 26.054 139.878 26.1009 140.317 26.1946C140.76 26.2841 141.173 26.4503 141.557 26.6932C141.944 26.9361 142.262 27.2834 142.509 27.7351C142.756 28.1825 142.88 28.7642 142.88 29.4801V36H141.013V34.6577H140.937C140.813 34.9048 140.628 35.1477 140.381 35.3864C140.133 35.625 139.816 35.8232 139.428 35.9808C139.04 36.1385 138.576 36.2173 138.035 36.2173ZM138.45 34.6832C138.979 34.6832 139.43 34.5788 139.805 34.37C140.184 34.1612 140.472 33.8885 140.668 33.5518C140.868 33.2109 140.969 32.8466 140.969 32.4588V31.1932C140.9 31.2614 140.768 31.3253 140.572 31.3849C140.381 31.4403 140.161 31.4893 139.914 31.532C139.667 31.5703 139.426 31.6065 139.192 31.6406C138.957 31.6705 138.761 31.696 138.604 31.7173C138.233 31.7642 137.894 31.843 137.587 31.9538C137.285 32.0646 137.042 32.2244 136.858 32.4332C136.68 32.6378 136.59 32.9105 136.59 33.2514C136.59 33.7244 136.765 34.0824 137.114 34.3253C137.464 34.5639 137.909 34.6832 138.45 34.6832ZM147.337 30.1705V36H145.425V26.1818H147.26V27.7798H147.381C147.607 27.2599 147.961 26.8423 148.442 26.527C148.928 26.2116 149.54 26.054 150.277 26.054C150.946 26.054 151.532 26.1946 152.035 26.4759C152.538 26.7528 152.928 27.1662 153.205 27.7159C153.482 28.2656 153.62 28.9453 153.62 29.755V36H151.709V29.9851C151.709 29.2734 151.523 28.7173 151.153 28.3168C150.782 27.9119 150.273 27.7095 149.625 27.7095C149.182 27.7095 148.788 27.8054 148.442 27.9972C148.102 28.1889 147.831 28.4702 147.631 28.8409C147.435 29.2074 147.337 29.6506 147.337 30.1705ZM160.3 39.8864C159.52 39.8864 158.849 39.7841 158.286 39.5795C157.728 39.375 157.272 39.1044 156.918 38.7678C156.565 38.4311 156.3 38.0625 156.126 37.6619L157.768 36.9844C157.884 37.1719 158.037 37.37 158.229 37.5788C158.425 37.7919 158.689 37.973 159.021 38.1222C159.358 38.2713 159.79 38.3459 160.319 38.3459C161.043 38.3459 161.642 38.169 162.115 37.8153C162.588 37.4659 162.825 36.9077 162.825 36.1406V34.2102H162.703C162.588 34.419 162.422 34.6513 162.205 34.907C161.991 35.1626 161.697 35.3842 161.322 35.5717C160.947 35.7592 160.46 35.853 159.859 35.853C159.083 35.853 158.384 35.6719 157.762 35.3097C157.144 34.9432 156.654 34.4041 156.292 33.6925C155.934 32.9766 155.755 32.0966 155.755 31.0526C155.755 30.0085 155.932 29.1136 156.286 28.3679C156.643 27.6222 157.134 27.0511 157.756 26.6548C158.378 26.2543 159.083 26.054 159.871 26.054C160.481 26.054 160.973 26.1562 161.348 26.3608C161.723 26.5611 162.015 26.7955 162.224 27.0639C162.437 27.3324 162.601 27.5689 162.716 27.7734H162.857V26.1818H164.729V36.2173C164.729 37.0611 164.533 37.7536 164.141 38.2947C163.749 38.8359 163.219 39.2365 162.55 39.4964C161.885 39.7564 161.135 39.8864 160.3 39.8864ZM160.281 34.2678C160.83 34.2678 161.295 34.1399 161.674 33.8842C162.058 33.6243 162.347 33.2536 162.543 32.772C162.744 32.2862 162.844 31.7045 162.844 31.027C162.844 30.3665 162.746 29.7848 162.55 29.282C162.354 28.7791 162.066 28.3871 161.687 28.1058C161.308 27.8203 160.839 27.6776 160.281 27.6776C159.705 27.6776 159.226 27.8267 158.842 28.125C158.459 28.419 158.169 28.8196 157.973 29.3267C157.781 29.8338 157.685 30.4006 157.685 31.027C157.685 31.6705 157.783 32.2351 157.979 32.7209C158.175 33.2067 158.465 33.5859 158.849 33.8587C159.237 34.1314 159.714 34.2678 160.281 34.2678ZM170.15 36.2173C169.528 36.2173 168.965 36.1023 168.462 35.8722C167.96 35.6378 167.561 35.299 167.267 34.8558C166.977 34.4126 166.832 33.8693 166.832 33.2259C166.832 32.6719 166.939 32.2159 167.152 31.858C167.365 31.5 167.653 31.2166 168.015 31.0078C168.377 30.799 168.782 30.6413 169.229 30.5348C169.677 30.4283 170.133 30.3473 170.597 30.2919C171.185 30.2237 171.663 30.1683 172.029 30.1257C172.396 30.0788 172.662 30.0043 172.828 29.902C172.994 29.7997 173.077 29.6335 173.077 29.4034V29.3587C173.077 28.8004 172.92 28.3679 172.604 28.0611C172.293 27.7543 171.829 27.6009 171.211 27.6009C170.567 27.6009 170.06 27.7436 169.69 28.0291C169.323 28.3104 169.07 28.6236 168.929 28.9688L167.133 28.5597C167.346 27.9631 167.657 27.4815 168.066 27.1151C168.479 26.7443 168.955 26.4759 169.491 26.3097C170.028 26.1392 170.593 26.054 171.185 26.054C171.577 26.054 171.993 26.1009 172.432 26.1946C172.875 26.2841 173.288 26.4503 173.672 26.6932C174.06 26.9361 174.377 27.2834 174.624 27.7351C174.871 28.1825 174.995 28.7642 174.995 29.4801V36H173.129V34.6577H173.052C172.928 34.9048 172.743 35.1477 172.496 35.3864C172.249 35.625 171.931 35.8232 171.543 35.9808C171.156 36.1385 170.691 36.2173 170.15 36.2173ZM170.565 34.6832C171.094 34.6832 171.545 34.5788 171.92 34.37C172.3 34.1612 172.587 33.8885 172.783 33.5518C172.984 33.2109 173.084 32.8466 173.084 32.4588V31.1932C173.016 31.2614 172.884 31.3253 172.688 31.3849C172.496 31.4403 172.276 31.4893 172.029 31.532C171.782 31.5703 171.541 31.6065 171.307 31.6406C171.072 31.6705 170.876 31.696 170.719 31.7173C170.348 31.7642 170.009 31.843 169.702 31.9538C169.4 32.0646 169.157 32.2244 168.974 32.4332C168.795 32.6378 168.705 32.9105 168.705 33.2514C168.705 33.7244 168.88 34.0824 169.229 34.3253C169.579 34.5639 170.024 34.6832 170.565 34.6832ZM179.452 30.1705V36H177.541V26.1818H179.375V27.7798H179.497C179.722 27.2599 180.076 26.8423 180.558 26.527C181.044 26.2116 181.655 26.054 182.392 26.054C183.061 26.054 183.647 26.1946 184.15 26.4759C184.653 26.7528 185.043 27.1662 185.32 27.7159C185.597 28.2656 185.735 28.9453 185.735 29.755V36H183.824V29.9851C183.824 29.2734 183.639 28.7173 183.268 28.3168C182.897 27.9119 182.388 27.7095 181.74 27.7095C181.297 27.7095 180.903 27.8054 180.558 27.9972C180.217 28.1889 179.946 28.4702 179.746 28.8409C179.55 29.2074 179.452 29.6506 179.452 30.1705ZM190.785 34.2102L190.689 34.907C190.625 35.4183 190.517 35.951 190.363 36.505C190.214 37.0632 190.058 37.581 189.896 38.0582C189.739 38.5355 189.609 38.9148 189.507 39.196H188.151C188.207 38.9318 188.284 38.5739 188.382 38.1222C188.48 37.6747 188.575 37.174 188.669 36.62C188.763 36.0661 188.833 35.5014 188.88 34.9261L188.944 34.2102H190.785ZM1.43821 58V44.9091H3.41335V51.1605H3.57315L9.06392 44.9091H11.5504L6.2706 50.8026L11.5696 58H9.19176L4.96023 52.1513L3.41335 53.9283V58H1.43821ZM16.0952 58.2173C15.473 58.2173 14.9105 58.1023 14.4077 57.8722C13.9048 57.6378 13.5064 57.299 13.2124 56.8558C12.9226 56.4126 12.7777 55.8693 12.7777 55.2259C12.7777 54.6719 12.8842 54.2159 13.0973 53.858C13.3104 53.5 13.598 53.2166 13.9602 53.0078C14.3224 52.799 14.7273 52.6413 15.1747 52.5348C15.6222 52.4283 16.0781 52.3473 16.5426 52.2919C17.1307 52.2237 17.608 52.1683 17.9744 52.1257C18.3409 52.0788 18.6072 52.0043 18.7734 51.902C18.9396 51.7997 19.0227 51.6335 19.0227 51.4034V51.3587C19.0227 50.8004 18.8651 50.3679 18.5497 50.0611C18.2386 49.7543 17.7741 49.6009 17.1562 49.6009C16.5128 49.6009 16.0057 49.7436 15.6349 50.0291C15.2685 50.3104 15.0149 50.6236 14.8743 50.9688L13.0781 50.5597C13.2912 49.9631 13.6023 49.4815 14.0114 49.1151C14.4247 48.7443 14.8999 48.4759 15.4368 48.3097C15.9737 48.1392 16.5384 48.054 17.1307 48.054C17.5227 48.054 17.9382 48.1009 18.3771 48.1946C18.8203 48.2841 19.2337 48.4503 19.6172 48.6932C20.005 48.9361 20.3224 49.2834 20.5696 49.7351C20.8168 50.1825 20.9403 50.7642 20.9403 51.4801V58H19.0739V56.6577H18.9972C18.8736 56.9048 18.6882 57.1477 18.4411 57.3864C18.1939 57.625 17.8764 57.8232 17.4886 57.9808C17.1009 58.1385 16.6364 58.2173 16.0952 58.2173ZM16.5107 56.6832C17.0391 56.6832 17.4908 56.5788 17.8658 56.37C18.245 56.1612 18.5327 55.8885 18.7287 55.5518C18.929 55.2109 19.0291 54.8466 19.0291 54.4588V53.1932C18.9609 53.2614 18.8288 53.3253 18.6328 53.3849C18.4411 53.4403 18.2216 53.4893 17.9744 53.532C17.7273 53.5703 17.4865 53.6065 17.2521 53.6406C17.0178 53.6705 16.8217 53.696 16.6641 53.7173C16.2933 53.7642 15.9545 53.843 15.6477 53.9538C15.3452 54.0646 15.1023 54.2244 14.919 54.4332C14.7401 54.6378 14.6506 54.9105 14.6506 55.2514C14.6506 55.7244 14.8253 56.0824 15.1747 56.3253C15.5241 56.5639 15.9695 56.6832 16.5107 56.6832ZM23.6394 58V44.9091H25.5506V49.7734H25.6657C25.7765 49.5689 25.9363 49.3324 26.1451 49.0639C26.3539 48.7955 26.6436 48.5611 27.0144 48.3608C27.3851 48.1562 27.8752 48.054 28.4846 48.054C29.2772 48.054 29.9846 48.2543 30.6067 48.6548C31.2289 49.0554 31.7168 49.6328 32.0705 50.3871C32.4284 51.1413 32.6074 52.049 32.6074 53.1101C32.6074 54.1712 32.4306 55.081 32.0769 55.8395C31.7232 56.5937 31.2374 57.1754 30.6195 57.5845C30.0016 57.9893 29.2963 58.1918 28.5037 58.1918C27.9071 58.1918 27.4192 58.0916 27.04 57.8913C26.665 57.6911 26.3709 57.4567 26.1578 57.1882C25.9448 56.9197 25.7807 56.6811 25.6657 56.4723H25.5059V58H23.6394ZM25.5123 53.0909C25.5123 53.7812 25.6124 54.3864 25.8127 54.9062C26.013 55.4261 26.3027 55.8331 26.682 56.1271C27.0613 56.4169 27.5257 56.5618 28.0755 56.5618C28.6465 56.5618 29.1238 56.4105 29.5073 56.108C29.8908 55.8011 30.1806 55.3857 30.3766 54.8615C30.5769 54.3374 30.677 53.7472 30.677 53.0909C30.677 52.4432 30.579 51.8615 30.383 51.3459C30.1912 50.8303 29.9015 50.4233 29.5137 50.125C29.1301 49.8267 28.6507 49.6776 28.0755 49.6776C27.5215 49.6776 27.0527 49.8203 26.6692 50.1058C26.29 50.3913 26.0023 50.7898 25.8063 51.3011C25.6103 51.8125 25.5123 52.4091 25.5123 53.0909ZM40.973 53.9283V48.1818H42.8906V58H41.0114V56.2997H40.9091C40.6832 56.8239 40.321 57.2607 39.8224 57.6101C39.3281 57.9553 38.7124 58.1278 37.9751 58.1278C37.3445 58.1278 36.7862 57.9893 36.3004 57.7124C35.8189 57.4311 35.4396 57.0156 35.1626 56.4659C34.8899 55.9162 34.7536 55.2365 34.7536 54.4268V48.1818H36.6648V54.1967C36.6648 54.8658 36.8501 55.3984 37.2209 55.7947C37.5916 56.1911 38.0732 56.3892 38.6655 56.3892C39.0234 56.3892 39.3793 56.2997 39.733 56.1207C40.0909 55.9418 40.3871 55.6712 40.6214 55.3089C40.8601 54.9467 40.9773 54.4865 40.973 53.9283ZM45.4586 61.6818V48.1818H47.3251V49.7734H47.4849C47.5957 49.5689 47.7555 49.3324 47.9643 49.0639C48.1731 48.7955 48.4629 48.5611 48.8336 48.3608C49.2044 48.1562 49.6944 48.054 50.3038 48.054C51.0964 48.054 51.8038 48.2543 52.426 48.6548C53.0481 49.0554 53.536 49.6328 53.8897 50.3871C54.2477 51.1413 54.4267 52.049 54.4267 53.1101C54.4267 54.1712 54.2498 55.081 53.8961 55.8395C53.5424 56.5937 53.0566 57.1754 52.4387 57.5845C51.8208 57.9893 51.1156 58.1918 50.323 58.1918C49.7264 58.1918 49.2385 58.0916 48.8592 57.8913C48.4842 57.6911 48.1902 57.4567 47.9771 57.1882C47.764 56.9197 47.6 56.6811 47.4849 56.4723H47.3699V61.6818H45.4586ZM47.3315 53.0909C47.3315 53.7812 47.4316 54.3864 47.6319 54.9062C47.8322 55.4261 48.122 55.8331 48.5012 56.1271C48.8805 56.4169 49.345 56.5618 49.8947 56.5618C50.4657 56.5618 50.943 56.4105 51.3265 56.108C51.71 55.8011 51.9998 55.3857 52.1958 54.8615C52.3961 54.3374 52.4963 53.7472 52.4963 53.0909C52.4963 52.4432 52.3983 51.8615 52.2022 51.3459C52.0105 50.8303 51.7207 50.4233 51.3329 50.125C50.9494 49.8267 50.47 49.6776 49.8947 49.6776C49.3407 49.6776 48.872 49.8203 48.4885 50.1058C48.1092 50.3913 47.8216 50.7898 47.6255 51.3011C47.4295 51.8125 47.3315 52.4091 47.3315 53.0909ZM59.4252 58.2173C58.8031 58.2173 58.2406 58.1023 57.7377 57.8722C57.2349 57.6378 56.8365 57.299 56.5424 56.8558C56.2527 56.4126 56.1078 55.8693 56.1078 55.2259C56.1078 54.6719 56.2143 54.2159 56.4274 53.858C56.6404 53.5 56.9281 53.2166 57.2903 53.0078C57.6525 52.799 58.0574 52.6413 58.5048 52.5348C58.9522 52.4283 59.4082 52.3473 59.8727 52.2919C60.4608 52.2237 60.938 52.1683 61.3045 52.1257C61.671 52.0788 61.9373 52.0043 62.1035 51.902C62.2697 51.7997 62.3528 51.6335 62.3528 51.4034V51.3587C62.3528 50.8004 62.1951 50.3679 61.8798 50.0611C61.5687 49.7543 61.1042 49.6009 60.4863 49.6009C59.8429 49.6009 59.3358 49.7436 58.965 50.0291C58.5985 50.3104 58.345 50.6236 58.2044 50.9688L56.4082 50.5597C56.6213 49.9631 56.9324 49.4815 57.3414 49.1151C57.7548 48.7443 58.2299 48.4759 58.7669 48.3097C59.3038 48.1392 59.8684 48.054 60.4608 48.054C60.8528 48.054 61.2683 48.1009 61.7072 48.1946C62.1504 48.2841 62.5637 48.4503 62.9473 48.6932C63.335 48.9361 63.6525 49.2834 63.8997 49.7351C64.1468 50.1825 64.2704 50.7642 64.2704 51.4801V58H62.4039V56.6577H62.3272C62.2037 56.9048 62.0183 57.1477 61.7711 57.3864C61.524 57.625 61.2065 57.8232 60.8187 57.9808C60.4309 58.1385 59.9664 58.2173 59.4252 58.2173ZM59.8407 56.6832C60.3691 56.6832 60.8208 56.5788 61.1958 56.37C61.5751 56.1612 61.8627 55.8885 62.0588 55.5518C62.2591 55.2109 62.3592 54.8466 62.3592 54.4588V53.1932C62.291 53.2614 62.1589 53.3253 61.9629 53.3849C61.7711 53.4403 61.5517 53.4893 61.3045 53.532C61.0574 53.5703 60.8166 53.6065 60.5822 53.6406C60.3478 53.6705 60.1518 53.696 59.9941 53.7173C59.6234 53.7642 59.2846 53.843 58.9778 53.9538C58.6752 54.0646 58.4324 54.2244 58.2491 54.4332C58.0701 54.6378 57.9806 54.9105 57.9806 55.2514C57.9806 55.7244 58.1554 56.0824 58.5048 56.3253C58.8542 56.5639 59.2995 56.6832 59.8407 56.6832ZM71.3991 48.1818V49.7159H66.0362V48.1818H71.3991ZM67.4744 45.8295H69.3857V55.1172C69.3857 55.4879 69.4411 55.767 69.5518 55.9545C69.6626 56.1378 69.8054 56.2635 69.9801 56.3317C70.1591 56.3956 70.353 56.4276 70.5618 56.4276C70.7152 56.4276 70.8494 56.4169 70.9645 56.3956C71.0795 56.3743 71.169 56.3572 71.233 56.3445L71.5781 57.9233C71.4673 57.9659 71.3097 58.0085 71.1051 58.0511C70.9006 58.098 70.6449 58.1236 70.3381 58.1278C69.8352 58.1364 69.3665 58.0469 68.9318 57.8594C68.4972 57.6719 68.1456 57.3821 67.8771 56.9901C67.6087 56.598 67.4744 56.1058 67.4744 55.5135V45.8295ZM77.6394 58.1982C76.6721 58.1982 75.839 57.9915 75.1401 57.5781C74.4455 57.1605 73.9086 56.5746 73.5293 55.8203C73.1543 55.0618 72.9668 54.1733 72.9668 53.1548C72.9668 52.1491 73.1543 51.2628 73.5293 50.4957C73.9086 49.7287 74.437 49.13 75.1145 48.6996C75.7963 48.2692 76.5932 48.054 77.5051 48.054C78.0591 48.054 78.5961 48.1456 79.1159 48.3288C79.6358 48.5121 80.1025 48.7997 80.5158 49.1918C80.9292 49.5838 81.2551 50.093 81.4938 50.7195C81.7324 51.3416 81.8517 52.098 81.8517 52.9886V53.6662H74.0471V52.2344H79.9789C79.9789 51.7315 79.8766 51.2862 79.6721 50.8984C79.4675 50.5064 79.1799 50.1974 78.8091 49.9716C78.4426 49.7457 78.0123 49.6328 77.5179 49.6328C76.981 49.6328 76.5123 49.7649 76.1117 50.0291C75.7154 50.2891 75.4086 50.63 75.1912 51.0518C74.9782 51.4695 74.8716 51.9233 74.8716 52.4134V53.532C74.8716 54.1882 74.9867 54.7464 75.2168 55.2067C75.4512 55.6669 75.7772 56.0185 76.1948 56.2614C76.6124 56.5 77.1003 56.6193 77.6586 56.6193C78.0208 56.6193 78.351 56.5682 78.6493 56.4659C78.9476 56.3594 79.2054 56.2017 79.4228 55.9929C79.6401 55.7841 79.8063 55.5263 79.9213 55.2195L81.7303 55.5455C81.5854 56.0781 81.3255 56.5447 80.9505 56.9453C80.5797 57.3416 80.1131 57.6506 79.5506 57.8722C78.9924 58.0895 78.3553 58.1982 77.6394 58.1982ZM85.8835 52.1705V58H83.9723V48.1818H85.8068V49.7798H85.9283C86.1541 49.2599 86.5078 48.8423 86.9893 48.527C87.4751 48.2116 88.0866 48.054 88.8239 48.054C89.4929 48.054 90.0788 48.1946 90.5817 48.4759C91.0845 48.7528 91.4744 49.1662 91.7514 49.7159C92.0284 50.2656 92.1669 50.9453 92.1669 51.755V58H90.2557V51.9851C90.2557 51.2734 90.0703 50.7173 89.6996 50.3168C89.3288 49.9119 88.8196 49.7095 88.1719 49.7095C87.7287 49.7095 87.3345 49.8054 86.9893 49.9972C86.6484 50.1889 86.3778 50.4702 86.1776 50.8409C85.9815 51.2074 85.8835 51.6506 85.8835 52.1705ZM106.787 48.348C106.719 47.7429 106.438 47.2741 105.943 46.9418C105.449 46.6051 104.827 46.4368 104.077 46.4368C103.54 46.4368 103.075 46.522 102.683 46.6925C102.291 46.8587 101.987 47.0888 101.769 47.3828C101.556 47.6726 101.45 48.0028 101.45 48.3736C101.45 48.6847 101.522 48.9531 101.667 49.179C101.816 49.4048 102.01 49.5945 102.249 49.7479C102.492 49.897 102.752 50.0227 103.029 50.125C103.306 50.223 103.572 50.304 103.828 50.3679L105.106 50.7003C105.524 50.8026 105.952 50.9411 106.391 51.1158C106.83 51.2905 107.237 51.5206 107.612 51.8061C107.987 52.0916 108.289 52.4453 108.519 52.8672C108.754 53.2891 108.871 53.794 108.871 54.3821C108.871 55.1236 108.679 55.782 108.296 56.3572C107.916 56.9325 107.365 57.3864 106.64 57.7188C105.92 58.0511 105.048 58.2173 104.026 58.2173C103.046 58.2173 102.198 58.0618 101.482 57.7507C100.766 57.4396 100.205 56.9986 99.8006 56.4276C99.3958 55.8523 99.1721 55.1705 99.1294 54.3821H101.111C101.149 54.8551 101.303 55.2493 101.571 55.5646C101.844 55.8757 102.191 56.108 102.613 56.2614C103.039 56.4105 103.506 56.4851 104.013 56.4851C104.571 56.4851 105.068 56.3977 105.502 56.223C105.941 56.044 106.286 55.7969 106.538 55.4815C106.789 55.1619 106.915 54.7891 106.915 54.3629C106.915 53.9751 106.804 53.6577 106.583 53.4105C106.365 53.1634 106.069 52.9588 105.694 52.7969C105.323 52.6349 104.904 52.4922 104.435 52.3686L102.888 51.9467C101.84 51.6612 101.009 51.2415 100.395 50.6875C99.7857 50.1335 99.481 49.4006 99.481 48.4886C99.481 47.7344 99.6855 47.076 100.095 46.5135C100.504 45.951 101.058 45.5142 101.757 45.2031C102.455 44.8878 103.244 44.7301 104.122 44.7301C105.008 44.7301 105.79 44.8857 106.468 45.1967C107.149 45.5078 107.686 45.9361 108.078 46.4815C108.47 47.0227 108.675 47.6449 108.692 48.348H106.787ZM111.078 58V48.1818H112.989V58H111.078ZM112.043 46.6669C111.711 46.6669 111.425 46.5561 111.186 46.3345C110.952 46.1087 110.835 45.8402 110.835 45.5291C110.835 45.2138 110.952 44.9453 111.186 44.7237C111.425 44.4979 111.711 44.3849 112.043 44.3849C112.375 44.3849 112.659 44.4979 112.893 44.7237C113.132 44.9453 113.251 45.2138 113.251 45.5291C113.251 45.8402 113.132 46.1087 112.893 46.3345C112.659 46.5561 112.375 46.6669 112.043 46.6669ZM119.236 58.1918C118.443 58.1918 117.736 57.9893 117.113 57.5845C116.496 57.1754 116.01 56.5937 115.656 55.8395C115.307 55.081 115.132 54.1712 115.132 53.1101C115.132 52.049 115.309 51.1413 115.662 50.3871C116.02 49.6328 116.51 49.0554 117.133 48.6548C117.755 48.2543 118.46 48.054 119.248 48.054C119.858 48.054 120.348 48.1562 120.719 48.3608C121.094 48.5611 121.383 48.7955 121.588 49.0639C121.797 49.3324 121.959 49.5689 122.074 49.7734H122.189V44.9091H124.1V58H122.233V56.4723H122.074C121.959 56.6811 121.792 56.9197 121.575 57.1882C121.362 57.4567 121.068 57.6911 120.693 57.8913C120.318 58.0916 119.832 58.1918 119.236 58.1918ZM119.657 56.5618C120.207 56.5618 120.672 56.4169 121.051 56.1271C121.434 55.8331 121.724 55.4261 121.92 54.9062C122.121 54.3864 122.221 53.7812 122.221 53.0909C122.221 52.4091 122.123 51.8125 121.927 51.3011C121.731 50.7898 121.443 50.3913 121.064 50.1058C120.684 49.8203 120.216 49.6776 119.657 49.6776C119.082 49.6776 118.603 49.8267 118.219 50.125C117.836 50.4233 117.546 50.8303 117.35 51.3459C117.158 51.8615 117.062 52.4432 117.062 53.0909C117.062 53.7472 117.16 54.3374 117.356 54.8615C117.552 55.3857 117.842 55.8011 118.226 56.108C118.613 56.4105 119.091 56.5618 119.657 56.5618ZM130.963 58.1982C130.043 58.1982 129.24 57.9872 128.554 57.5653C127.868 57.1435 127.335 56.5533 126.956 55.7947C126.576 55.0362 126.387 54.1499 126.387 53.1357C126.387 52.1172 126.576 51.2266 126.956 50.4638C127.335 49.701 127.868 49.1087 128.554 48.6868C129.24 48.2649 130.043 48.054 130.963 48.054C131.884 48.054 132.687 48.2649 133.373 48.6868C134.059 49.1087 134.592 49.701 134.971 50.4638C135.35 51.2266 135.54 52.1172 135.54 53.1357C135.54 54.1499 135.35 55.0362 134.971 55.7947C134.592 56.5533 134.059 57.1435 133.373 57.5653C132.687 57.9872 131.884 58.1982 130.963 58.1982ZM130.97 56.5938C131.566 56.5938 132.061 56.4361 132.453 56.1207C132.845 55.8054 133.135 55.3857 133.322 54.8615C133.514 54.3374 133.61 53.7599 133.61 53.1293C133.61 52.5028 133.514 51.9276 133.322 51.4034C133.135 50.875 132.845 50.451 132.453 50.1314C132.061 49.8118 131.566 49.652 130.97 49.652C130.369 49.652 129.87 49.8118 129.474 50.1314C129.082 50.451 128.79 50.875 128.598 51.4034C128.411 51.9276 128.317 52.5028 128.317 53.1293C128.317 53.7599 128.411 54.3374 128.598 54.8615C128.79 55.3857 129.082 55.8054 129.474 56.1207C129.87 56.4361 130.369 56.5938 130.97 56.5938ZM140.531 58.2173C139.909 58.2173 139.346 58.1023 138.843 57.8722C138.34 57.6378 137.942 57.299 137.648 56.8558C137.358 56.4126 137.213 55.8693 137.213 55.2259C137.213 54.6719 137.32 54.2159 137.533 53.858C137.746 53.5 138.034 53.2166 138.396 53.0078C138.758 52.799 139.163 52.6413 139.61 52.5348C140.058 52.4283 140.514 52.3473 140.978 52.2919C141.566 52.2237 142.044 52.1683 142.41 52.1257C142.776 52.0788 143.043 52.0043 143.209 51.902C143.375 51.7997 143.458 51.6335 143.458 51.4034V51.3587C143.458 50.8004 143.301 50.3679 142.985 50.0611C142.674 49.7543 142.21 49.6009 141.592 49.6009C140.948 49.6009 140.441 49.7436 140.07 50.0291C139.704 50.3104 139.45 50.6236 139.31 50.9688L137.514 50.5597C137.727 49.9631 138.038 49.4815 138.447 49.1151C138.86 48.7443 139.335 48.4759 139.872 48.3097C140.409 48.1392 140.974 48.054 141.566 48.054C141.958 48.054 142.374 48.1009 142.813 48.1946C143.256 48.2841 143.669 48.4503 144.053 48.6932C144.441 48.9361 144.758 49.2834 145.005 49.7351C145.252 50.1825 145.376 50.7642 145.376 51.4801V58H143.509V56.6577H143.433C143.309 56.9048 143.124 57.1477 142.877 57.3864C142.629 57.625 142.312 57.8232 141.924 57.9808C141.536 58.1385 141.072 58.2173 140.531 58.2173ZM140.946 56.6832C141.475 56.6832 141.926 56.5788 142.301 56.37C142.681 56.1612 142.968 55.8885 143.164 55.5518C143.365 55.2109 143.465 54.8466 143.465 54.4588V53.1932C143.396 53.2614 143.264 53.3253 143.068 53.3849C142.877 53.4403 142.657 53.4893 142.41 53.532C142.163 53.5703 141.922 53.6065 141.688 53.6406C141.453 53.6705 141.257 53.696 141.1 53.7173C140.729 53.7642 140.39 53.843 140.083 53.9538C139.781 54.0646 139.538 54.2244 139.355 54.4332C139.176 54.6378 139.086 54.9105 139.086 55.2514C139.086 55.7244 139.261 56.0824 139.61 56.3253C139.96 56.5639 140.405 56.6832 140.946 56.6832ZM147.922 58V48.1818H149.769V49.7415H149.871C150.05 49.2131 150.365 48.7976 150.817 48.495C151.273 48.1882 151.789 48.0348 152.364 48.0348C152.483 48.0348 152.624 48.0391 152.786 48.0476C152.952 48.0561 153.082 48.0668 153.176 48.0795V49.9077C153.099 49.8864 152.963 49.8629 152.767 49.8374C152.571 49.8075 152.375 49.7926 152.179 49.7926C151.727 49.7926 151.324 49.8885 150.971 50.0803C150.621 50.2678 150.344 50.5298 150.14 50.8665C149.935 51.1989 149.833 51.5781 149.833 52.0043V58H147.922ZM154.83 48.1818H156.741V58.6392C156.741 59.2955 156.622 59.8494 156.383 60.3011C156.149 60.7528 155.799 61.0959 155.335 61.3303C154.874 61.5646 154.306 61.6818 153.628 61.6818C153.56 61.6818 153.496 61.6818 153.436 61.6818C153.372 61.6818 153.306 61.6797 153.238 61.6754V60.0327C153.298 60.0327 153.351 60.0327 153.398 60.0327C153.441 60.0327 153.49 60.0327 153.545 60.0327C153.997 60.0327 154.323 59.9112 154.523 59.6683C154.727 59.4297 154.83 59.0824 154.83 58.6264V48.1818ZM155.776 46.6669C155.443 46.6669 155.158 46.5561 154.919 46.3345C154.685 46.1087 154.568 45.8402 154.568 45.5291C154.568 45.2138 154.685 44.9453 154.919 44.7237C155.158 44.4979 155.443 44.3849 155.776 44.3849C156.108 44.3849 156.392 44.4979 156.626 44.7237C156.865 44.9453 156.984 45.2138 156.984 45.5291C156.984 45.8402 156.865 46.1087 156.626 46.3345C156.392 46.5561 156.108 46.6669 155.776 46.6669ZM163.448 58.1982C162.527 58.1982 161.724 57.9872 161.038 57.5653C160.352 57.1435 159.819 56.5533 159.44 55.7947C159.061 55.0362 158.871 54.1499 158.871 53.1357C158.871 52.1172 159.061 51.2266 159.44 50.4638C159.819 49.701 160.352 49.1087 161.038 48.6868C161.724 48.2649 162.527 48.054 163.448 48.054C164.368 48.054 165.172 48.2649 165.858 48.6868C166.544 49.1087 167.076 49.701 167.456 50.4638C167.835 51.2266 168.025 52.1172 168.025 53.1357C168.025 54.1499 167.835 55.0362 167.456 55.7947C167.076 56.5533 166.544 57.1435 165.858 57.5653C165.172 57.9872 164.368 58.1982 163.448 58.1982ZM163.454 56.5938C164.051 56.5938 164.545 56.4361 164.937 56.1207C165.329 55.8054 165.619 55.3857 165.806 54.8615C165.998 54.3374 166.094 53.7599 166.094 53.1293C166.094 52.5028 165.998 51.9276 165.806 51.4034C165.619 50.875 165.329 50.451 164.937 50.1314C164.545 49.8118 164.051 49.652 163.454 49.652C162.853 49.652 162.355 49.8118 161.958 50.1314C161.566 50.451 161.275 50.875 161.083 51.4034C160.895 51.9276 160.801 52.5028 160.801 53.1293C160.801 53.7599 160.895 54.3374 161.083 54.8615C161.275 55.3857 161.566 55.8054 161.958 56.1207C162.355 56.4361 162.853 56.5938 163.454 56.5938ZM172.644 56.2102L172.548 56.907C172.485 57.4183 172.376 57.951 172.222 58.505C172.073 59.0632 171.918 59.581 171.756 60.0582C171.598 60.5355 171.468 60.9148 171.366 61.196H170.011C170.066 60.9318 170.143 60.5739 170.241 60.1222C170.339 59.6747 170.435 59.174 170.529 58.62C170.622 58.0661 170.693 57.5014 170.74 56.9261L170.803 56.2102H172.644ZM185.138 44.9091H187.106V54.1903C187.106 55.0298 186.94 55.7479 186.608 56.3445C186.28 56.9411 185.817 57.397 185.221 57.7124C184.624 58.0234 183.925 58.179 183.124 58.179C182.387 58.179 181.724 58.0447 181.136 57.7763C180.552 57.5078 180.09 57.1179 179.749 56.6065C179.412 56.0909 179.244 55.4645 179.244 54.7273H181.206C181.206 55.0895 181.29 55.4027 181.456 55.6669C181.626 55.9311 181.858 56.1378 182.153 56.2869C182.451 56.4318 182.792 56.5043 183.175 56.5043C183.593 56.5043 183.947 56.4169 184.236 56.2422C184.53 56.0632 184.754 55.8011 184.907 55.456C185.061 55.1108 185.138 54.6889 185.138 54.1903V44.9091ZM192.685 58.2173C192.063 58.2173 191.5 58.1023 190.998 57.8722C190.495 57.6378 190.096 57.299 189.802 56.8558C189.512 56.4126 189.368 55.8693 189.368 55.2259C189.368 54.6719 189.474 54.2159 189.687 53.858C189.9 53.5 190.188 53.2166 190.55 53.0078C190.912 52.799 191.317 52.6413 191.765 52.5348C192.212 52.4283 192.668 52.3473 193.132 52.2919C193.721 52.2237 194.198 52.1683 194.564 52.1257C194.931 52.0788 195.197 52.0043 195.363 51.902C195.529 51.7997 195.613 51.6335 195.613 51.4034V51.3587C195.613 50.8004 195.455 50.3679 195.14 50.0611C194.828 49.7543 194.364 49.6009 193.746 49.6009C193.103 49.6009 192.596 49.7436 192.225 50.0291C191.858 50.3104 191.605 50.6236 191.464 50.9688L189.668 50.5597C189.881 49.9631 190.192 49.4815 190.601 49.1151C191.015 48.7443 191.49 48.4759 192.027 48.3097C192.564 48.1392 193.128 48.054 193.721 48.054C194.113 48.054 194.528 48.1009 194.967 48.1946C195.41 48.2841 195.824 48.4503 196.207 48.6932C196.595 48.9361 196.912 49.2834 197.159 49.7351C197.407 50.1825 197.53 50.7642 197.53 51.4801V58H195.664V56.6577H195.587C195.463 56.9048 195.278 57.1477 195.031 57.3864C194.784 57.625 194.466 57.8232 194.078 57.9808C193.691 58.1385 193.226 58.2173 192.685 58.2173ZM193.1 56.6832C193.629 56.6832 194.081 56.5788 194.456 56.37C194.835 56.1612 195.123 55.8885 195.319 55.5518C195.519 55.2109 195.619 54.8466 195.619 54.4588V53.1932C195.551 53.2614 195.419 53.3253 195.223 53.3849C195.031 53.4403 194.811 53.4893 194.564 53.532C194.317 53.5703 194.076 53.6065 193.842 53.6406C193.608 53.6705 193.412 53.696 193.254 53.7173C192.883 53.7642 192.544 53.843 192.238 53.9538C191.935 54.0646 191.692 54.2244 191.509 54.4332C191.33 54.6378 191.24 54.9105 191.24 55.2514C191.24 55.7244 191.415 56.0824 191.765 56.3253C192.114 56.5639 192.559 56.6832 193.1 56.6832ZM202.204 58L199.315 48.1818H201.29L203.214 55.392H203.31L205.241 48.1818H207.216L209.133 55.3601H209.229L211.14 48.1818H213.116L210.233 58H208.283L206.289 50.9112H206.142L204.148 58H202.204ZM217.787 58.2173C217.164 58.2173 216.602 58.1023 216.099 57.8722C215.596 57.6378 215.198 57.299 214.904 56.8558C214.614 56.4126 214.469 55.8693 214.469 55.2259C214.469 54.6719 214.576 54.2159 214.789 53.858C215.002 53.5 215.289 53.2166 215.652 53.0078C216.014 52.799 216.419 52.6413 216.866 52.5348C217.314 52.4283 217.77 52.3473 218.234 52.2919C218.822 52.2237 219.299 52.1683 219.666 52.1257C220.032 52.0788 220.299 52.0043 220.465 51.902C220.631 51.7997 220.714 51.6335 220.714 51.4034V51.3587C220.714 50.8004 220.556 50.3679 220.241 50.0611C219.93 49.7543 219.466 49.6009 218.848 49.6009C218.204 49.6009 217.697 49.7436 217.326 50.0291C216.96 50.3104 216.706 50.6236 216.566 50.9688L214.77 50.5597C214.983 49.9631 215.294 49.4815 215.703 49.1151C216.116 48.7443 216.591 48.4759 217.128 48.3097C217.665 48.1392 218.23 48.054 218.822 48.054C219.214 48.054 219.63 48.1009 220.069 48.1946C220.512 48.2841 220.925 48.4503 221.309 48.6932C221.696 48.9361 222.014 49.2834 222.261 49.7351C222.508 50.1825 222.632 50.7642 222.632 51.4801V58H220.765V56.6577H220.689C220.565 56.9048 220.38 57.1477 220.132 57.3864C219.885 57.625 219.568 57.8232 219.18 57.9808C218.792 58.1385 218.328 58.2173 217.787 58.2173ZM218.202 56.6832C218.73 56.6832 219.182 56.5788 219.557 56.37C219.936 56.1612 220.224 55.8885 220.42 55.5518C220.62 55.2109 220.721 54.8466 220.721 54.4588V53.1932C220.652 53.2614 220.52 53.3253 220.324 53.3849C220.132 53.4403 219.913 53.4893 219.666 53.532C219.419 53.5703 219.178 53.6065 218.944 53.6406C218.709 53.6705 218.513 53.696 218.355 53.7173C217.985 53.7642 217.646 53.843 217.339 53.9538C217.037 54.0646 216.794 54.2244 216.61 54.4332C216.431 54.6378 216.342 54.9105 216.342 55.2514C216.342 55.7244 216.517 56.0824 216.866 56.3253C217.216 56.5639 217.661 56.6832 218.202 56.6832ZM0.792614 68.6094V66.9091H10.924V68.6094H6.83949V80H4.87074V68.6094H0.792614ZM13.0094 80V70.1818H14.9206V80H13.0094ZM13.9746 68.6669C13.6422 68.6669 13.3567 68.5561 13.1181 68.3345C12.8837 68.1087 12.7665 67.8402 12.7665 67.5291C12.7665 67.2138 12.8837 66.9453 13.1181 66.7237C13.3567 66.4979 13.6422 66.3849 13.9746 66.3849C14.307 66.3849 14.5904 66.4979 14.8248 66.7237C15.0634 66.9453 15.1827 67.2138 15.1827 67.5291C15.1827 67.8402 15.0634 68.1087 14.8248 68.3345C14.5904 68.5561 14.307 68.6669 13.9746 68.6669ZM17.4918 80V70.1818H19.3263V71.7798H19.4478C19.6523 71.2386 19.9869 70.8168 20.4513 70.5142C20.9158 70.2074 21.4719 70.054 22.1197 70.054C22.7759 70.054 23.3256 70.2074 23.7688 70.5142C24.2163 70.821 24.5465 71.2429 24.7596 71.7798H24.8619C25.0962 71.2557 25.4691 70.8381 25.9805 70.527C26.4918 70.2116 27.1012 70.054 27.8086 70.054C28.6992 70.054 29.4258 70.3331 29.9883 70.8913C30.555 71.4496 30.8384 72.2912 30.8384 73.4162V80H28.9272V73.5952C28.9272 72.9304 28.7461 72.4489 28.3839 72.1506C28.0217 71.8523 27.5891 71.7031 27.0863 71.7031C26.4641 71.7031 25.9805 71.8949 25.6353 72.2784C25.2901 72.6577 25.1175 73.1456 25.1175 73.7422V80H23.2127V73.4737C23.2127 72.9411 23.0465 72.5128 22.7141 72.1889C22.3817 71.8651 21.9492 71.7031 21.4165 71.7031C21.0543 71.7031 20.7198 71.799 20.413 71.9908C20.1104 72.1783 19.8654 72.4403 19.6779 72.777C19.4947 73.1136 19.4031 73.5036 19.4031 73.9467V80H17.4918ZM39.6195 75.9283V70.1818H41.5371V80H39.6578V78.2997H39.5556C39.3297 78.8239 38.9675 79.2607 38.4689 79.6101C37.9746 79.9553 37.3588 80.1278 36.6216 80.1278C35.9909 80.1278 35.4327 79.9893 34.9469 79.7124C34.4654 79.4311 34.0861 79.0156 33.8091 78.4659C33.5364 77.9162 33.4 77.2365 33.4 76.4268V70.1818H35.3113V76.1967C35.3113 76.8658 35.4966 77.3984 35.8674 77.7947C36.2381 78.1911 36.7196 78.3892 37.312 78.3892C37.6699 78.3892 38.0257 78.2997 38.3794 78.1207C38.7374 77.9418 39.0336 77.6712 39.2679 77.3089C39.5066 76.9467 39.6238 76.4865 39.6195 75.9283ZM44.1051 80V70.1818H45.9524V71.7415H46.0547C46.2337 71.2131 46.549 70.7976 47.0007 70.495C47.4567 70.1882 47.9723 70.0348 48.5476 70.0348C48.6669 70.0348 48.8075 70.0391 48.9695 70.0476C49.1357 70.0561 49.2656 70.0668 49.3594 70.0795V71.9077C49.2827 71.8864 49.1463 71.8629 48.9503 71.8374C48.7543 71.8075 48.5582 71.7926 48.3622 71.7926C47.9105 71.7926 47.5078 71.8885 47.1541 72.0803C46.8047 72.2678 46.5277 72.5298 46.3232 72.8665C46.1186 73.1989 46.0163 73.5781 46.0163 74.0043V80H44.1051ZM60.3217 80.179C59.7379 80.1705 59.1626 80.0639 58.5959 79.8594C58.0334 79.6548 57.522 79.3139 57.0618 78.8366C56.6016 78.3594 56.233 77.718 55.956 76.9126C55.6832 76.1072 55.5469 75.1016 55.5469 73.8956C55.5469 72.7536 55.6598 71.7393 55.8857 70.853C56.1158 69.9666 56.446 69.2188 56.8764 68.6094C57.3068 67.9957 57.8267 67.5291 58.4361 67.2095C59.0455 66.8899 59.7294 66.7301 60.4879 66.7301C61.2678 66.7301 61.9602 66.8835 62.5653 67.1903C63.1705 67.4972 63.6605 67.9212 64.0355 68.4624C64.4148 69.0036 64.6555 69.6193 64.7578 70.3097H62.8082C62.6761 69.7642 62.4141 69.3189 62.022 68.9737C61.63 68.6286 61.1186 68.456 60.4879 68.456C59.5291 68.456 58.7813 68.8736 58.2443 69.7088C57.7116 70.544 57.4432 71.7053 57.4389 73.1925H57.5348C57.7607 72.8217 58.0376 72.5064 58.3658 72.2464C58.6982 71.9822 59.0689 71.7798 59.478 71.6392C59.8913 71.4943 60.326 71.4219 60.782 71.4219C61.5405 71.4219 62.2266 71.6072 62.8402 71.978C63.4581 72.3445 63.9503 72.8516 64.3168 73.4993C64.6832 74.147 64.8665 74.8885 64.8665 75.7237C64.8665 76.5589 64.6768 77.3153 64.2976 77.9929C63.9226 78.6705 63.3942 79.2074 62.7124 79.6037C62.0305 79.9957 61.2337 80.1875 60.3217 80.179ZM60.3153 78.517C60.8182 78.517 61.2678 78.3935 61.6641 78.1463C62.0604 77.8991 62.3736 77.5668 62.6037 77.1491C62.8338 76.7315 62.9489 76.2649 62.9489 75.7493C62.9489 75.2464 62.8359 74.7884 62.6101 74.375C62.3885 73.9616 62.0817 73.6335 61.6896 73.3906C61.3018 73.1477 60.8587 73.0263 60.3601 73.0263C59.9808 73.0263 59.6293 73.0987 59.3054 73.2436C58.9858 73.3885 58.7045 73.5888 58.4616 73.8445C58.2188 74.1001 58.027 74.3942 57.8864 74.7266C57.75 75.0547 57.6818 75.402 57.6818 75.7685C57.6818 76.2585 57.7947 76.7124 58.0206 77.13C58.2507 77.5476 58.5639 77.8842 58.9602 78.1399C59.3608 78.3913 59.8125 78.517 60.3153 78.517ZM72.1614 66.9091V80H70.1799V68.8906H70.1032L66.9711 70.9361V69.044L70.2374 66.9091H72.1614ZM75.7026 80V78.5682L80.1323 73.9787C80.6053 73.4801 80.9952 73.0433 81.302 72.6683C81.6131 72.2891 81.8453 71.929 81.9988 71.5881C82.1522 71.2472 82.2289 70.8849 82.2289 70.5014C82.2289 70.0668 82.1266 69.6918 81.9221 69.3764C81.7175 69.0568 81.4384 68.8118 81.0847 68.6413C80.731 68.4666 80.3326 68.3793 79.8894 68.3793C79.4206 68.3793 79.0115 68.4751 78.6621 68.6669C78.3127 68.8587 78.0442 69.1293 77.8567 69.4787C77.6692 69.8281 77.5755 70.2372 77.5755 70.706H75.6898C75.6898 69.9091 75.873 69.2124 76.2395 68.6158C76.606 68.0192 77.1088 67.5568 77.748 67.2287C78.3873 66.8963 79.1138 66.7301 79.9277 66.7301C80.7502 66.7301 81.4746 66.8942 82.101 67.2223C82.7317 67.5462 83.2239 67.9893 83.5776 68.5518C83.9313 69.1101 84.1081 69.7408 84.1081 70.4439C84.1081 70.9297 84.0165 71.4048 83.8333 71.8693C83.6543 72.3338 83.3411 72.8516 82.8936 73.4226C82.4462 73.9893 81.824 74.6776 81.0272 75.4872L78.4256 78.2102V78.3061H84.3191V80H75.7026ZM91.0627 80.179C90.2615 80.179 89.5414 80.0256 88.9022 79.7188C88.2672 79.4077 87.7601 78.9815 87.3809 78.4403C87.0016 77.8991 86.7992 77.2812 86.7736 76.5866H88.6912C88.7381 77.1491 88.9874 77.6115 89.4391 77.9737C89.8908 78.3359 90.432 78.517 91.0627 78.517C91.5655 78.517 92.0108 78.402 92.3986 78.1719C92.7907 77.9375 93.0975 77.6158 93.3191 77.2067C93.5449 76.7976 93.6578 76.331 93.6578 75.8068C93.6578 75.2741 93.5428 74.799 93.3127 74.3814C93.0826 73.9638 92.7651 73.6357 92.3603 73.397C91.9597 73.1584 91.4995 73.0369 90.9796 73.0327C90.5833 73.0327 90.1848 73.1009 89.7843 73.2372C89.3837 73.3736 89.0598 73.5526 88.8127 73.7741L87.0037 73.5057L87.7388 66.9091H94.9363V68.603H89.3816L88.9661 72.2656H89.0428C89.2985 72.0185 89.6373 71.8118 90.0591 71.6456C90.4853 71.4794 90.9412 71.3963 91.427 71.3963C92.2239 71.3963 92.9334 71.5859 93.5556 71.9652C94.182 72.3445 94.6742 72.8622 95.0321 73.5185C95.3944 74.1705 95.5733 74.9205 95.5691 75.7685C95.5733 76.6165 95.3816 77.3729 94.9938 78.0376C94.6103 78.7024 94.0776 79.2266 93.3958 79.6101C92.7182 79.9893 91.9405 80.179 91.0627 80.179ZM97.6289 77.4432V75.8452L103.286 66.9091H104.545V69.2614H103.746L99.6999 75.6662V75.7685H107.453V77.4432H97.6289ZM103.836 80V76.9574L103.848 76.2287V66.9091H105.721V80H103.836Z" fill="#406D59"/>
</svg>
