<svg width="129" height="107" viewBox="0 0 129 107" fill="none" xmlns="http://www.w3.org/2000/svg">
<path d="M11.5428 19H5.89221V1.54545H11.7218C13.432 1.54545 14.9007 1.89489 16.128 2.59375C17.3553 3.28693 18.2956 4.28409 18.949 5.58523C19.6081 6.88068 19.9377 8.43466 19.9377 10.2472C19.9377 12.0653 19.6053 13.6278 18.9405 14.9347C18.2814 16.2415 17.3269 17.2472 16.0769 17.9517C14.8269 18.6506 13.3155 19 11.5428 19ZM8.52573 16.6989H11.3979C12.7274 16.6989 13.8325 16.4489 14.7132 15.9489C15.5939 15.4432 16.253 14.7131 16.6905 13.7585C17.128 12.7983 17.3468 11.6278 17.3468 10.2472C17.3468 8.87784 17.128 7.71591 16.6905 6.76136C16.2587 5.80682 15.6138 5.08239 14.7558 4.58807C13.8979 4.09375 12.8325 3.84659 11.5598 3.84659H8.52573V16.6989ZM23.008 19V5.90909H25.5563V19H23.008ZM24.2949 3.8892C23.8517 3.8892 23.471 3.74148 23.1529 3.44602C22.8404 3.14489 22.6841 2.78693 22.6841 2.37216C22.6841 1.9517 22.8404 1.59375 23.1529 1.29829C23.471 0.997159 23.8517 0.846591 24.2949 0.846591C24.7381 0.846591 25.1159 0.997159 25.4284 1.29829C25.7466 1.59375 25.9057 1.9517 25.9057 2.37216C25.9057 2.78693 25.7466 3.14489 25.4284 3.44602C25.1159 3.74148 24.7381 3.8892 24.2949 3.8892ZM29.1891 19V1.54545H31.7374V8.03125H31.8908C32.0385 7.75852 32.2516 7.44318 32.53 7.08523C32.8084 6.72727 33.1948 6.41477 33.6891 6.14773C34.1834 5.875 34.8368 5.73864 35.6493 5.73864C36.7061 5.73864 37.6493 6.00568 38.4789 6.53977C39.3084 7.07386 39.959 7.84375 40.4306 8.84943C40.9078 9.85511 41.1465 11.0653 41.1465 12.4801C41.1465 13.8949 40.9107 15.108 40.4391 16.1193C39.9675 17.125 39.3198 17.9006 38.4959 18.446C37.672 18.9858 36.7317 19.2557 35.6749 19.2557C34.8794 19.2557 34.2289 19.1222 33.7232 18.8551C33.2232 18.5881 32.8311 18.2756 32.547 17.9176C32.2629 17.5597 32.0442 17.2415 31.8908 16.9631H31.6777V19H29.1891ZM31.6862 12.4545C31.6862 13.375 31.8198 14.1818 32.0868 14.875C32.3539 15.5682 32.7402 16.1108 33.2459 16.5028C33.7516 16.8892 34.3709 17.0824 35.1039 17.0824C35.8652 17.0824 36.5016 16.8807 37.0129 16.4773C37.5243 16.0682 37.9107 15.5142 38.172 14.8153C38.4391 14.1165 38.5726 13.3295 38.5726 12.4545C38.5726 11.5909 38.4419 10.8153 38.1806 10.1278C37.9249 9.44034 37.5385 8.89773 37.0215 8.5C36.5101 8.10227 35.8709 7.90341 35.1039 7.90341C34.3652 7.90341 33.7402 8.09375 33.2289 8.47443C32.7232 8.85511 32.3397 9.38636 32.0783 10.0682C31.8169 10.75 31.6862 11.5455 31.6862 12.4545ZM52.3006 13.571V5.90909H54.8574V19H52.3517V16.733H52.2154C51.9142 17.4318 51.4313 18.0142 50.7665 18.4801C50.1074 18.9403 49.2864 19.1705 48.3034 19.1705C47.4625 19.1705 46.7182 18.9858 46.0705 18.6165C45.4284 18.2415 44.9227 17.6875 44.5534 16.9545C44.1898 16.2216 44.008 15.3153 44.008 14.2358V5.90909H46.5563V13.929C46.5563 14.821 46.8034 15.5312 47.2977 16.0597C47.7921 16.5881 48.4341 16.8523 49.2239 16.8523C49.7012 16.8523 50.1756 16.733 50.6472 16.4943C51.1245 16.2557 51.5193 15.8949 51.8318 15.4119C52.15 14.929 52.3063 14.3153 52.3006 13.571ZM62.0911 19.2898C61.2615 19.2898 60.5115 19.1364 59.8411 18.8295C59.1706 18.517 58.6394 18.0653 58.2473 17.4744C57.861 16.8835 57.6678 16.1591 57.6678 15.3011C57.6678 14.5625 57.8098 13.9545 58.0939 13.4773C58.378 13 58.7615 12.6222 59.2445 12.3438C59.7274 12.0653 60.2672 11.8551 60.8638 11.7131C61.4604 11.571 62.0683 11.4631 62.6877 11.3892C63.4718 11.2983 64.1081 11.2244 64.5968 11.1676C65.0854 11.1051 65.4405 11.0057 65.6621 10.8693C65.8837 10.733 65.9945 10.5114 65.9945 10.2045V10.1449C65.9945 9.40057 65.7843 8.82386 65.3638 8.41477C64.949 8.00568 64.3297 7.80114 63.5058 7.80114C62.6479 7.80114 61.9718 7.99148 61.4774 8.37216C60.9888 8.74716 60.6507 9.16477 60.4632 9.625L58.0683 9.07955C58.3524 8.28409 58.7672 7.64205 59.3127 7.15341C59.8638 6.65909 60.4973 6.30114 61.2132 6.07954C61.9291 5.85227 62.682 5.73864 63.4718 5.73864C63.9945 5.73864 64.5485 5.80114 65.1337 5.92614C65.7246 6.04545 66.2757 6.26705 66.7871 6.59091C67.3041 6.91477 67.7274 7.37784 68.057 7.98011C68.3865 8.5767 68.5513 9.35227 68.5513 10.3068V19H66.0627V17.2102H65.9604C65.7956 17.5398 65.5485 17.8636 65.2189 18.1818C64.8894 18.5 64.4661 18.7642 63.949 18.9744C63.432 19.1847 62.8127 19.2898 62.0911 19.2898ZM62.645 17.2443C63.3496 17.2443 63.9519 17.1051 64.4519 16.8267C64.9575 16.5483 65.3411 16.1847 65.6024 15.7358C65.8695 15.2812 66.003 14.7955 66.003 14.2784V12.5909C65.9121 12.6818 65.736 12.767 65.4746 12.8466C65.2189 12.9205 64.9263 12.9858 64.5968 13.0426C64.2672 13.0937 63.9462 13.142 63.6337 13.1875C63.3212 13.2273 63.0598 13.2614 62.8496 13.2898C62.3553 13.3523 61.9036 13.4574 61.4945 13.6051C61.0911 13.7528 60.7672 13.9659 60.5229 14.2443C60.2843 14.517 60.1649 14.8807 60.1649 15.3352C60.1649 15.9659 60.3979 16.4432 60.8638 16.767C61.3297 17.0852 61.9235 17.2443 62.645 17.2443ZM78.0563 5.90909V7.95455H70.9057V5.90909H78.0563ZM72.8233 2.77273H75.3716V15.1562C75.3716 15.6506 75.4455 16.0227 75.5932 16.2727C75.7409 16.517 75.9313 16.6847 76.1642 16.7756C76.4029 16.8608 76.6614 16.9034 76.9398 16.9034C77.1443 16.9034 77.3233 16.8892 77.4767 16.8608C77.6301 16.8324 77.7495 16.8097 77.8347 16.7926L78.2949 18.8977C78.1472 18.9545 77.937 19.0114 77.6642 19.0682C77.3915 19.1307 77.0506 19.1648 76.6415 19.1705C75.971 19.1818 75.346 19.0625 74.7665 18.8125C74.187 18.5625 73.7182 18.1761 73.3602 17.6534C73.0023 17.1307 72.8233 16.4744 72.8233 15.6847V2.77273ZM92.1273 19.2557C91.0705 19.2557 90.1273 18.9858 89.2977 18.446C88.4739 17.9006 87.8262 17.125 87.3546 16.1193C86.8887 15.108 86.6557 13.8949 86.6557 12.4801C86.6557 11.0653 86.8915 9.85511 87.3631 8.84943C87.8404 7.84375 88.4938 7.07386 89.3233 6.53977C90.1529 6.00568 91.0932 5.73864 92.1443 5.73864C92.9568 5.73864 93.6102 5.875 94.1046 6.14773C94.6046 6.41477 94.9909 6.72727 95.2637 7.08523C95.5421 7.44318 95.758 7.75852 95.9114 8.03125H96.0648V1.54545H98.6131V19H96.1245V16.9631H95.9114C95.758 17.2415 95.5364 17.5597 95.2466 17.9176C94.9625 18.2756 94.5705 18.5881 94.0705 18.8551C93.5705 19.1222 92.9227 19.2557 92.1273 19.2557ZM92.6898 17.0824C93.4227 17.0824 94.0421 16.8892 94.5477 16.5028C95.0591 16.1108 95.4455 15.5682 95.7068 14.875C95.9739 14.1818 96.1074 13.375 96.1074 12.4545C96.1074 11.5455 95.9767 10.75 95.7154 10.0682C95.454 9.38636 95.0705 8.85511 94.5648 8.47443C94.0591 8.09375 93.4341 7.90341 92.6898 7.90341C91.9227 7.90341 91.2835 8.10227 90.7722 8.5C90.2608 8.89773 89.8745 9.44034 89.6131 10.1278C89.3574 10.8153 89.2296 11.5909 89.2296 12.4545C89.2296 13.3295 89.3602 14.1165 89.6216 14.8153C89.883 15.5142 90.2693 16.0682 90.7807 16.4773C91.2977 16.8807 91.9341 17.0824 92.6898 17.0824ZM106.06 19.2898C105.23 19.2898 104.48 19.1364 103.81 18.8295C103.139 18.517 102.608 18.0653 102.216 17.4744C101.83 16.8835 101.637 16.1591 101.637 15.3011C101.637 14.5625 101.779 13.9545 102.063 13.4773C102.347 13 102.73 12.6222 103.213 12.3438C103.696 12.0653 104.236 11.8551 104.833 11.7131C105.429 11.571 106.037 11.4631 106.656 11.3892C107.441 11.2983 108.077 11.2244 108.566 11.1676C109.054 11.1051 109.409 11.0057 109.631 10.8693C109.852 10.733 109.963 10.5114 109.963 10.2045V10.1449C109.963 9.40057 109.753 8.82386 109.333 8.41477C108.918 8.00568 108.298 7.80114 107.475 7.80114C106.617 7.80114 105.941 7.99148 105.446 8.37216C104.958 8.74716 104.619 9.16477 104.432 9.625L102.037 9.07955C102.321 8.28409 102.736 7.64205 103.281 7.15341C103.833 6.65909 104.466 6.30114 105.182 6.07954C105.898 5.85227 106.651 5.73864 107.441 5.73864C107.963 5.73864 108.517 5.80114 109.102 5.92614C109.693 6.04545 110.244 6.26705 110.756 6.59091C111.273 6.91477 111.696 7.37784 112.026 7.98011C112.355 8.5767 112.52 9.35227 112.52 10.3068V19H110.031V17.2102H109.929C109.764 17.5398 109.517 17.8636 109.188 18.1818C108.858 18.5 108.435 18.7642 107.918 18.9744C107.401 19.1847 106.781 19.2898 106.06 19.2898ZM106.614 17.2443C107.318 17.2443 107.921 17.1051 108.421 16.8267C108.926 16.5483 109.31 16.1847 109.571 15.7358C109.838 15.2812 109.972 14.7955 109.972 14.2784V12.5909C109.881 12.6818 109.705 12.767 109.443 12.8466C109.188 12.9205 108.895 12.9858 108.566 13.0426C108.236 13.0937 107.915 13.142 107.602 13.1875C107.29 13.2273 107.029 13.2614 106.818 13.2898C106.324 13.3523 105.872 13.4574 105.463 13.6051C105.06 13.7528 104.736 13.9659 104.492 14.2443C104.253 14.517 104.134 14.8807 104.134 15.3352C104.134 15.9659 104.367 16.4432 104.833 16.767C105.298 17.0852 105.892 17.2443 106.614 17.2443ZM115.914 19V5.90909H118.377V7.98864H118.514C118.752 7.28409 119.173 6.73011 119.775 6.3267C120.383 5.91761 121.07 5.71307 121.838 5.71307C121.997 5.71307 122.184 5.71875 122.4 5.73011C122.622 5.74148 122.795 5.75568 122.92 5.77273V8.21023C122.818 8.18182 122.636 8.15057 122.374 8.11648C122.113 8.0767 121.852 8.05682 121.59 8.05682C120.988 8.05682 120.451 8.18466 119.98 8.44034C119.514 8.69034 119.144 9.03977 118.872 9.48864C118.599 9.93182 118.463 10.4375 118.463 11.0057V19H115.914ZM125.125 19V5.90909H127.673V19H125.125ZM126.412 3.8892C125.969 3.8892 125.588 3.74148 125.27 3.44602C124.958 3.14489 124.801 2.78693 124.801 2.37216C124.801 1.9517 124.958 1.59375 125.27 1.29829C125.588 0.997159 125.969 0.846591 126.412 0.846591C126.855 0.846591 127.233 0.997159 127.546 1.29829C127.864 1.59375 128.023 1.9517 128.023 2.37216C128.023 2.78693 127.864 3.14489 127.546 3.44602C127.233 3.74148 126.855 3.8892 126.412 3.8892ZM77.9476 48.2557C76.6067 48.2557 75.4533 47.9716 74.4874 47.4034C73.5272 46.8295 72.7885 46.0341 72.2715 45.017C71.7601 44 71.5044 42.8295 71.5044 41.5057C71.5044 40.1648 71.7629 38.9886 72.28 37.9773C72.8027 36.9602 73.5442 36.1676 74.5044 35.5994C75.4647 35.0256 76.6067 34.7386 77.9306 34.7386C79.0726 34.7386 80.0726 34.946 80.9306 35.3608C81.7885 35.7756 82.4675 36.358 82.9675 37.108C83.4675 37.858 83.7431 38.7386 83.7942 39.75H80.3681C80.2715 39.0966 80.0158 38.571 79.601 38.1733C79.1919 37.7699 78.655 37.5682 77.9902 37.5682C77.4277 37.5682 76.9362 37.7216 76.5158 38.0284C76.101 38.3295 75.7772 38.7699 75.5442 39.3494C75.3112 39.929 75.1948 40.6307 75.1948 41.4545C75.1948 42.2898 75.3084 43 75.5357 43.5852C75.7686 44.1705 76.0953 44.6165 76.5158 44.9233C76.9362 45.2301 77.4277 45.3835 77.9902 45.3835C78.405 45.3835 78.7772 45.2983 79.1067 45.1278C79.4419 44.9574 79.7175 44.7102 79.9334 44.3864C80.155 44.0568 80.2999 43.6619 80.3681 43.2017H83.7942C83.7374 44.2017 83.4647 45.0824 82.976 45.8438C82.4931 46.5994 81.8254 47.1903 80.9732 47.6165C80.1209 48.0426 79.1124 48.2557 77.9476 48.2557ZM86.1188 48V34.9091H89.7495V48H86.1188ZM87.9426 33.2216C87.4029 33.2216 86.9398 33.0426 86.5534 32.6847C86.1727 32.321 85.9824 31.8864 85.9824 31.3807C85.9824 30.8807 86.1727 30.4517 86.5534 30.0938C86.9398 29.7301 87.4029 29.5483 87.9426 29.5483C88.4824 29.5483 88.9426 29.7301 89.3233 30.0938C89.7097 30.4517 89.9029 30.8807 89.9029 31.3807C89.9029 31.8864 89.7097 32.321 89.3233 32.6847C88.9426 33.0426 88.4824 33.2216 87.9426 33.2216ZM96.2885 40.4318V48H92.6578V34.9091H96.1181V37.2188H96.2715C96.5612 36.4574 97.047 35.8551 97.7289 35.4119C98.4107 34.9631 99.2374 34.7386 100.209 34.7386C101.118 34.7386 101.911 34.9375 102.587 35.3352C103.263 35.733 103.789 36.3011 104.164 37.0398C104.539 37.7727 104.726 38.6477 104.726 39.6648V48H101.095V40.3125C101.101 39.5114 100.896 38.8864 100.482 38.4375C100.067 37.983 99.4959 37.7557 98.7686 37.7557C98.28 37.7557 97.8482 37.8608 97.4732 38.071C97.1039 38.2812 96.8141 38.5881 96.6039 38.9915C96.3993 39.3892 96.2942 39.8693 96.2885 40.4318ZM114.551 34.9091V37.6364H106.667V34.9091H114.551ZM108.457 31.7727H112.088V43.9773C112.088 44.3125 112.139 44.5739 112.241 44.7614C112.343 44.9432 112.485 45.071 112.667 45.1449C112.855 45.2187 113.07 45.2557 113.315 45.2557C113.485 45.2557 113.656 45.2415 113.826 45.2131C113.997 45.179 114.127 45.1534 114.218 45.1364L114.789 47.8381C114.607 47.8949 114.352 47.9602 114.022 48.0341C113.693 48.1136 113.292 48.1619 112.82 48.179C111.945 48.2131 111.178 48.0966 110.519 47.8295C109.866 47.5625 109.357 47.1477 108.994 46.5852C108.63 46.0227 108.451 45.3125 108.457 44.4545V31.7727ZM120.649 48.2472C119.813 48.2472 119.069 48.1023 118.416 47.8125C117.762 47.517 117.245 47.0824 116.865 46.5085C116.49 45.929 116.302 45.2074 116.302 44.3438C116.302 43.6165 116.436 43.0057 116.703 42.5114C116.97 42.017 117.333 41.6193 117.793 41.3182C118.254 41.017 118.776 40.7898 119.362 40.6364C119.953 40.483 120.572 40.375 121.22 40.3125C121.981 40.233 122.595 40.1591 123.061 40.0909C123.526 40.017 123.865 39.9091 124.075 39.767C124.285 39.625 124.39 39.4148 124.39 39.1364V39.0852C124.39 38.5455 124.22 38.1278 123.879 37.8324C123.543 37.5369 123.066 37.3892 122.447 37.3892C121.793 37.3892 121.274 37.5341 120.887 37.8239C120.501 38.108 120.245 38.4659 120.12 38.8977L116.762 38.625C116.933 37.8295 117.268 37.142 117.768 36.5625C118.268 35.9773 118.913 35.5284 119.703 35.2159C120.498 34.8977 121.418 34.7386 122.464 34.7386C123.191 34.7386 123.887 34.8239 124.552 34.9943C125.222 35.1648 125.816 35.429 126.333 35.7869C126.856 36.1449 127.268 36.6051 127.569 37.1676C127.87 37.7244 128.021 38.392 128.021 39.1705V48H124.578V46.1847H124.475C124.265 46.5938 123.984 46.9545 123.632 47.267C123.279 47.5739 122.856 47.8153 122.362 47.9915C121.867 48.1619 121.296 48.2472 120.649 48.2472ZM121.688 45.7415C122.222 45.7415 122.694 45.6364 123.103 45.4261C123.512 45.2102 123.833 44.9205 124.066 44.5568C124.299 44.1932 124.416 43.7812 124.416 43.321V41.9318C124.302 42.0057 124.146 42.0739 123.947 42.1364C123.754 42.1932 123.535 42.2472 123.291 42.2983C123.046 42.3437 122.802 42.3864 122.558 42.4261C122.313 42.4602 122.092 42.4915 121.893 42.5199C121.467 42.5824 121.095 42.6818 120.776 42.8182C120.458 42.9545 120.211 43.1392 120.035 43.3722C119.859 43.5994 119.771 43.8835 119.771 44.2244C119.771 44.7188 119.95 45.0966 120.308 45.358C120.671 45.6136 121.132 45.7415 121.688 45.7415ZM22.4987 77.2642C21.2715 77.2642 20.2004 76.983 19.2857 76.4205C18.3709 75.858 17.6607 75.071 17.155 74.0597C16.6493 73.0483 16.3965 71.8665 16.3965 70.5142C16.3965 69.1562 16.6493 67.9687 17.155 66.9517C17.6607 65.9347 18.3709 65.1449 19.2857 64.5824C20.2004 64.0199 21.2715 63.7386 22.4987 63.7386C23.726 63.7386 24.797 64.0199 25.7118 64.5824C26.6266 65.1449 27.3368 65.9347 27.8425 66.9517C28.3482 67.9687 28.601 69.1562 28.601 70.5142C28.601 71.8665 28.3482 73.0483 27.8425 74.0597C27.3368 75.071 26.6266 75.858 25.7118 76.4205C24.797 76.983 23.726 77.2642 22.4987 77.2642ZM22.5073 75.125C23.3027 75.125 23.9618 74.9148 24.4845 74.4943C25.0073 74.0739 25.3936 73.5142 25.6436 72.8153C25.8993 72.1165 26.0272 71.3466 26.0272 70.5057C26.0272 69.6705 25.8993 68.9034 25.6436 68.2045C25.3936 67.5 25.0073 66.9347 24.4845 66.5085C23.9618 66.0824 23.3027 65.8693 22.5073 65.8693C21.7061 65.8693 21.0414 66.0824 20.5129 66.5085C19.9902 66.9347 19.601 67.5 19.3453 68.2045C19.0953 68.9034 18.9703 69.6705 18.9703 70.5057C18.9703 71.3466 19.0953 72.1165 19.3453 72.8153C19.601 73.5142 19.9902 74.0739 20.5129 74.4943C21.0414 74.9148 21.7061 75.125 22.5073 75.125ZM33.9938 59.5455V77H31.4455V59.5455H33.9938ZM43.0641 77.2642C41.7743 77.2642 40.6635 76.9886 39.7317 76.4375C38.8056 75.8807 38.0897 75.0994 37.584 74.0938C37.084 73.0824 36.834 71.8977 36.834 70.5398C36.834 69.1989 37.084 68.017 37.584 66.9943C38.0897 65.9716 38.7942 65.1733 39.6976 64.5994C40.6067 64.0256 41.6692 63.7386 42.8851 63.7386C43.6237 63.7386 44.3397 63.8608 45.0328 64.1051C45.726 64.3494 46.3482 64.733 46.8993 65.2557C47.4504 65.7784 47.8851 66.4574 48.2033 67.2926C48.5215 68.1222 48.6806 69.1307 48.6806 70.3182V71.2216H38.2743V69.3125H46.1834C46.1834 68.642 46.047 68.0483 45.7743 67.5312C45.5016 67.0085 45.1181 66.5966 44.6237 66.2955C44.1351 65.9943 43.5612 65.8438 42.9022 65.8438C42.1862 65.8438 41.5612 66.0199 41.0272 66.3722C40.4987 66.7187 40.0897 67.1733 39.7999 67.7358C39.5158 68.2926 39.3737 68.8977 39.3737 69.5511V71.0426C39.3737 71.9176 39.5272 72.6619 39.834 73.2756C40.1465 73.8892 40.5811 74.358 41.1379 74.6818C41.6948 75 42.3453 75.1591 43.0897 75.1591C43.5726 75.1591 44.0129 75.0909 44.4107 74.9545C44.8084 74.8125 45.1522 74.6023 45.4419 74.3239C45.7317 74.0455 45.9533 73.7017 46.1067 73.2926L48.5186 73.7273C48.3254 74.4375 47.9789 75.0597 47.4789 75.5938C46.9845 76.1222 46.3624 76.5341 45.6124 76.8295C44.8681 77.1193 44.0186 77.2642 43.0641 77.2642ZM54.0563 69.2273V77H51.508V59.5455H54.0222V66.0398H54.1841C54.4909 65.3352 54.9597 64.7756 55.5904 64.3608C56.221 63.946 57.0449 63.7386 58.062 63.7386C58.9597 63.7386 59.7438 63.9233 60.4142 64.2926C61.0904 64.6619 61.6131 65.2131 61.9824 65.946C62.3574 66.6733 62.5449 67.5824 62.5449 68.6733V77H59.9966V68.9801C59.9966 68.0199 59.7495 67.2756 59.2551 66.7472C58.7608 66.2131 58.0733 65.946 57.1926 65.946C56.5904 65.946 56.0506 66.0739 55.5733 66.3295C55.1017 66.5852 54.7296 66.9602 54.4568 67.4545C54.1898 67.9432 54.0563 68.5341 54.0563 69.2273ZM77.9476 77.2557C76.6067 77.2557 75.4533 76.9716 74.4874 76.4034C73.5272 75.8295 72.7885 75.0341 72.2715 74.017C71.7601 73 71.5044 71.8295 71.5044 70.5057C71.5044 69.1648 71.7629 67.9886 72.28 66.9773C72.8027 65.9602 73.5442 65.1676 74.5044 64.5994C75.4647 64.0256 76.6067 63.7386 77.9306 63.7386C79.0726 63.7386 80.0726 63.946 80.9306 64.3608C81.7885 64.7756 82.4675 65.358 82.9675 66.108C83.4675 66.858 83.7431 67.7386 83.7942 68.75H80.3681C80.2715 68.0966 80.0158 67.571 79.601 67.1733C79.1919 66.7699 78.655 66.5682 77.9902 66.5682C77.4277 66.5682 76.9362 66.7216 76.5158 67.0284C76.101 67.3295 75.7772 67.7699 75.5442 68.3494C75.3112 68.929 75.1948 69.6307 75.1948 70.4545C75.1948 71.2898 75.3084 72 75.5357 72.5852C75.7686 73.1705 76.0953 73.6165 76.5158 73.9233C76.9362 74.2301 77.4277 74.3835 77.9902 74.3835C78.405 74.3835 78.7772 74.2983 79.1067 74.1278C79.4419 73.9574 79.7175 73.7102 79.9334 73.3864C80.155 73.0568 80.2999 72.6619 80.3681 72.2017H83.7942C83.7374 73.2017 83.4647 74.0824 82.976 74.8438C82.4931 75.5994 81.8254 76.1903 80.9732 76.6165C80.1209 77.0426 79.1124 77.2557 77.9476 77.2557ZM86.1188 77V63.9091H89.7495V77H86.1188ZM87.9426 62.2216C87.4029 62.2216 86.9398 62.0426 86.5534 61.6847C86.1727 61.321 85.9824 60.8864 85.9824 60.3807C85.9824 59.8807 86.1727 59.4517 86.5534 59.0938C86.9398 58.7301 87.4029 58.5483 87.9426 58.5483C88.4824 58.5483 88.9426 58.7301 89.3233 59.0938C89.7097 59.4517 89.9029 59.8807 89.9029 60.3807C89.9029 60.8864 89.7097 61.321 89.3233 61.6847C88.9426 62.0426 88.4824 62.2216 87.9426 62.2216ZM96.2885 69.4318V77H92.6578V63.9091H96.1181V66.2188H96.2715C96.5612 65.4574 97.047 64.8551 97.7289 64.4119C98.4107 63.9631 99.2374 63.7386 100.209 63.7386C101.118 63.7386 101.911 63.9375 102.587 64.3352C103.263 64.733 103.789 65.3011 104.164 66.0398C104.539 66.7727 104.726 67.6477 104.726 68.6648V77H101.095V69.3125C101.101 68.5114 100.896 67.8864 100.482 67.4375C100.067 66.983 99.4959 66.7557 98.7686 66.7557C98.28 66.7557 97.8482 66.8608 97.4732 67.071C97.1039 67.2812 96.8141 67.5881 96.6039 67.9915C96.3993 68.3892 96.2942 68.8693 96.2885 69.4318ZM114.551 63.9091V66.6364H106.667V63.9091H114.551ZM108.457 60.7727H112.088V72.9773C112.088 73.3125 112.139 73.5739 112.241 73.7614C112.343 73.9432 112.485 74.071 112.667 74.1449C112.855 74.2187 113.07 74.2557 113.315 74.2557C113.485 74.2557 113.656 74.2415 113.826 74.2131C113.997 74.179 114.127 74.1534 114.218 74.1364L114.789 76.8381C114.607 76.8949 114.352 76.9602 114.022 77.0341C113.693 77.1136 113.292 77.1619 112.82 77.179C111.945 77.2131 111.178 77.0966 110.519 76.8295C109.866 76.5625 109.357 76.1477 108.994 75.5852C108.63 75.0227 108.451 74.3125 108.457 73.4545V60.7727ZM120.649 77.2472C119.813 77.2472 119.069 77.1023 118.416 76.8125C117.762 76.517 117.245 76.0824 116.865 75.5085C116.49 74.929 116.302 74.2074 116.302 73.3438C116.302 72.6165 116.436 72.0057 116.703 71.5114C116.97 71.017 117.333 70.6193 117.793 70.3182C118.254 70.017 118.776 69.7898 119.362 69.6364C119.953 69.483 120.572 69.375 121.22 69.3125C121.981 69.233 122.595 69.1591 123.061 69.0909C123.526 69.017 123.865 68.9091 124.075 68.767C124.285 68.625 124.39 68.4148 124.39 68.1364V68.0852C124.39 67.5455 124.22 67.1278 123.879 66.8324C123.543 66.5369 123.066 66.3892 122.447 66.3892C121.793 66.3892 121.274 66.5341 120.887 66.8239C120.501 67.108 120.245 67.4659 120.12 67.8977L116.762 67.625C116.933 66.8295 117.268 66.142 117.768 65.5625C118.268 64.9773 118.913 64.5284 119.703 64.2159C120.498 63.8977 121.418 63.7386 122.464 63.7386C123.191 63.7386 123.887 63.8239 124.552 63.9943C125.222 64.1648 125.816 64.429 126.333 64.7869C126.856 65.1449 127.268 65.6051 127.569 66.1676C127.87 66.7244 128.021 67.392 128.021 68.1705V77H124.578V75.1847H124.475C124.265 75.5938 123.984 75.9545 123.632 76.267C123.279 76.5739 122.856 76.8153 122.362 76.9915C121.867 77.1619 121.296 77.2472 120.649 77.2472ZM121.688 74.7415C122.222 74.7415 122.694 74.6364 123.103 74.4261C123.512 74.2102 123.833 73.9205 124.066 73.5568C124.299 73.1932 124.416 72.7812 124.416 72.321V70.9318C124.302 71.0057 124.146 71.0739 123.947 71.1364C123.754 71.1932 123.535 71.2472 123.291 71.2983C123.046 71.3437 122.802 71.3864 122.558 71.4261C122.313 71.4602 122.092 71.4915 121.893 71.5199C121.467 71.5824 121.095 71.6818 120.776 71.8182C120.458 71.9545 120.211 72.1392 120.035 72.3722C119.859 72.5994 119.771 72.8835 119.771 73.2244C119.771 73.7188 119.95 74.0966 120.308 74.358C120.671 74.6136 121.132 74.7415 121.688 74.7415ZM9.0584 100.571V92.9091H11.6152V106H9.10954V103.733H8.97317C8.67204 104.432 8.18908 105.014 7.52431 105.48C6.86522 105.94 6.0442 106.17 5.06124 106.17C4.22033 106.17 3.47601 105.986 2.82829 105.616C2.18624 105.241 1.68056 104.688 1.31124 103.955C0.947606 103.222 0.765787 102.315 0.765787 101.236V92.9091H3.31408V100.929C3.31408 101.821 3.56124 102.531 4.05556 103.06C4.54988 103.588 5.19192 103.852 5.9817 103.852C6.45897 103.852 6.9334 103.733 7.40499 103.494C7.88226 103.256 8.27715 102.895 8.58965 102.412C8.90783 101.929 9.06408 101.315 9.0584 100.571ZM17.5875 98.2273V106H15.0392V92.9091H17.4852V95.0398H17.6472C17.9483 94.3466 18.4199 93.7898 19.062 93.3693C19.7097 92.9489 20.525 92.7386 21.508 92.7386C22.4 92.7386 23.1813 92.9261 23.8517 93.3011C24.5222 93.6705 25.0421 94.2216 25.4114 94.9545C25.7807 95.6875 25.9654 96.5937 25.9654 97.6733V106H23.4171V97.9801C23.4171 97.0312 23.1699 96.2898 22.6756 95.7557C22.1813 95.2159 21.5023 94.946 20.6387 94.946C20.0477 94.946 19.5222 95.0739 19.062 95.3295C18.6074 95.5852 18.2466 95.9602 17.9796 96.4545C17.7182 96.9432 17.5875 97.5341 17.5875 98.2273ZM35.4938 92.9091V94.9545H28.3432V92.9091H35.4938ZM30.2608 89.7727H32.8091V102.156C32.8091 102.651 32.883 103.023 33.0307 103.273C33.1784 103.517 33.3688 103.685 33.6017 103.776C33.8404 103.861 34.0989 103.903 34.3773 103.903C34.5818 103.903 34.7608 103.889 34.9142 103.861C35.0676 103.832 35.187 103.81 35.2722 103.793L35.7324 105.898C35.5847 105.955 35.3745 106.011 35.1017 106.068C34.829 106.131 34.4881 106.165 34.079 106.17C33.4085 106.182 32.7835 106.062 32.204 105.812C31.6245 105.562 31.1557 105.176 30.7977 104.653C30.4398 104.131 30.2608 103.474 30.2608 102.685V89.7727ZM46.6053 100.571V92.9091H49.1621V106H46.6564V103.733H46.52C46.2189 104.432 45.736 105.014 45.0712 105.48C44.4121 105.94 43.5911 106.17 42.6081 106.17C41.7672 106.17 41.0229 105.986 40.3752 105.616C39.7331 105.241 39.2274 104.688 38.8581 103.955C38.4945 103.222 38.3127 102.315 38.3127 101.236V92.9091H40.861V100.929C40.861 101.821 41.1081 102.531 41.6024 103.06C42.0968 103.588 42.7388 103.852 43.5286 103.852C44.0058 103.852 44.4803 103.733 44.9519 103.494C45.4291 103.256 45.824 102.895 46.1365 102.412C46.4547 101.929 46.611 101.315 46.6053 100.571ZM54.9298 101.56L54.9128 98.4489H55.356L60.5719 92.9091H63.623L57.6742 99.2159H57.2736L54.9298 101.56ZM52.5861 106V88.5455H55.1344V106H52.5861ZM60.8531 106L56.1656 99.7784L57.9213 97.9972L63.981 106H60.8531ZM77.9476 106.256C76.6067 106.256 75.4533 105.972 74.4874 105.403C73.5272 104.83 72.7885 104.034 72.2715 103.017C71.7601 102 71.5044 100.83 71.5044 99.5057C71.5044 98.1648 71.7629 96.9886 72.28 95.9773C72.8027 94.9602 73.5442 94.1676 74.5044 93.5994C75.4647 93.0256 76.6067 92.7386 77.9306 92.7386C79.0726 92.7386 80.0726 92.946 80.9306 93.3608C81.7885 93.7756 82.4675 94.358 82.9675 95.108C83.4675 95.858 83.7431 96.7386 83.7942 97.75H80.3681C80.2715 97.0966 80.0158 96.571 79.601 96.1733C79.1919 95.7699 78.655 95.5682 77.9902 95.5682C77.4277 95.5682 76.9362 95.7216 76.5158 96.0284C76.101 96.3295 75.7772 96.7699 75.5442 97.3494C75.3112 97.929 75.1948 98.6307 75.1948 99.4545C75.1948 100.29 75.3084 101 75.5357 101.585C75.7686 102.17 76.0953 102.616 76.5158 102.923C76.9362 103.23 77.4277 103.384 77.9902 103.384C78.405 103.384 78.7772 103.298 79.1067 103.128C79.4419 102.957 79.7175 102.71 79.9334 102.386C80.155 102.057 80.2999 101.662 80.3681 101.202H83.7942C83.7374 102.202 83.4647 103.082 82.976 103.844C82.4931 104.599 81.8254 105.19 80.9732 105.616C80.1209 106.043 79.1124 106.256 77.9476 106.256ZM86.1188 106V92.9091H89.7495V106H86.1188ZM87.9426 91.2216C87.4029 91.2216 86.9398 91.0426 86.5534 90.6847C86.1727 90.321 85.9824 89.8864 85.9824 89.3807C85.9824 88.8807 86.1727 88.4517 86.5534 88.0938C86.9398 87.7301 87.4029 87.5483 87.9426 87.5483C88.4824 87.5483 88.9426 87.7301 89.3233 88.0938C89.7097 88.4517 89.9029 88.8807 89.9029 89.3807C89.9029 89.8864 89.7097 90.321 89.3233 90.6847C88.9426 91.0426 88.4824 91.2216 87.9426 91.2216ZM96.2885 98.4318V106H92.6578V92.9091H96.1181V95.2188H96.2715C96.5612 94.4574 97.047 93.8551 97.7289 93.4119C98.4107 92.9631 99.2374 92.7386 100.209 92.7386C101.118 92.7386 101.911 92.9375 102.587 93.3352C103.263 93.733 103.789 94.3011 104.164 95.0398C104.539 95.7727 104.726 96.6477 104.726 97.6648V106H101.095V98.3125C101.101 97.5114 100.896 96.8864 100.482 96.4375C100.067 95.983 99.4959 95.7557 98.7686 95.7557C98.28 95.7557 97.8482 95.8608 97.4732 96.071C97.1039 96.2812 96.8141 96.5881 96.6039 96.9915C96.3993 97.3892 96.2942 97.8693 96.2885 98.4318ZM114.551 92.9091V95.6364H106.667V92.9091H114.551ZM108.457 89.7727H112.088V101.977C112.088 102.312 112.139 102.574 112.241 102.761C112.343 102.943 112.485 103.071 112.667 103.145C112.855 103.219 113.07 103.256 113.315 103.256C113.485 103.256 113.656 103.241 113.826 103.213C113.997 103.179 114.127 103.153 114.218 103.136L114.789 105.838C114.607 105.895 114.352 105.96 114.022 106.034C113.693 106.114 113.292 106.162 112.82 106.179C111.945 106.213 111.178 106.097 110.519 105.83C109.866 105.562 109.357 105.148 108.994 104.585C108.63 104.023 108.451 103.312 108.457 102.455V89.7727ZM120.649 106.247C119.813 106.247 119.069 106.102 118.416 105.812C117.762 105.517 117.245 105.082 116.865 104.509C116.49 103.929 116.302 103.207 116.302 102.344C116.302 101.616 116.436 101.006 116.703 100.511C116.97 100.017 117.333 99.6193 117.793 99.3182C118.254 99.017 118.776 98.7898 119.362 98.6364C119.953 98.483 120.572 98.375 121.22 98.3125C121.981 98.233 122.595 98.1591 123.061 98.0909C123.526 98.017 123.865 97.9091 124.075 97.767C124.285 97.625 124.39 97.4148 124.39 97.1364V97.0852C124.39 96.5455 124.22 96.1278 123.879 95.8324C123.543 95.5369 123.066 95.3892 122.447 95.3892C121.793 95.3892 121.274 95.5341 120.887 95.8239C120.501 96.108 120.245 96.4659 120.12 96.8977L116.762 96.625C116.933 95.8295 117.268 95.142 117.768 94.5625C118.268 93.9773 118.913 93.5284 119.703 93.2159C120.498 92.8977 121.418 92.7386 122.464 92.7386C123.191 92.7386 123.887 92.8239 124.552 92.9943C125.222 93.1648 125.816 93.429 126.333 93.7869C126.856 94.1449 127.268 94.6051 127.569 95.1676C127.87 95.7244 128.021 96.392 128.021 97.1705V106H124.578V104.185H124.475C124.265 104.594 123.984 104.955 123.632 105.267C123.279 105.574 122.856 105.815 122.362 105.991C121.867 106.162 121.296 106.247 120.649 106.247ZM121.688 103.741C122.222 103.741 122.694 103.636 123.103 103.426C123.512 103.21 123.833 102.92 124.066 102.557C124.299 102.193 124.416 101.781 124.416 101.321V99.9318C124.302 100.006 124.146 100.074 123.947 100.136C123.754 100.193 123.535 100.247 123.291 100.298C123.046 100.344 122.802 100.386 122.558 100.426C122.313 100.46 122.092 100.491 121.893 100.52C121.467 100.582 121.095 100.682 120.776 100.818C120.458 100.955 120.211 101.139 120.035 101.372C119.859 101.599 119.771 101.884 119.771 102.224C119.771 102.719 119.95 103.097 120.308 103.358C120.671 103.614 121.132 103.741 121.688 103.741Z" fill="#406D59"/>
</svg>
