<svg width="217" height="34" viewBox="0 0 217 34" fill="none" xmlns="http://www.w3.org/2000/svg">
<path d="M0.5451 33V0.272726H20.1687V3.78835H4.50817V14.8466H18.6985V18.3622H4.50817V33H0.5451ZM34.9343 33.5114C32.5692 33.5114 30.5291 32.9893 28.8139 31.9453C27.1094 30.8906 25.7937 29.4205 24.8668 27.5348C23.9506 25.6385 23.4925 23.4332 23.4925 20.919C23.4925 18.4048 23.9506 16.1889 24.8668 14.2713C25.7937 12.343 27.0827 10.8409 28.734 9.76491C30.396 8.67827 32.3349 8.13494 34.5508 8.13494C35.8292 8.13494 37.0916 8.34801 38.3381 8.77415C39.5845 9.20028 40.7191 9.89276 41.7418 10.8516C42.7646 11.7997 43.5795 13.0568 44.1868 14.6229C44.794 16.1889 45.0977 18.1172 45.0977 20.4077V22.0057H26.1772V18.7457H41.2624C41.2624 17.3608 40.9854 16.125 40.4315 15.0384C39.8881 13.9517 39.1104 13.0941 38.0984 12.4656C37.0969 11.837 35.9144 11.5227 34.5508 11.5227C33.0487 11.5227 31.7489 11.8956 30.6516 12.6413C29.565 13.3764 28.7287 14.3352 28.1428 15.5178C27.5568 16.7003 27.2638 17.968 27.2638 19.321V21.4943C27.2638 23.348 27.5835 24.9194 28.2227 26.2085C28.8725 27.4869 29.7727 28.4616 30.9233 29.1328C32.0739 29.7933 33.4109 30.1236 34.9343 30.1236C35.9251 30.1236 36.82 29.9851 37.619 29.7081C38.4286 29.4205 39.1264 28.9943 39.7124 28.4297C40.2983 27.8544 40.7511 27.1406 41.0707 26.2884L44.7141 27.3111C44.3306 28.5469 43.6861 29.6335 42.7805 30.571C41.875 31.4979 40.7564 32.2223 39.4247 32.7443C38.093 33.2557 36.5962 33.5114 34.9343 33.5114ZM58.0575 33.5753C56.5021 33.5753 55.0906 33.2823 53.8228 32.6964C52.555 32.0998 51.5483 31.2422 50.8026 30.1236C50.0568 28.9943 49.6839 27.6307 49.6839 26.0327C49.6839 24.6264 49.9609 23.4865 50.5149 22.6129C51.0689 21.7287 51.8093 21.0362 52.7362 20.5355C53.663 20.0348 54.6857 19.6619 55.8043 19.4169C56.9336 19.1612 58.0682 18.9588 59.2081 18.8097C60.6996 18.6179 61.9087 18.4741 62.8356 18.3782C63.7731 18.2717 64.4549 18.0959 64.881 17.8509C65.3178 17.6058 65.5362 17.1797 65.5362 16.5724V16.4446C65.5362 14.8679 65.1048 13.6428 64.2418 12.7692C63.3896 11.8956 62.0952 11.4588 60.3587 11.4588C58.5582 11.4588 57.1467 11.853 56.1239 12.6413C55.1012 13.4297 54.3821 14.2713 53.9666 15.1662L50.3871 13.8878C51.0263 12.3963 51.8786 11.2351 52.9439 10.4041C54.0199 9.5625 55.1918 8.97656 56.4595 8.64631C57.7379 8.3054 58.995 8.13494 60.2308 8.13494C61.0192 8.13494 61.9247 8.23082 62.9474 8.42258C63.9808 8.60369 64.9769 8.98189 65.9357 9.55717C66.9052 10.1325 67.7095 11.0007 68.3487 12.1619C68.9879 13.3232 69.3075 14.8786 69.3075 16.8281V33H65.5362V29.6761H65.3445C65.0888 30.2088 64.6626 30.7788 64.0661 31.386C63.4695 31.9933 62.6758 32.5099 61.685 32.9361C60.6942 33.3622 59.4851 33.5753 58.0575 33.5753ZM58.6328 30.1875C60.1243 30.1875 61.3814 29.8945 62.4041 29.3086C63.4375 28.7227 64.2152 27.9663 64.7372 27.0394C65.2699 26.1126 65.5362 25.1378 65.5362 24.1151V20.6634C65.3764 20.8551 65.0249 21.0309 64.4815 21.1907C63.9489 21.3398 63.331 21.473 62.6278 21.5902C61.9354 21.6967 61.2589 21.7926 60.5984 21.8778C59.9485 21.9524 59.4212 22.0163 59.0163 22.0696C58.0362 22.1974 57.12 22.4052 56.2678 22.6928C55.4261 22.9698 54.7443 23.3906 54.2223 23.9553C53.7109 24.5092 53.4553 25.2656 53.4553 26.2244C53.4553 27.5348 53.94 28.5256 54.9094 29.1967C55.8896 29.8572 57.1307 30.1875 58.6328 30.1875ZM93.5773 13.9517L90.1895 14.9105C89.9765 14.3459 89.6622 13.7972 89.2467 13.2646C88.8419 12.7212 88.2879 12.2738 87.5848 11.9222C86.8817 11.5707 85.9814 11.3949 84.8841 11.3949C83.382 11.3949 82.1302 11.7411 81.1288 12.4336C80.1381 13.1154 79.6427 13.9837 79.6427 15.0384C79.6427 15.9759 79.9836 16.7163 80.6654 17.2596C81.3472 17.8029 82.4126 18.2557 83.8614 18.6179L87.5049 19.5128C89.6995 20.0455 91.3348 20.8604 92.4108 21.9577C93.4868 23.0444 94.0248 24.4453 94.0248 26.1605C94.0248 27.5668 93.6199 28.8239 92.8103 29.9318C92.0113 31.0398 90.8927 31.9134 89.4545 32.5526C88.0162 33.1918 86.3437 33.5114 84.4367 33.5114C81.9332 33.5114 79.8611 32.968 78.2204 31.8814C76.5798 30.7947 75.5411 29.2074 75.1043 27.1193L78.6839 26.2244C79.0248 27.5455 79.6693 28.5362 80.6175 29.1967C81.5763 29.8572 82.828 30.1875 84.3728 30.1875C86.1306 30.1875 87.5262 29.8146 88.5596 29.0689C89.6036 28.3125 90.1256 27.407 90.1256 26.3523C90.1256 25.5 89.8273 24.7862 89.2307 24.2109C88.6341 23.625 87.718 23.1882 86.4822 22.9006L82.3912 21.9418C80.1434 21.4091 78.4921 20.5835 77.4374 19.4648C76.3934 18.3356 75.8714 16.924 75.8714 15.2301C75.8714 13.8452 76.2602 12.62 77.0379 11.5547C77.8263 10.4893 78.8969 9.65305 80.2499 9.04581C81.6135 8.43857 83.1583 8.13494 84.8841 8.13494C87.3131 8.13494 89.2201 8.66761 90.605 9.73295C92.0006 10.7983 92.9914 12.2045 93.5773 13.9517ZM110.376 8.45454V11.6506H97.6562V8.45454H110.376ZM101.364 2.57386H105.135V25.9688C105.135 27.0341 105.289 27.8331 105.598 28.3658C105.918 28.8878 106.323 29.2393 106.813 29.4205C107.314 29.5909 107.841 29.6761 108.395 29.6761C108.81 29.6761 109.151 29.6548 109.418 29.6122C109.684 29.5589 109.897 29.5163 110.057 29.4844L110.824 32.8722C110.568 32.968 110.211 33.0639 109.753 33.1598C109.295 33.2663 108.714 33.3196 108.011 33.3196C106.946 33.3196 105.902 33.0906 104.879 32.6325C103.867 32.1744 103.026 31.4766 102.354 30.5391C101.694 29.6016 101.364 28.419 101.364 26.9915V2.57386ZM115.442 33V0.272726H137.495V5.97763H122.362V13.7759H136.36V19.4808H122.362V27.2951H137.559V33H115.442ZM149.867 33.4634C148.301 33.4634 146.906 33.1918 145.68 32.6484C144.455 32.0945 143.486 31.2795 142.772 30.2035C142.069 29.1168 141.717 27.7638 141.717 26.1445C141.717 24.7809 141.968 23.6357 142.468 22.7088C142.969 21.782 143.651 21.0362 144.514 20.4716C145.377 19.907 146.357 19.4808 147.454 19.1932C148.562 18.9055 149.723 18.7031 150.938 18.5859C152.366 18.4368 153.516 18.2983 154.39 18.1705C155.263 18.032 155.897 17.8295 156.291 17.5632C156.685 17.2969 156.883 16.9027 156.883 16.3807V16.2848C156.883 15.2727 156.563 14.4897 155.924 13.9357C155.295 13.3817 154.4 13.1048 153.239 13.1048C152.014 13.1048 151.039 13.3764 150.315 13.9197C149.59 14.4524 149.111 15.1236 148.877 15.9332L142.58 15.4219C142.9 13.9304 143.528 12.6413 144.466 11.5547C145.403 10.4574 146.613 9.61577 148.093 9.02983C149.585 8.43324 151.311 8.13494 153.271 8.13494C154.635 8.13494 155.94 8.29474 157.186 8.61435C158.443 8.93395 159.557 9.42933 160.526 10.1005C161.506 10.7717 162.278 11.6346 162.843 12.6893C163.408 13.7333 163.69 14.9851 163.69 16.4446V33H157.234V29.5962H157.042C156.648 30.3633 156.121 31.0398 155.46 31.6257C154.8 32.201 154.006 32.6538 153.079 32.984C152.152 33.3036 151.082 33.4634 149.867 33.4634ZM151.817 28.7653C152.818 28.7653 153.703 28.5682 154.47 28.174C155.237 27.7692 155.839 27.2259 156.275 26.544C156.712 25.8622 156.93 25.0898 156.93 24.2269V21.6222C156.717 21.7607 156.424 21.8885 156.052 22.0057C155.689 22.1122 155.279 22.2134 154.821 22.3093C154.363 22.3945 153.905 22.4744 153.447 22.549C152.989 22.6129 152.573 22.6715 152.2 22.7248C151.401 22.842 150.704 23.0284 150.107 23.2841C149.51 23.5398 149.047 23.886 148.717 24.3228C148.386 24.7489 148.221 25.2816 148.221 25.9208C148.221 26.8477 148.557 27.5561 149.228 28.0462C149.91 28.5256 150.773 28.7653 151.817 28.7653ZM189.394 15.4538L183.162 15.8374C183.055 15.3047 182.826 14.8253 182.475 14.3991C182.123 13.9624 181.66 13.6161 181.084 13.3604C180.52 13.0941 179.843 12.9609 179.055 12.9609C178 12.9609 177.111 13.1847 176.386 13.6321C175.662 14.0689 175.3 14.6548 175.3 15.3899C175.3 15.9759 175.534 16.4712 176.003 16.8761C176.472 17.2809 177.276 17.6058 178.416 17.8509L182.858 18.7457C185.245 19.2358 187.024 20.0241 188.196 21.1108C189.367 22.1974 189.953 23.625 189.953 25.3935C189.953 27.0021 189.479 28.4137 188.531 29.6282C187.594 30.8427 186.305 31.7908 184.664 32.4727C183.034 33.1438 181.154 33.4794 179.023 33.4794C175.774 33.4794 173.185 32.8029 171.257 31.4499C169.339 30.0863 168.215 28.2326 167.885 25.8888L174.581 25.5373C174.783 26.5281 175.273 27.2844 176.051 27.8065C176.828 28.3178 177.824 28.5735 179.039 28.5735C180.232 28.5735 181.191 28.3445 181.915 27.8864C182.65 27.4176 183.023 26.8157 183.034 26.0806C183.023 25.4627 182.762 24.9567 182.251 24.5625C181.74 24.1577 180.951 23.8487 179.886 23.6357L175.635 22.7887C173.238 22.3093 171.454 21.4783 170.282 20.2958C169.121 19.1133 168.54 17.6058 168.54 15.7734C168.54 14.1967 168.966 12.8384 169.818 11.6985C170.681 10.5586 171.891 9.67969 173.446 9.06179C175.012 8.44389 176.844 8.13494 178.943 8.13494C182.043 8.13494 184.483 8.79013 186.262 10.1005C188.052 11.4109 189.096 13.1953 189.394 15.4538ZM205.426 33.4794C202.901 33.4794 200.728 32.968 198.906 31.9453C197.095 30.9119 195.7 29.4524 194.719 27.5668C193.739 25.6705 193.249 23.4279 193.249 20.8391C193.249 18.3143 193.739 16.0984 194.719 14.1914C195.7 12.2844 197.079 10.7983 198.858 9.73295C200.648 8.66761 202.747 8.13494 205.154 8.13494C206.774 8.13494 208.281 8.39595 209.677 8.91797C211.083 9.42933 212.308 10.2017 213.352 11.2351C214.407 12.2685 215.227 13.5682 215.813 15.1342C216.399 16.6896 216.692 18.5114 216.692 20.5994V22.4691H195.966V18.2504H210.284C210.284 17.2702 210.071 16.402 209.645 15.6456C209.219 14.8892 208.627 14.2979 207.871 13.8718C207.125 13.435 206.257 13.2166 205.266 13.2166C204.233 13.2166 203.317 13.4563 202.518 13.9357C201.729 14.4045 201.112 15.0384 200.664 15.8374C200.217 16.6257 199.988 17.5046 199.977 18.4741V22.4851C199.977 23.6996 200.201 24.7489 200.648 25.6332C201.106 26.5174 201.751 27.1992 202.582 27.6786C203.413 28.158 204.398 28.3977 205.538 28.3977C206.294 28.3977 206.987 28.2912 207.615 28.0781C208.244 27.8651 208.782 27.5455 209.229 27.1193C209.677 26.6932 210.018 26.1712 210.252 25.5533L216.548 25.9688C216.229 27.4815 215.574 28.8026 214.583 29.9318C213.603 31.0504 212.335 31.924 210.779 32.5526C209.235 33.1705 207.45 33.4794 205.426 33.4794Z" fill="#3F6D59"/>
</svg>
