<svg width="135" height="21" viewBox="0 0 135 21" fill="none" xmlns="http://www.w3.org/2000/svg">
<path d="M0.375533 16V1.45455H3.45082V7.45597H9.69371V1.45455H12.7619V16H9.69371V9.99148H3.45082V16H0.375533ZM22.2363 11.3551V5.09091H25.2619V16H22.3571V14.0185H22.2434C21.9972 14.6577 21.5877 15.1714 21.0147 15.5597C20.4466 15.9479 19.7529 16.142 18.9338 16.142C18.2046 16.142 17.563 15.9763 17.0091 15.6449C16.4551 15.3134 16.0218 14.8423 15.7093 14.2315C15.4016 13.6207 15.2453 12.8892 15.2406 12.0369V5.09091H18.2662V11.4972C18.2709 12.1411 18.4437 12.6501 18.7846 13.0241C19.1255 13.3982 19.5824 13.5852 20.1554 13.5852C20.5199 13.5852 20.8609 13.5024 21.1781 13.3366C21.4953 13.1662 21.751 12.9152 21.9451 12.5838C22.144 12.2524 22.2411 11.8428 22.2363 11.3551ZM27.7388 16V1.45455H30.7644V6.9233H30.8567C30.9893 6.62973 31.181 6.33144 31.432 6.02841C31.6877 5.72064 32.0191 5.46496 32.4263 5.26136C32.8382 5.05303 33.3496 4.94886 33.9604 4.94886C34.7559 4.94886 35.4898 5.1572 36.1621 5.57386C36.8345 5.9858 37.3719 6.60843 37.7743 7.44176C38.1768 8.27036 38.378 9.30966 38.378 10.5597C38.378 11.7765 38.1815 12.804 37.7885 13.642C37.4003 14.4754 36.87 15.1075 36.1976 15.5384C35.53 15.9645 34.7819 16.1776 33.9533 16.1776C33.3662 16.1776 32.8667 16.0805 32.4547 15.8864C32.0475 15.6922 31.7137 15.4484 31.4533 15.1548C31.1929 14.8565 30.994 14.5559 30.8567 14.2528H30.7218V16H27.7388ZM30.7005 10.5455C30.7005 11.1941 30.7904 11.7599 30.9703 12.2429C31.1503 12.7259 31.4107 13.1023 31.7516 13.3722C32.0925 13.6373 32.5068 13.7699 32.9945 13.7699C33.4869 13.7699 33.9036 13.6349 34.2445 13.3651C34.5854 13.0904 34.8435 12.7116 35.0186 12.2287C35.1986 11.741 35.2885 11.1799 35.2885 10.5455C35.2885 9.91572 35.2009 9.36174 35.0257 8.88352C34.8506 8.4053 34.5925 8.03125 34.2516 7.76136C33.9107 7.49148 33.4917 7.35653 32.9945 7.35653C32.5021 7.35653 32.0854 7.48674 31.7445 7.74716C31.4083 8.00758 31.1503 8.37689 30.9703 8.85511C30.7904 9.33333 30.7005 9.89678 30.7005 10.5455ZM47.3926 11.3551V5.09091H50.4181V16H47.5133V14.0185H47.3997C47.1535 14.6577 46.7439 15.1714 46.171 15.5597C45.6028 15.9479 44.9092 16.142 44.09 16.142C43.3609 16.142 42.7193 15.9763 42.1653 15.6449C41.6113 15.3134 41.1781 14.8423 40.8656 14.2315C40.5578 13.6207 40.4016 12.8892 40.3968 12.0369V5.09091H43.4224V11.4972C43.4271 12.1411 43.6 12.6501 43.9409 13.0241C44.2818 13.3982 44.7387 13.5852 45.3116 13.5852C45.6762 13.5852 46.0171 13.5024 46.3343 13.3366C46.6516 13.1662 46.9073 12.9152 47.1014 12.5838C47.3002 12.2524 47.3973 11.8428 47.3926 11.3551ZM55.8638 9.69318V16H52.8382V5.09091H55.7218V7.01562H55.8496C56.0911 6.38116 56.4959 5.87926 57.0641 5.50994C57.6323 5.13589 58.3212 4.94886 59.1309 4.94886C59.8884 4.94886 60.5489 5.11458 61.1124 5.44602C61.6758 5.77746 62.1138 6.25095 62.4263 6.86648C62.7388 7.47727 62.8951 8.20644 62.8951 9.05398V16H59.8695V9.59375C59.8742 8.92614 59.7038 8.4053 59.3581 8.03125C59.0125 7.65246 58.5366 7.46307 57.9306 7.46307C57.5234 7.46307 57.1635 7.55066 56.851 7.72585C56.5433 7.90104 56.3018 8.15672 56.1266 8.4929C55.9561 8.82434 55.8685 9.22443 55.8638 9.69318ZM70.1944 20.3182C69.2143 20.3182 68.3739 20.1832 67.6731 19.9134C66.9771 19.6482 66.4231 19.286 66.0112 18.8267C65.5993 18.3674 65.3317 17.8513 65.2086 17.2784L68.0069 16.902C68.0922 17.1198 68.2271 17.3234 68.4118 17.5128C68.5964 17.7022 68.8403 17.8537 69.1433 17.9673C69.4511 18.0857 69.8251 18.1449 70.2654 18.1449C70.9236 18.1449 71.4657 17.9839 71.8919 17.6619C72.3227 17.3447 72.5382 16.812 72.5382 16.0639V14.0682H72.4103C72.2778 14.3712 72.0789 14.6577 71.8137 14.9276C71.5486 15.1974 71.2077 15.4176 70.791 15.5881C70.3743 15.7585 69.8772 15.8438 69.2995 15.8438C68.4804 15.8438 67.7347 15.6544 67.0623 15.2756C66.3947 14.892 65.862 14.3073 65.4643 13.5213C65.0713 12.7306 64.8748 11.7315 64.8748 10.5241C64.8748 9.28835 65.0761 8.25616 65.4785 7.42756C65.881 6.59896 66.416 5.97869 67.0836 5.56676C67.756 5.15483 68.4922 4.94886 69.2924 4.94886C69.9032 4.94886 70.4146 5.05303 70.8265 5.26136C71.2385 5.46496 71.5699 5.72064 71.8208 6.02841C72.0765 6.33144 72.273 6.62973 72.4103 6.9233H72.524V5.09091H75.5282V16.1065C75.5282 17.0346 75.301 17.8111 74.8464 18.4361C74.3919 19.0611 73.7621 19.5298 72.9572 19.8423C72.157 20.1596 71.2361 20.3182 70.1944 20.3182ZM70.2583 13.571C70.746 13.571 71.158 13.4503 71.4941 13.2088C71.835 12.9626 72.0955 12.6122 72.2754 12.1577C72.46 11.6984 72.5524 11.1491 72.5524 10.5099C72.5524 9.87074 72.4624 9.31676 72.2825 8.84801C72.1026 8.37453 71.8422 8.00758 71.5012 7.74716C71.1603 7.48674 70.746 7.35653 70.2583 7.35653C69.7612 7.35653 69.3422 7.49148 69.0012 7.76136C68.6603 8.02651 68.4023 8.39583 68.2271 8.86932C68.0519 9.3428 67.9643 9.88968 67.9643 10.5099C67.9643 11.1397 68.0519 11.6842 68.2271 12.1435C68.407 12.598 68.6651 12.9508 69.0012 13.2017C69.3422 13.4479 69.7612 13.571 70.2583 13.571ZM77.9359 16V5.09091H80.9615V16H77.9359ZM79.4558 3.68466C79.006 3.68466 78.6201 3.53551 78.2981 3.23722C77.9809 2.93419 77.8223 2.57197 77.8223 2.15057C77.8223 1.7339 77.9809 1.37642 78.2981 1.07812C78.6201 0.775094 79.006 0.623579 79.4558 0.623579C79.9056 0.623579 80.2891 0.775094 80.6064 1.07812C80.9283 1.37642 81.0893 1.7339 81.0893 2.15057C81.0893 2.57197 80.9283 2.93419 80.6064 3.23722C80.2891 3.53551 79.9056 3.68466 79.4558 3.68466ZM88.0708 16V1.45455H91.1461V7.8679H91.3379L96.5723 1.45455H100.258L94.8606 7.96733L100.322 16H96.6433L92.6589 10.0199L91.1461 11.8665V16H88.0708ZM104.914 16.206C104.218 16.206 103.598 16.0852 103.053 15.8438C102.509 15.5975 102.078 15.2353 101.76 14.7571C101.448 14.2741 101.292 13.6728 101.292 12.9531C101.292 12.3471 101.403 11.8381 101.626 11.4261C101.848 11.0142 102.151 10.6828 102.535 10.4318C102.918 10.1809 103.354 9.99148 103.841 9.86364C104.334 9.7358 104.85 9.64583 105.39 9.59375C106.024 9.52746 106.536 9.46591 106.924 9.40909C107.312 9.34754 107.594 9.25758 107.769 9.1392C107.944 9.02083 108.032 8.84564 108.032 8.61364V8.57102C108.032 8.12121 107.89 7.7732 107.606 7.52699C107.326 7.28078 106.929 7.15767 106.412 7.15767C105.868 7.15767 105.435 7.27841 105.113 7.51989C104.791 7.75663 104.578 8.05492 104.474 8.41477L101.675 8.1875C101.817 7.52462 102.097 6.9517 102.513 6.46875C102.93 5.98106 103.467 5.60701 104.126 5.34659C104.788 5.08144 105.555 4.94886 106.427 4.94886C107.033 4.94886 107.613 5.01989 108.167 5.16193C108.725 5.30398 109.22 5.52415 109.651 5.82244C110.087 6.12074 110.43 6.50426 110.681 6.97301C110.932 7.43703 111.057 7.99337 111.057 8.64205V16H108.188V14.4872H108.103C107.928 14.8281 107.693 15.1288 107.4 15.3892C107.106 15.6449 106.753 15.8461 106.341 15.9929C105.93 16.1349 105.454 16.206 104.914 16.206ZM105.78 14.1179C106.225 14.1179 106.618 14.0303 106.959 13.8551C107.3 13.6752 107.568 13.4337 107.762 13.1307C107.956 12.8277 108.053 12.4844 108.053 12.1009V10.9432C107.958 11.0047 107.828 11.0616 107.662 11.1136C107.501 11.161 107.319 11.206 107.116 11.2486C106.912 11.2865 106.708 11.322 106.505 11.3551C106.301 11.3835 106.117 11.4096 105.951 11.4332C105.596 11.4853 105.286 11.5682 105.02 11.6818C104.755 11.7955 104.549 11.9493 104.403 12.1435C104.256 12.3329 104.182 12.5696 104.182 12.8537C104.182 13.2656 104.331 13.5805 104.63 13.7983C104.933 14.0114 105.316 14.1179 105.78 14.1179ZM113.405 16V5.09091H116.288V7.01562H116.416C116.643 6.37642 117.022 5.87216 117.552 5.50284C118.083 5.13352 118.717 4.94886 119.456 4.94886C120.204 4.94886 120.841 5.13589 121.366 5.50994C121.892 5.87926 122.242 6.38116 122.417 7.01562H122.531C122.754 6.39062 123.156 5.8911 123.738 5.51705C124.326 5.13826 125.019 4.94886 125.819 4.94886C126.837 4.94886 127.664 5.2732 128.298 5.92188C128.937 6.56581 129.257 7.47964 129.257 8.66335V16H126.238V9.25994C126.238 8.65388 126.077 8.19934 125.756 7.89631C125.434 7.59328 125.031 7.44176 124.548 7.44176C123.999 7.44176 123.57 7.61695 123.263 7.96733C122.955 8.31297 122.801 8.76989 122.801 9.33807V16H119.868V9.19602C119.868 8.66098 119.714 8.23485 119.406 7.91761C119.103 7.60038 118.703 7.44176 118.206 7.44176C117.87 7.44176 117.567 7.52699 117.297 7.69744C117.032 7.86316 116.821 8.09754 116.665 8.40057C116.508 8.69886 116.43 9.04924 116.43 9.4517V16H113.405ZM131.647 16V5.09091H134.672V16H131.647ZM133.167 3.68466C132.717 3.68466 132.331 3.53551 132.009 3.23722C131.692 2.93419 131.533 2.57197 131.533 2.15057C131.533 1.7339 131.692 1.37642 132.009 1.07812C132.331 0.775094 132.717 0.623579 133.167 0.623579C133.617 0.623579 134 0.775094 134.317 1.07812C134.639 1.37642 134.8 1.7339 134.8 2.15057C134.8 2.57197 134.639 2.93419 134.317 3.23722C134 3.53551 133.617 3.68466 133.167 3.68466Z" fill="#406D59"/>
</svg>
