<svg width="76" height="32" viewBox="0 0 76 32" fill="none" xmlns="http://www.w3.org/2000/svg">
<rect x="0.739868" y="1.23267" width="74.0473" height="30.1385" rx="15.0692" stroke="#406D59"/>
<path d="M26.1612 9.14577V20.7821H24.0362L18.9737 13.4583H18.8885V20.7821H16.4283V9.14577H18.5874L23.6101 16.464H23.7124V9.14577H26.1612ZM32.1257 20.9526C31.228 20.9526 30.4553 20.7708 29.8075 20.4071C29.1636 20.0397 28.6674 19.5208 28.3189 18.8503C27.9704 18.1761 27.7962 17.3787 27.7962 16.4583C27.7962 15.5605 27.9704 14.7727 28.3189 14.0946C28.6674 13.4166 29.1579 12.8882 29.7905 12.5094C30.4268 12.1306 31.1731 11.9412 32.0291 11.9412C32.6049 11.9412 33.1409 12.034 33.6371 12.2196C34.1371 12.4015 34.5727 12.6761 34.9439 13.0435C35.3189 13.4109 35.6106 13.873 35.8189 14.4299C36.0272 14.9829 36.1314 15.6306 36.1314 16.373V17.0378H28.7621V15.5378H33.853C33.853 15.1893 33.7772 14.8806 33.6257 14.6117C33.4742 14.3427 33.264 14.1325 32.995 13.981C32.7299 13.8257 32.4212 13.748 32.0689 13.748C31.7015 13.748 31.3757 13.8333 31.0916 14.0037C30.8113 14.1704 30.5916 14.3958 30.4325 14.6799C30.2734 14.9602 30.192 15.2727 30.1882 15.6174V17.0435C30.1882 17.4753 30.2678 17.8484 30.4268 18.1628C30.5897 18.4772 30.8189 18.7196 31.1143 18.8901C31.4098 19.0605 31.7602 19.1458 32.1655 19.1458C32.4344 19.1458 32.6806 19.1079 32.9041 19.0321C33.1276 18.9564 33.3189 18.8427 33.478 18.6912C33.6371 18.5397 33.7583 18.3541 33.8416 18.1344L36.0803 18.2821C35.9666 18.82 35.7337 19.2897 35.3814 19.6912C35.0329 20.089 34.5821 20.3996 34.0291 20.623C33.4799 20.8427 32.8454 20.9526 32.1257 20.9526ZM39.37 20.7821L36.995 12.0549H39.4439L40.7962 17.9185H40.8757L42.2848 12.0549H44.6882L46.12 17.8844H46.1939L47.5234 12.0549H49.9666L47.5973 20.7821H45.0348L43.5348 15.2935H43.4268L41.9268 20.7821H39.37ZM58.5192 14.5435L56.3033 14.6799C56.2654 14.4905 56.1839 14.32 56.0589 14.1685C55.9339 14.0132 55.7692 13.8901 55.5646 13.7992C55.3639 13.7045 55.1233 13.6571 54.843 13.6571C54.468 13.6571 54.1517 13.7367 53.8942 13.8958C53.6366 14.0511 53.5078 14.2594 53.5078 14.5208C53.5078 14.7291 53.5911 14.9052 53.7578 15.0492C53.9245 15.1931 54.2105 15.3087 54.6158 15.3958L56.1953 15.714C57.0438 15.8882 57.6764 16.1685 58.093 16.5549C58.5097 16.9412 58.718 17.4488 58.718 18.0776C58.718 18.6496 58.5495 19.1515 58.2124 19.5833C57.879 20.0151 57.4207 20.3522 56.8374 20.5946C56.2578 20.8333 55.5892 20.9526 54.8317 20.9526C53.6764 20.9526 52.7559 20.7121 52.0703 20.231C51.3885 19.7462 50.9889 19.0871 50.8714 18.2537L53.2521 18.1287C53.3241 18.481 53.4983 18.7499 53.7749 18.9355C54.0514 19.1174 54.4055 19.2083 54.8374 19.2083C55.2616 19.2083 55.6025 19.1268 55.8601 18.964C56.1214 18.7973 56.254 18.5833 56.2578 18.3219C56.254 18.1022 56.1612 17.9223 55.9794 17.7821C55.7976 17.6382 55.5173 17.5283 55.1385 17.4526L53.6271 17.1515C52.7749 16.981 52.1404 16.6855 51.7237 16.2651C51.3108 15.8446 51.1044 15.3087 51.1044 14.6571C51.1044 14.0965 51.2559 13.6136 51.5589 13.2083C51.8658 12.803 52.2957 12.4905 52.8487 12.2708C53.4055 12.0511 54.0571 11.9412 54.8033 11.9412C55.9055 11.9412 56.773 12.1742 57.4055 12.6401C58.0419 13.106 58.4131 13.7405 58.5192 14.5435Z" fill="#3F6D59"/>
</svg>
