<svg width="183" height="62" viewBox="0 0 183 62" fill="none" xmlns="http://www.w3.org/2000/svg">
<path d="M4.97705 11.8011V3.15909H6.69651V11.8011H4.97705ZM1.51895 8.33665V6.62358H10.161V8.33665H1.51895ZM17.6621 14.179C17.0783 14.1705 16.503 14.0639 15.9362 13.8594C15.3737 13.6548 14.8623 13.3139 14.4021 12.8366C13.9419 12.3594 13.5733 11.718 13.2963 10.9126C13.0236 10.1072 12.8872 9.10156 12.8872 7.8956C12.8872 6.75355 13.0001 5.73935 13.226 4.85298C13.4561 3.96662 13.7864 3.21875 14.2168 2.60938C14.6472 1.99574 15.167 1.52912 15.7764 1.20952C16.3858 0.889914 17.0697 0.730113 17.8283 0.730113C18.6081 0.730113 19.3006 0.883522 19.9057 1.19034C20.5108 1.49716 21.0008 1.92116 21.3758 2.46236C21.7551 3.00355 21.9959 3.61932 22.0981 4.30966H20.1486C20.0165 3.7642 19.7544 3.31889 19.3623 2.97372C18.9703 2.62855 18.4589 2.45597 17.8283 2.45597C16.8695 2.45597 16.1216 2.87358 15.5847 3.70881C15.052 4.54403 14.7835 5.70526 14.7793 7.19247H14.8751C15.101 6.82173 15.378 6.50639 15.7061 6.24645C16.0385 5.98224 16.4092 5.77983 16.8183 5.6392C17.2317 5.49432 17.6663 5.42188 18.1223 5.42188C18.8808 5.42188 19.5669 5.60724 20.1805 5.97798C20.7984 6.34446 21.2906 6.85156 21.6571 7.49929C22.0236 8.14702 22.2068 8.88849 22.2068 9.72372C22.2068 10.5589 22.0172 11.3153 21.6379 11.9929C21.2629 12.6705 20.7345 13.2074 20.0527 13.6037C19.3709 13.9957 18.574 14.1875 17.6621 14.179ZM17.6557 12.517C18.1585 12.517 18.6081 12.3935 19.0044 12.1463C19.4007 11.8991 19.7139 11.5668 19.944 11.1491C20.1741 10.7315 20.2892 10.2649 20.2892 9.74929C20.2892 9.24645 20.1763 8.78835 19.9504 8.375C19.7288 7.96165 19.422 7.63352 19.03 7.39062C18.6422 7.14773 18.199 7.02628 17.7004 7.02628C17.3212 7.02628 16.9696 7.09872 16.6457 7.24361C16.3261 7.38849 16.0449 7.58878 15.802 7.84446C15.5591 8.10014 15.3673 8.39418 15.2267 8.72656C15.0903 9.05469 15.0222 9.40199 15.0222 9.76847C15.0222 10.2585 15.1351 10.7124 15.3609 11.13C15.591 11.5476 15.9043 11.8842 16.3006 12.1399C16.7011 12.3913 17.1528 12.517 17.6557 12.517ZM24.5351 14V12.5682L28.9648 7.97869C29.4378 7.48011 29.8277 7.04332 30.1345 6.66832C30.4456 6.28906 30.6779 5.92898 30.8313 5.58807C30.9847 5.24716 31.0614 4.88494 31.0614 4.50142C31.0614 4.06676 30.9591 3.69176 30.7546 3.37642C30.55 3.05682 30.2709 2.81179 29.9172 2.64134C29.5635 2.46662 29.1651 2.37926 28.7219 2.37926C28.2532 2.37926 27.8441 2.47514 27.4946 2.6669C27.1452 2.85866 26.8767 3.12926 26.6892 3.47869C26.5017 3.82812 26.408 4.23722 26.408 4.70597H24.5223C24.5223 3.90909 24.7056 3.21236 25.072 2.61577C25.4385 2.01918 25.9414 1.55682 26.5806 1.22869C27.2198 0.896306 27.9463 0.730113 28.7603 0.730113C29.5827 0.730113 30.3071 0.894176 30.9335 1.2223C31.5642 1.54616 32.0564 1.98935 32.4101 2.55185C32.7638 3.11009 32.9407 3.74077 32.9407 4.44389C32.9407 4.92969 32.849 5.40483 32.6658 5.86932C32.4868 6.33381 32.1736 6.85156 31.7262 7.42259C31.2787 7.98935 30.6566 8.67756 29.8597 9.48722L27.2581 12.2102V12.3061H33.1516V14H24.5351ZM44.8954 14.179C44.0175 14.179 43.2334 14.0277 42.5431 13.7251C41.857 13.4226 41.3137 13.0028 40.9131 12.4659C40.5168 11.9247 40.3038 11.2983 40.2739 10.5866H42.281C42.3066 10.9744 42.4366 11.3111 42.6709 11.5966C42.9096 11.8778 43.2207 12.0952 43.6042 12.2486C43.9877 12.402 44.4138 12.4787 44.8826 12.4787C45.3982 12.4787 45.8542 12.3892 46.2505 12.2102C46.6511 12.0312 46.9643 11.782 47.1901 11.4624C47.416 11.1385 47.5289 10.7656 47.5289 10.3438C47.5289 9.90483 47.416 9.51918 47.1901 9.18679C46.9685 8.85014 46.6425 8.58594 46.2121 8.39418C45.786 8.20241 45.2704 8.10653 44.6653 8.10653H43.5594V6.49574H44.6653C45.1511 6.49574 45.5772 6.40838 45.9437 6.23366C46.3144 6.05895 46.6042 5.81605 46.813 5.50497C47.0218 5.18963 47.1262 4.82102 47.1262 4.39915C47.1262 3.99432 47.0346 3.64276 46.8513 3.34446C46.6724 3.0419 46.4167 2.8054 46.0843 2.63494C45.7562 2.46449 45.3684 2.37926 44.9209 2.37926C44.4948 2.37926 44.0964 2.4581 43.7256 2.61577C43.3592 2.76918 43.0609 2.99077 42.8307 3.28054C42.6006 3.56605 42.4771 3.90909 42.46 4.30966H40.5488C40.5701 3.60227 40.7789 2.98011 41.1752 2.44318C41.5758 1.90625 42.1042 1.48651 42.7604 1.18395C43.4167 0.881392 44.1454 0.730113 44.9465 0.730113C45.786 0.730113 46.5104 0.894176 47.1198 1.2223C47.7334 1.54616 48.2065 1.97869 48.5388 2.51989C48.8755 3.06108 49.0417 3.65341 49.0374 4.29688C49.0417 5.02983 48.8371 5.65199 48.4238 6.16335C48.0147 6.67472 47.4692 7.01776 46.7874 7.19247V7.29474C47.6567 7.42685 48.33 7.77202 48.8073 8.33026C49.2888 8.88849 49.5275 9.58097 49.5232 10.4077C49.5275 11.1278 49.3272 11.7734 48.9224 12.3445C48.5218 12.9155 47.9742 13.3651 47.2796 13.6932C46.585 14.017 45.7903 14.179 44.8954 14.179ZM51.6646 11.4432V9.84517L57.3215 0.909091H58.5807V3.26136H57.7817L53.7356 9.66619V9.76847H61.4891V11.4432H51.6646ZM57.8712 14V10.9574L57.884 10.2287V0.909091H59.7569V14H57.8712ZM68.0378 14.179C67.2366 14.179 66.5165 14.0256 65.8773 13.7188C65.2423 13.4077 64.7352 12.9815 64.356 12.4403C63.9767 11.8991 63.7743 11.2812 63.7487 10.5866H65.6663C65.7132 11.1491 65.9625 11.6115 66.4142 11.9737C66.8659 12.3359 67.4071 12.517 68.0378 12.517C68.5406 12.517 68.9859 12.402 69.3737 12.1719C69.7658 11.9375 70.0726 11.6158 70.2942 11.2067C70.52 10.7976 70.6329 10.331 70.6329 9.80682C70.6329 9.27415 70.5179 8.79901 70.2878 8.38139C70.0577 7.96378 69.7402 7.63565 69.3354 7.39702C68.9348 7.15838 68.4746 7.03693 67.9547 7.03267C67.5584 7.03267 67.1599 7.10085 66.7594 7.23722C66.3588 7.37358 66.0349 7.55256 65.7878 7.77415L63.9788 7.50568L64.7139 0.909091H71.9114V2.60298H66.3567L65.9412 6.26562H66.0179C66.2736 6.01847 66.6123 5.81179 67.0342 5.6456C67.4604 5.4794 67.9163 5.39631 68.4021 5.39631C69.199 5.39631 69.9085 5.58594 70.5307 5.9652C71.1571 6.34446 71.6493 6.86222 72.0072 7.51847C72.3695 8.17045 72.5484 8.92045 72.5442 9.76847C72.5484 10.6165 72.3567 11.3729 71.9689 12.0376C71.5854 12.7024 71.0527 13.2266 70.3709 13.6101C69.6933 13.9893 68.9156 14.179 68.0378 14.179ZM84.2128 14.179C83.629 14.1705 83.0538 14.0639 82.487 13.8594C81.9245 13.6548 81.4131 13.3139 80.9529 12.8366C80.4927 12.3594 80.1241 11.718 79.8471 10.9126C79.5744 10.1072 79.438 9.10156 79.438 7.8956C79.438 6.75355 79.5509 5.73935 79.7768 4.85298C80.0069 3.96662 80.3371 3.21875 80.7675 2.60938C81.1979 1.99574 81.7178 1.52912 82.3272 1.20952C82.9366 0.889914 83.6205 0.730113 84.379 0.730113C85.1589 0.730113 85.8513 0.883522 86.4565 1.19034C87.0616 1.49716 87.5516 1.92116 87.9266 2.46236C88.3059 3.00355 88.5467 3.61932 88.6489 4.30966H86.6994C86.5672 3.7642 86.3052 3.31889 85.9131 2.97372C85.5211 2.62855 85.0097 2.45597 84.379 2.45597C83.4202 2.45597 82.6724 2.87358 82.1354 3.70881C81.6028 4.54403 81.3343 5.70526 81.33 7.19247H81.4259C81.6518 6.82173 81.9288 6.50639 82.2569 6.24645C82.5893 5.98224 82.96 5.77983 83.3691 5.6392C83.7824 5.49432 84.2171 5.42188 84.6731 5.42188C85.4316 5.42188 86.1177 5.60724 86.7313 5.97798C87.3492 6.34446 87.8414 6.85156 88.2079 7.49929C88.5744 8.14702 88.7576 8.88849 88.7576 9.72372C88.7576 10.5589 88.568 11.3153 88.1887 11.9929C87.8137 12.6705 87.2853 13.2074 86.6035 13.6037C85.9217 13.9957 85.1248 14.1875 84.2128 14.179ZM84.2065 12.517C84.7093 12.517 85.1589 12.3935 85.5552 12.1463C85.9515 11.8991 86.2647 11.5668 86.4948 11.1491C86.7249 10.7315 86.84 10.2649 86.84 9.74929C86.84 9.24645 86.7271 8.78835 86.5012 8.375C86.2796 7.96165 85.9728 7.63352 85.5807 7.39062C85.193 7.14773 84.7498 7.02628 84.2512 7.02628C83.8719 7.02628 83.5204 7.09872 83.1965 7.24361C82.8769 7.38849 82.5957 7.58878 82.3528 7.84446C82.1099 8.10014 81.9181 8.39418 81.7775 8.72656C81.6411 9.05469 81.5729 9.40199 81.5729 9.76847C81.5729 10.2585 81.6859 10.7124 81.9117 11.13C82.1418 11.5476 82.455 11.8842 82.8513 12.1399C83.2519 12.3913 83.7036 12.517 84.2065 12.517ZM91.5269 14L97.2414 2.69886V2.60298H90.6321V0.909091H99.2869V2.66051L93.5916 14H91.5269ZM105.669 14.179C104.753 14.179 103.943 14.0213 103.24 13.706C102.542 13.3906 101.994 12.956 101.598 12.402C101.201 11.848 101.005 11.2173 101.01 10.5099C101.005 9.95597 101.118 9.44673 101.348 8.98224C101.583 8.51349 101.9 8.12358 102.301 7.8125C102.701 7.49716 103.149 7.29688 103.643 7.21165V7.13494C102.991 6.97727 102.469 6.62784 102.077 6.08665C101.685 5.54545 101.491 4.9233 101.495 4.22017C101.491 3.55114 101.668 2.95454 102.026 2.4304C102.388 1.90199 102.885 1.48651 103.515 1.18395C104.146 0.881392 104.864 0.730113 105.669 0.730113C106.466 0.730113 107.178 0.883522 107.804 1.19034C108.435 1.4929 108.931 1.90838 109.294 2.43679C109.656 2.96094 109.839 3.5554 109.843 4.22017C109.839 4.9233 109.639 5.54545 109.242 6.08665C108.846 6.62784 108.331 6.97727 107.696 7.13494V7.21165C108.186 7.29688 108.627 7.49716 109.019 7.8125C109.415 8.12358 109.73 8.51349 109.965 8.98224C110.203 9.44673 110.325 9.95597 110.329 10.5099C110.325 11.2173 110.125 11.848 109.728 12.402C109.332 12.956 108.782 13.3906 108.079 13.706C107.38 14.0213 106.577 14.179 105.669 14.179ZM105.669 12.5618C106.211 12.5618 106.679 12.4723 107.076 12.2933C107.472 12.1101 107.779 11.8565 107.996 11.5327C108.213 11.2045 108.324 10.821 108.328 10.3821C108.324 9.92614 108.205 9.52344 107.97 9.17401C107.74 8.82457 107.427 8.54972 107.031 8.34943C106.635 8.14915 106.181 8.04901 105.669 8.04901C105.154 8.04901 104.696 8.14915 104.295 8.34943C103.894 8.54972 103.579 8.82457 103.349 9.17401C103.119 9.52344 103.006 9.92614 103.01 10.3821C103.006 10.821 103.11 11.2045 103.323 11.5327C103.541 11.8565 103.85 12.1101 104.25 12.2933C104.651 12.4723 105.124 12.5618 105.669 12.5618ZM105.669 6.47017C106.104 6.47017 106.49 6.38281 106.826 6.2081C107.163 6.03338 107.427 5.79048 107.619 5.4794C107.815 5.16832 107.915 4.80398 107.919 4.38636C107.915 3.97727 107.817 3.61932 107.625 3.3125C107.438 3.00568 107.176 2.76918 106.839 2.60298C106.502 2.43253 106.113 2.3473 105.669 2.3473C105.218 2.3473 104.821 2.43253 104.48 2.60298C104.144 2.76918 103.882 3.00568 103.694 3.3125C103.507 3.61932 103.415 3.97727 103.419 4.38636C103.415 4.80398 103.509 5.16832 103.701 5.4794C103.892 5.79048 104.157 6.03338 104.493 6.2081C104.834 6.38281 105.226 6.47017 105.669 6.47017ZM116.972 0.730113C117.556 0.734375 118.131 0.840909 118.698 1.04972C119.265 1.25852 119.776 1.59943 120.232 2.07244C120.692 2.54545 121.059 3.18466 121.331 3.99006C121.608 4.79119 121.749 5.78835 121.753 6.98153C121.753 8.12784 121.638 9.14844 121.408 10.0433C121.178 10.9339 120.848 11.6861 120.417 12.2997C119.991 12.9134 119.474 13.38 118.864 13.6996C118.255 14.0192 117.569 14.179 116.806 14.179C116.026 14.179 115.334 14.0256 114.728 13.7188C114.123 13.4119 113.631 12.9879 113.252 12.4467C112.873 11.9013 112.636 11.2749 112.542 10.5675H114.492C114.62 11.13 114.88 11.5859 115.272 11.9354C115.668 12.2805 116.179 12.4531 116.806 12.4531C117.765 12.4531 118.513 12.0355 119.049 11.2003C119.586 10.3608 119.857 9.18892 119.861 7.68466H119.759C119.537 8.05114 119.26 8.36648 118.928 8.63068C118.6 8.89489 118.231 9.09943 117.822 9.24432C117.413 9.3892 116.976 9.46165 116.512 9.46165C115.758 9.46165 115.072 9.27628 114.454 8.90554C113.836 8.5348 113.344 8.02557 112.977 7.37784C112.611 6.73011 112.427 5.99077 112.427 5.1598C112.427 4.3331 112.615 3.5831 112.99 2.9098C113.369 2.23651 113.898 1.70384 114.575 1.31179C115.257 0.915482 116.056 0.72159 116.972 0.730113ZM116.978 2.39205C116.48 2.39205 116.03 2.51562 115.63 2.76278C115.233 3.00568 114.92 3.33594 114.69 3.75355C114.46 4.1669 114.345 4.62713 114.345 5.13423C114.345 5.64134 114.456 6.10156 114.677 6.51491C114.903 6.92401 115.21 7.25 115.598 7.4929C115.99 7.73153 116.437 7.85085 116.94 7.85085C117.315 7.85085 117.665 7.77841 117.988 7.63352C118.312 7.48864 118.596 7.28835 118.839 7.03267C119.081 6.77273 119.271 6.47869 119.407 6.15057C119.544 5.82244 119.612 5.47727 119.612 5.11506C119.612 4.63352 119.497 4.18608 119.267 3.77273C119.041 3.35937 118.73 3.02699 118.334 2.77557C117.937 2.51989 117.486 2.39205 116.978 2.39205ZM133.793 0.909091V14H131.811V2.89062H131.735L128.602 4.93608V3.04403L131.869 0.909091H133.793ZM141.891 14.2173C140.882 14.2131 140.019 13.9467 139.303 13.4183C138.587 12.8899 138.039 12.1207 137.66 11.1108C137.281 10.1009 137.091 8.88423 137.091 7.46094C137.091 6.0419 137.281 4.82955 137.66 3.82386C138.043 2.81818 138.593 2.05114 139.309 1.52273C140.029 0.994318 140.89 0.730113 141.891 0.730113C142.893 0.730113 143.752 0.996448 144.467 1.52912C145.183 2.05753 145.731 2.82457 146.11 3.83026C146.494 4.83168 146.686 6.0419 146.686 7.46094C146.686 8.88849 146.496 10.1072 146.117 11.1172C145.737 12.1229 145.19 12.892 144.474 13.4247C143.758 13.9531 142.897 14.2173 141.891 14.2173ZM141.891 12.5107C142.778 12.5107 143.47 12.0781 143.969 11.2131C144.472 10.348 144.723 9.0973 144.723 7.46094C144.723 6.37429 144.608 5.45597 144.378 4.70597C144.152 3.9517 143.826 3.38068 143.4 2.9929C142.978 2.60085 142.475 2.40483 141.891 2.40483C141.009 2.40483 140.317 2.83949 139.814 3.70881C139.311 4.57812 139.058 5.82884 139.053 7.46094C139.053 8.55185 139.166 9.47443 139.392 10.2287C139.622 10.9787 139.948 11.5476 140.37 11.9354C140.792 12.3189 141.299 12.5107 141.891 12.5107ZM153.92 0.909091V14H151.938V2.89062H151.861L148.729 4.93608V3.04403L151.996 0.909091H153.92ZM162.428 0.909091V14H160.446V2.89062H160.369L157.237 4.93608V3.04403L160.504 0.909091H162.428ZM5.661 36.2173C4.65106 36.2131 3.78813 35.9467 3.07222 35.4183C2.35631 34.8899 1.80873 34.1207 1.42947 33.1108C1.0502 32.1009 0.860574 30.8842 0.860574 29.4609C0.860574 28.0419 1.0502 26.8295 1.42947 25.8239C1.81299 24.8182 2.3627 24.0511 3.07861 23.5227C3.79878 22.9943 4.65958 22.7301 5.661 22.7301C6.66242 22.7301 7.52109 22.9964 8.23699 23.5291C8.9529 24.0575 9.50049 24.8246 9.87975 25.8303C10.2633 26.8317 10.455 28.0419 10.455 29.4609C10.455 30.8885 10.2654 32.1072 9.88614 33.1172C9.50688 34.1229 8.9593 34.892 8.24339 35.4247C7.52748 35.9531 6.66668 36.2173 5.661 36.2173ZM5.661 34.5107C6.54736 34.5107 7.23984 34.0781 7.73841 33.2131C8.24126 32.348 8.49268 31.0973 8.49268 29.4609C8.49268 28.3743 8.37762 27.456 8.14751 26.706C7.92165 25.9517 7.59566 25.3807 7.16952 24.9929C6.74765 24.6009 6.24481 24.4048 5.661 24.4048C4.7789 24.4048 4.08643 24.8395 3.58358 25.7088C3.08074 26.5781 2.82719 27.8288 2.82293 29.4609C2.82293 30.5518 2.93586 31.4744 3.16171 32.2287C3.39182 32.9787 3.71782 33.5476 4.13969 33.9354C4.56157 34.3189 5.06867 34.5107 5.661 34.5107ZM17.1459 36.179C16.2297 36.179 15.4201 36.0213 14.7169 35.706C14.0181 35.3906 13.4705 34.956 13.0742 34.402C12.6779 33.848 12.4818 33.2173 12.4861 32.5099C12.4818 31.956 12.5948 31.4467 12.8249 30.9822C13.0593 30.5135 13.3767 30.1236 13.7773 29.8125C14.1779 29.4972 14.6253 29.2969 15.1196 29.2116V29.1349C14.4676 28.9773 13.9456 28.6278 13.5536 28.0866C13.1615 27.5455 12.9676 26.9233 12.9719 26.2202C12.9676 25.5511 13.1445 24.9545 13.5024 24.4304C13.8647 23.902 14.3611 23.4865 14.9918 23.1839C15.6225 22.8814 16.3405 22.7301 17.1459 22.7301C17.9428 22.7301 18.6544 22.8835 19.2809 23.1903C19.9115 23.4929 20.408 23.9084 20.7702 24.4368C21.1324 24.9609 21.3157 25.5554 21.3199 26.2202C21.3157 26.9233 21.1154 27.5455 20.7191 28.0866C20.3228 28.6278 19.8071 28.9773 19.1722 29.1349V29.2116C19.6622 29.2969 20.1033 29.4972 20.4953 29.8125C20.8916 30.1236 21.207 30.5135 21.4414 30.9822C21.68 31.4467 21.8014 31.956 21.8057 32.5099C21.8014 33.2173 21.6012 33.848 21.2049 34.402C20.8085 34.956 20.2588 35.3906 19.5557 35.706C18.8568 36.0213 18.0536 36.179 17.1459 36.179ZM17.1459 34.5618C17.6871 34.5618 18.1559 34.4723 18.5522 34.2933C18.9485 34.1101 19.2553 33.8565 19.4726 33.5327C19.6899 33.2045 19.8007 32.821 19.805 32.3821C19.8007 31.9261 19.6814 31.5234 19.447 31.174C19.2169 30.8246 18.9037 30.5497 18.5074 30.3494C18.1111 30.1491 17.6573 30.049 17.1459 30.049C16.6303 30.049 16.1722 30.1491 15.7716 30.3494C15.371 30.5497 15.0557 30.8246 14.8256 31.174C14.5955 31.5234 14.4826 31.9261 14.4868 32.3821C14.4826 32.821 14.587 33.2045 14.8 33.5327C15.0174 33.8565 15.3263 34.1101 15.7269 34.2933C16.1274 34.4723 16.6005 34.5618 17.1459 34.5618ZM17.1459 28.4702C17.5806 28.4702 17.9662 28.3828 18.3029 28.2081C18.6395 28.0334 18.9037 27.7905 19.0955 27.4794C19.2915 27.1683 19.3916 26.804 19.3959 26.3864C19.3916 25.9773 19.2936 25.6193 19.1019 25.3125C18.9144 25.0057 18.6523 24.7692 18.3157 24.603C17.979 24.4325 17.5891 24.3473 17.1459 24.3473C16.6942 24.3473 16.2979 24.4325 15.957 24.603C15.6203 24.7692 15.3583 25.0057 15.1708 25.3125C14.9833 25.6193 14.8916 25.9773 14.8959 26.3864C14.8916 26.804 14.9854 27.1683 15.1772 27.4794C15.3689 27.7905 15.6331 28.0334 15.9698 28.2081C16.3107 28.3828 16.7027 28.4702 17.1459 28.4702ZM28.4167 36.179C27.6155 36.179 26.8954 36.0256 26.2562 35.7188C25.6212 35.4077 25.1141 34.9815 24.7349 34.4403C24.3556 33.8991 24.1532 33.2812 24.1276 32.5866H26.0452C26.0921 33.1491 26.3414 33.6115 26.7931 33.9737C27.2448 34.3359 27.786 34.517 28.4167 34.517C28.9195 34.517 29.3648 34.402 29.7526 34.1719C30.1447 33.9375 30.4515 33.6158 30.6731 33.2067C30.8989 32.7976 31.0119 32.331 31.0119 31.8068C31.0119 31.2741 30.8968 30.799 30.6667 30.3814C30.4366 29.9638 30.1191 29.6357 29.7143 29.397C29.3137 29.1584 28.8535 29.0369 28.3336 29.0327C27.9373 29.0327 27.5388 29.1009 27.1383 29.2372C26.7377 29.3736 26.4138 29.5526 26.1667 29.7741L24.3577 29.5057L25.0928 22.9091H32.2903V24.603H26.7356L26.3201 28.2656H26.3968C26.6525 28.0185 26.9913 27.8118 27.4131 27.6456C27.8393 27.4794 28.2952 27.3963 28.781 27.3963C29.5779 27.3963 30.2874 27.5859 30.9096 27.9652C31.536 28.3445 32.0282 28.8622 32.3861 29.5185C32.7484 30.1705 32.9273 30.9205 32.9231 31.7685C32.9273 32.6165 32.7356 33.3729 32.3478 34.0376C31.9643 34.7024 31.4316 35.2266 30.7498 35.6101C30.0722 35.9893 29.2945 36.179 28.4167 36.179ZM39.6811 36.179C38.7649 36.179 37.9552 36.0213 37.2521 35.706C36.5532 35.3906 36.0056 34.956 35.6093 34.402C35.213 33.848 35.017 33.2173 35.0213 32.5099C35.017 31.956 35.1299 31.4467 35.36 30.9822C35.5944 30.5135 35.9119 30.1236 36.3125 29.8125C36.713 29.4972 37.1605 29.2969 37.6548 29.2116V29.1349C37.0028 28.9773 36.4808 28.6278 36.0887 28.0866C35.6967 27.5455 35.5028 26.9233 35.5071 26.2202C35.5028 25.5511 35.6796 24.9545 36.0376 24.4304C36.3998 23.902 36.8963 23.4865 37.5269 23.1839C38.1576 22.8814 38.8757 22.7301 39.6811 22.7301C40.4779 22.7301 41.1896 22.8835 41.816 23.1903C42.4467 23.4929 42.9431 23.9084 43.3054 24.4368C43.6676 24.9609 43.8508 25.5554 43.8551 26.2202C43.8508 26.9233 43.6505 27.5455 43.2542 28.0866C42.8579 28.6278 42.3423 28.9773 41.7073 29.1349V29.2116C42.1974 29.2969 42.6385 29.4972 43.0305 29.8125C43.4268 30.1236 43.7421 30.5135 43.9765 30.9822C44.2152 31.4467 44.3366 31.956 44.3409 32.5099C44.3366 33.2173 44.1363 33.848 43.74 34.402C43.3437 34.956 42.794 35.3906 42.0909 35.706C41.392 36.0213 40.5887 36.179 39.6811 36.179ZM39.6811 34.5618C40.2223 34.5618 40.691 34.4723 41.0873 34.2933C41.4836 34.1101 41.7904 33.8565 42.0078 33.5327C42.2251 33.2045 42.3359 32.821 42.3402 32.3821C42.3359 31.9261 42.2166 31.5234 41.9822 31.174C41.7521 30.8246 41.4389 30.5497 41.0426 30.3494C40.6463 30.1491 40.1924 30.049 39.6811 30.049C39.1654 30.049 38.7073 30.1491 38.3068 30.3494C37.9062 30.5497 37.5909 30.8246 37.3608 31.174C37.1306 31.5234 37.0177 31.9261 37.022 32.3821C37.0177 32.821 37.1221 33.2045 37.3352 33.5327C37.5525 33.8565 37.8615 34.1101 38.262 34.2933C38.6626 34.4723 39.1356 34.5618 39.6811 34.5618ZM39.6811 28.4702C40.1157 28.4702 40.5014 28.3828 40.838 28.2081C41.1747 28.0334 41.4389 27.7905 41.6306 27.4794C41.8267 27.1683 41.9268 26.804 41.9311 26.3864C41.9268 25.9773 41.8288 25.6193 41.637 25.3125C41.4495 25.0057 41.1875 24.7692 40.8508 24.603C40.5142 24.4325 40.1242 24.3473 39.6811 24.3473C39.2294 24.3473 38.8331 24.4325 38.4921 24.603C38.1555 24.7692 37.8934 25.0057 37.7059 25.3125C37.5184 25.6193 37.4268 25.9773 37.4311 26.3864C37.4268 26.804 37.5206 27.1683 37.7123 27.4794C37.9041 27.7905 38.1683 28.0334 38.5049 28.2081C38.8458 28.3828 39.2379 28.4702 39.6811 28.4702ZM52.6282 39.6818C52.3426 39.6818 52.0827 39.6584 51.8483 39.6115C51.6139 39.5689 51.4392 39.522 51.3242 39.4709L51.7844 37.9048C52.1338 37.9986 52.4449 38.0391 52.7176 38.0263C52.9904 38.0135 53.2311 37.9112 53.4399 37.7195C53.653 37.5277 53.8405 37.2145 54.0024 36.7798L54.2389 36.1278L50.6466 26.1818H52.6921L55.1786 33.8011H55.2809L57.7674 26.1818H59.8192L55.773 37.3104C55.5855 37.8217 55.3469 38.2543 55.0571 38.608C54.7674 38.9659 54.4222 39.2344 54.0216 39.4134C53.621 39.5923 53.1566 39.6818 52.6282 39.6818ZM64.1914 36.2173C63.5692 36.2173 63.0067 36.1023 62.5039 35.8722C62.001 35.6378 61.6026 35.299 61.3085 34.8558C61.0188 34.4126 60.8739 33.8693 60.8739 33.2259C60.8739 32.6719 60.9804 32.2159 61.1935 31.858C61.4066 31.5 61.6942 31.2166 62.0564 31.0078C62.4186 30.799 62.8235 30.6413 63.2709 30.5348C63.7184 30.4283 64.1743 30.3473 64.6388 30.2919C65.2269 30.2237 65.7041 30.1683 66.0706 30.1257C66.4371 30.0788 66.7034 30.0043 66.8696 29.902C67.0358 29.7997 67.1189 29.6335 67.1189 29.4034V29.3587C67.1189 28.8004 66.9612 28.3679 66.6459 28.0611C66.3348 27.7543 65.8703 27.6009 65.2524 27.6009C64.609 27.6009 64.1019 27.7436 63.7311 28.0291C63.3647 28.3104 63.1111 28.6236 62.9705 28.9688L61.1743 28.5597C61.3874 27.9631 61.6985 27.4815 62.1076 27.1151C62.5209 26.7443 62.996 26.4759 63.533 26.3097C64.0699 26.1392 64.6345 26.054 65.2269 26.054C65.6189 26.054 66.0344 26.1009 66.4733 26.1946C66.9165 26.2841 67.3299 26.4503 67.7134 26.6932C68.1012 26.9361 68.4186 27.2834 68.6658 27.7351C68.913 28.1825 69.0365 28.7642 69.0365 29.4801V36H67.1701V34.6577H67.0934C66.9698 34.9048 66.7844 35.1477 66.5372 35.3864C66.2901 35.625 65.9726 35.8232 65.5848 35.9808C65.197 36.1385 64.7326 36.2173 64.1914 36.2173ZM64.6068 34.6832C65.1353 34.6832 65.587 34.5788 65.962 34.37C66.3412 34.1612 66.6289 33.8885 66.8249 33.5518C67.0252 33.2109 67.1253 32.8466 67.1253 32.4588V31.1932C67.0571 31.2614 66.925 31.3253 66.729 31.3849C66.5372 31.4403 66.3178 31.4893 66.0706 31.532C65.8235 31.5703 65.5827 31.6065 65.3483 31.6406C65.1139 31.6705 64.9179 31.696 64.7603 31.7173C64.3895 31.7642 64.0507 31.843 63.7439 31.9538C63.4414 32.0646 63.1985 32.2244 63.0152 32.4332C62.8362 32.6378 62.7468 32.9105 62.7468 33.2514C62.7468 33.7244 62.9215 34.0824 63.2709 34.3253C63.6203 34.5639 64.0657 34.6832 64.6068 34.6832ZM73.4934 30.1705V36H71.5822V26.1818H73.4167V27.7798H73.5381C73.764 27.2599 74.1177 26.8423 74.5992 26.527C75.085 26.2116 75.6965 26.054 76.4337 26.054C77.1028 26.054 77.6887 26.1946 78.1915 26.4759C78.6944 26.7528 79.0843 27.1662 79.3613 27.7159C79.6383 28.2656 79.7768 28.9453 79.7768 29.755V36H77.8655V29.9851C77.8655 29.2734 77.6802 28.7173 77.3094 28.3168C76.9387 27.9119 76.4295 27.7095 75.7817 27.7095C75.3386 27.7095 74.9444 27.8054 74.5992 27.9972C74.2583 28.1889 73.9877 28.4702 73.7874 28.8409C73.5914 29.2074 73.4934 29.6506 73.4934 30.1705ZM86.4565 39.8864C85.6766 39.8864 85.0055 39.7841 84.443 39.5795C83.8847 39.375 83.4288 39.1044 83.0751 38.7678C82.7214 38.4311 82.4572 38.0625 82.2824 37.6619L83.9252 36.9844C84.0403 37.1719 84.1937 37.37 84.3854 37.5788C84.5815 37.7919 84.8457 37.973 85.178 38.1222C85.5147 38.2713 85.9472 38.3459 86.4756 38.3459C87.2001 38.3459 87.7988 38.169 88.2718 37.8153C88.7448 37.4659 88.9813 36.9077 88.9813 36.1406V34.2102H88.8599C88.7448 34.419 88.5786 34.6513 88.3613 34.907C88.1482 35.1626 87.8542 35.3842 87.4792 35.5717C87.1042 35.7592 86.6163 35.853 86.0154 35.853C85.2398 35.853 84.541 35.6719 83.9188 35.3097C83.3009 34.9432 82.8109 34.4041 82.4486 33.6925C82.0907 32.9766 81.9117 32.0966 81.9117 31.0526C81.9117 30.0085 82.0886 29.1136 82.4422 28.3679C82.8002 27.6222 83.2903 27.0511 83.9124 26.6548C84.5346 26.2543 85.2398 26.054 86.0282 26.054C86.6376 26.054 87.1297 26.1562 87.5047 26.3608C87.8797 26.5611 88.1717 26.7955 88.3805 27.0639C88.5935 27.3324 88.7576 27.5689 88.8726 27.7734H89.0133V26.1818H90.8861V36.2173C90.8861 37.0611 90.6901 37.7536 90.2981 38.2947C89.906 38.8359 89.3755 39.2365 88.7065 39.4964C88.0417 39.7564 87.2917 39.8864 86.4565 39.8864ZM86.4373 34.2678C86.987 34.2678 87.4515 34.1399 87.8307 33.8842C88.2143 33.6243 88.504 33.2536 88.7001 32.772C88.9003 32.2862 89.0005 31.7045 89.0005 31.027C89.0005 30.3665 88.9025 29.7848 88.7065 29.282C88.5104 28.7791 88.2228 28.3871 87.8435 28.1058C87.4643 27.8203 86.9955 27.6776 86.4373 27.6776C85.862 27.6776 85.3826 27.8267 84.9991 28.125C84.6155 28.419 84.3258 28.8196 84.1297 29.3267C83.938 29.8338 83.8421 30.4006 83.8421 31.027C83.8421 31.6705 83.9401 32.2351 84.1361 32.7209C84.3322 33.2067 84.6219 33.5859 85.0055 33.8587C85.3932 34.1314 85.8705 34.2678 86.4373 34.2678ZM100.124 22.9091V36H98.213V22.9091H100.124ZM105.553 36.2173C104.931 36.2173 104.368 36.1023 103.865 35.8722C103.362 35.6378 102.964 35.299 102.67 34.8558C102.38 34.4126 102.235 33.8693 102.235 33.2259C102.235 32.6719 102.342 32.2159 102.555 31.858C102.768 31.5 103.056 31.2166 103.418 31.0078C103.78 30.799 104.185 30.6413 104.632 30.5348C105.08 30.4283 105.536 30.3473 106 30.2919C106.588 30.2237 107.065 30.1683 107.432 30.1257C107.798 30.0788 108.065 30.0043 108.231 29.902C108.397 29.7997 108.48 29.6335 108.48 29.4034V29.3587C108.48 28.8004 108.323 28.3679 108.007 28.0611C107.696 27.7543 107.232 27.6009 106.614 27.6009C105.97 27.6009 105.463 27.7436 105.092 28.0291C104.726 28.3104 104.472 28.6236 104.332 28.9688L102.536 28.5597C102.749 27.9631 103.06 27.4815 103.469 27.1151C103.882 26.7443 104.357 26.4759 104.894 26.3097C105.431 26.1392 105.996 26.054 106.588 26.054C106.98 26.054 107.396 26.1009 107.835 26.1946C108.278 26.2841 108.691 26.4503 109.075 26.6932C109.462 26.9361 109.78 27.2834 110.027 27.7351C110.274 28.1825 110.398 28.7642 110.398 29.4801V36H108.531V34.6577H108.455C108.331 34.9048 108.146 35.1477 107.899 35.3864C107.651 35.625 107.334 35.8232 106.946 35.9808C106.558 36.1385 106.094 36.2173 105.553 36.2173ZM105.968 34.6832C106.497 34.6832 106.948 34.5788 107.323 34.37C107.703 34.1612 107.99 33.8885 108.186 33.5518C108.386 33.2109 108.487 32.8466 108.487 32.4588V31.1932C108.418 31.2614 108.286 31.3253 108.09 31.3849C107.899 31.4403 107.679 31.4893 107.432 31.532C107.185 31.5703 106.944 31.6065 106.71 31.6406C106.475 31.6705 106.279 31.696 106.122 31.7173C105.751 31.7642 105.412 31.843 105.105 31.9538C104.803 32.0646 104.56 32.2244 104.377 32.4332C104.198 32.6378 104.108 32.9105 104.108 33.2514C104.108 33.7244 104.283 34.0824 104.632 34.3253C104.982 34.5639 105.427 34.6832 105.968 34.6832ZM112.943 36V26.1818H114.855V36H112.943ZM113.909 24.6669C113.576 24.6669 113.291 24.5561 113.052 24.3345C112.818 24.1087 112.701 23.8402 112.701 23.5291C112.701 23.2138 112.818 22.9453 113.052 22.7237C113.291 22.4979 113.576 22.3849 113.909 22.3849C114.241 22.3849 114.524 22.4979 114.759 22.7237C114.997 22.9453 115.117 23.2138 115.117 23.5291C115.117 23.8402 114.997 24.1087 114.759 24.3345C114.524 24.5561 114.241 24.6669 113.909 24.6669ZM119.337 30.1705V36H117.426V26.1818H119.26V27.7798H119.382C119.608 27.2599 119.961 26.8423 120.443 26.527C120.929 26.2116 121.54 26.054 122.277 26.054C122.947 26.054 123.532 26.1946 124.035 26.4759C124.538 26.7528 124.928 27.1662 125.205 27.7159C125.482 28.2656 125.621 28.9453 125.621 29.755V36H123.709V29.9851C123.709 29.2734 123.524 28.7173 123.153 28.3168C122.782 27.9119 122.273 27.7095 121.625 27.7095C121.182 27.7095 120.788 27.8054 120.443 27.9972C120.102 28.1889 119.831 28.4702 119.631 28.8409C119.435 29.2074 119.337 29.6506 119.337 30.1705ZM134.705 32.6697L134.692 30.3366H135.025L138.937 26.1818H141.225L136.763 30.9119H136.463L134.705 32.6697ZM132.947 36V22.9091H134.859V36H132.947ZM139.148 36L135.632 31.3338L136.949 29.9979L141.494 36H139.148ZM145.824 36.2173C145.202 36.2173 144.64 36.1023 144.137 35.8722C143.634 35.6378 143.235 35.299 142.941 34.8558C142.652 34.4126 142.507 33.8693 142.507 33.2259C142.507 32.6719 142.613 32.2159 142.826 31.858C143.039 31.5 143.327 31.2166 143.689 31.0078C144.051 30.799 144.456 30.6413 144.904 30.5348C145.351 30.4283 145.807 30.3473 146.272 30.2919C146.86 30.2237 147.337 30.1683 147.703 30.1257C148.07 30.0788 148.336 30.0043 148.502 29.902C148.669 29.7997 148.752 29.6335 148.752 29.4034V29.3587C148.752 28.8004 148.594 28.3679 148.279 28.0611C147.968 27.7543 147.503 27.6009 146.885 27.6009C146.242 27.6009 145.735 27.7436 145.364 28.0291C144.997 28.3104 144.744 28.6236 144.603 28.9688L142.807 28.5597C143.02 27.9631 143.331 27.4815 143.74 27.1151C144.154 26.7443 144.629 26.4759 145.166 26.3097C145.703 26.1392 146.267 26.054 146.86 26.054C147.252 26.054 147.667 26.1009 148.106 26.1946C148.549 26.2841 148.963 26.4503 149.346 26.6932C149.734 26.9361 150.051 27.2834 150.299 27.7351C150.546 28.1825 150.669 28.7642 150.669 29.4801V36H148.803V34.6577H148.726C148.603 34.9048 148.417 35.1477 148.17 35.3864C147.923 35.625 147.605 35.8232 147.218 35.9808C146.83 36.1385 146.365 36.2173 145.824 36.2173ZM146.24 34.6832C146.768 34.6832 147.22 34.5788 147.595 34.37C147.974 34.1612 148.262 33.8885 148.458 33.5518C148.658 33.2109 148.758 32.8466 148.758 32.4588V31.1932C148.69 31.2614 148.558 31.3253 148.362 31.3849C148.17 31.4403 147.951 31.4893 147.703 31.532C147.456 31.5703 147.216 31.6065 146.981 31.6406C146.747 31.6705 146.551 31.696 146.393 31.7173C146.022 31.7642 145.684 31.843 145.377 31.9538C145.074 32.0646 144.831 32.2244 144.648 32.4332C144.469 32.6378 144.38 32.9105 144.38 33.2514C144.38 33.7244 144.554 34.0824 144.904 34.3253C145.253 34.5639 145.698 34.6832 146.24 34.6832ZM153.215 39.6818V26.1818H155.081V27.7734H155.241C155.352 27.5689 155.512 27.3324 155.721 27.0639C155.929 26.7955 156.219 26.5611 156.59 26.3608C156.961 26.1562 157.451 26.054 158.06 26.054C158.853 26.054 159.56 26.2543 160.182 26.6548C160.804 27.0554 161.292 27.6328 161.646 28.3871C162.004 29.1413 162.183 30.049 162.183 31.1101C162.183 32.1712 162.006 33.081 161.652 33.8395C161.299 34.5937 160.813 35.1754 160.195 35.5845C159.577 35.9893 158.872 36.1918 158.079 36.1918C157.483 36.1918 156.995 36.0916 156.616 35.8913C156.241 35.6911 155.947 35.4567 155.733 35.1882C155.52 34.9197 155.356 34.6811 155.241 34.4723H155.126V39.6818H153.215ZM155.088 31.0909C155.088 31.7812 155.188 32.3864 155.388 32.9062C155.589 33.4261 155.878 33.8331 156.258 34.1271C156.637 34.4169 157.101 34.5618 157.651 34.5618C158.222 34.5618 158.699 34.4105 159.083 34.108C159.466 33.8011 159.756 33.3857 159.952 32.8615C160.152 32.3374 160.253 31.7472 160.253 31.0909C160.253 30.4432 160.155 29.8615 159.959 29.3459C159.767 28.8303 159.477 28.4233 159.089 28.125C158.706 27.8267 158.226 27.6776 157.651 27.6776C157.097 27.6776 156.628 27.8203 156.245 28.1058C155.866 28.3913 155.578 28.7898 155.382 29.3011C155.186 29.8125 155.088 30.4091 155.088 31.0909ZM167.182 36.2173C166.559 36.2173 165.997 36.1023 165.494 35.8722C164.991 35.6378 164.593 35.299 164.299 34.8558C164.009 34.4126 163.864 33.8693 163.864 33.2259C163.864 32.6719 163.971 32.2159 164.184 31.858C164.397 31.5 164.684 31.2166 165.047 31.0078C165.409 30.799 165.814 30.6413 166.261 30.5348C166.709 30.4283 167.165 30.3473 167.629 30.2919C168.217 30.2237 168.694 30.1683 169.061 30.1257C169.427 30.0788 169.694 30.0043 169.86 29.902C170.026 29.7997 170.109 29.6335 170.109 29.4034V29.3587C170.109 28.8004 169.951 28.3679 169.636 28.0611C169.325 27.7543 168.861 27.6009 168.243 27.6009C167.599 27.6009 167.092 27.7436 166.721 28.0291C166.355 28.3104 166.101 28.6236 165.961 28.9688L164.165 28.5597C164.378 27.9631 164.689 27.4815 165.098 27.1151C165.511 26.7443 165.986 26.4759 166.523 26.3097C167.06 26.1392 167.625 26.054 168.217 26.054C168.609 26.054 169.025 26.1009 169.464 26.1946C169.907 26.2841 170.32 26.4503 170.704 26.6932C171.091 26.9361 171.409 27.2834 171.656 27.7351C171.903 28.1825 172.027 28.7642 172.027 29.4801V36H170.16V34.6577H170.084C169.96 34.9048 169.775 35.1477 169.527 35.3864C169.28 35.625 168.963 35.8232 168.575 35.9808C168.187 36.1385 167.723 36.2173 167.182 36.2173ZM167.597 34.6832C168.125 34.6832 168.577 34.5788 168.952 34.37C169.331 34.1612 169.619 33.8885 169.815 33.5518C170.015 33.2109 170.116 32.8466 170.116 32.4588V31.1932C170.047 31.2614 169.915 31.3253 169.719 31.3849C169.527 31.4403 169.308 31.4893 169.061 31.532C168.814 31.5703 168.573 31.6065 168.339 31.6406C168.104 31.6705 167.908 31.696 167.75 31.7173C167.38 31.7642 167.041 31.843 166.734 31.9538C166.432 32.0646 166.189 32.2244 166.005 32.4332C165.826 32.6378 165.737 32.9105 165.737 33.2514C165.737 33.7244 165.912 34.0824 166.261 34.3253C166.611 34.5639 167.056 34.6832 167.597 34.6832ZM176.484 30.1705V36H174.572V26.1818H176.407V27.7798H176.528C176.754 27.2599 177.108 26.8423 177.589 26.527C178.075 26.2116 178.687 26.054 179.424 26.054C180.093 26.054 180.679 26.1946 181.182 26.4759C181.685 26.7528 182.075 27.1662 182.352 27.7159C182.629 28.2656 182.767 28.9453 182.767 29.755V36H180.856V29.9851C180.856 29.2734 180.67 28.7173 180.3 28.3168C179.929 27.9119 179.42 27.7095 178.772 27.7095C178.329 27.7095 177.935 27.8054 177.589 27.9972C177.249 28.1889 176.978 28.4702 176.778 28.8409C176.582 29.2074 176.484 29.6506 176.484 30.1705ZM2.88685 54.6697L2.87407 52.3366H3.20645L7.11839 48.1818H9.40674L4.94509 52.9119H4.64466L2.88685 54.6697ZM1.12904 58V44.9091H3.04026V58H1.12904ZM7.32932 58L3.8137 53.3338L5.13046 51.9979L9.6752 58H7.32932ZM14.0058 58.2173C13.3837 58.2173 12.8212 58.1023 12.3183 57.8722C11.8155 57.6378 11.417 57.299 11.123 56.8558C10.8332 56.4126 10.6883 55.8693 10.6883 55.2259C10.6883 54.6719 10.7949 54.2159 11.0079 53.858C11.221 53.5 11.5087 53.2166 11.8709 53.0078C12.2331 52.799 12.6379 52.6413 13.0854 52.5348C13.5328 52.4283 13.9888 52.3473 14.4533 52.2919C15.0413 52.2237 15.5186 52.1683 15.8851 52.1257C16.2516 52.0788 16.5179 52.0043 16.6841 51.902C16.8503 51.7997 16.9334 51.6335 16.9334 51.4034V51.3587C16.9334 50.8004 16.7757 50.3679 16.4604 50.0611C16.1493 49.7543 15.6848 49.6009 15.0669 49.6009C14.4234 49.6009 13.9163 49.7436 13.5456 50.0291C13.1791 50.3104 12.9256 50.6236 12.7849 50.9688L10.9888 50.5597C11.2018 49.9631 11.5129 49.4815 11.922 49.1151C12.3354 48.7443 12.8105 48.4759 13.3474 48.3097C13.8844 48.1392 14.449 48.054 15.0413 48.054C15.4334 48.054 15.8489 48.1009 16.2878 48.1946C16.731 48.2841 17.1443 48.4503 17.5278 48.6932C17.9156 48.9361 18.2331 49.2834 18.4802 49.7351C18.7274 50.1825 18.851 50.7642 18.851 51.4801V58H16.9845V56.6577H16.9078C16.7842 56.9048 16.5989 57.1477 16.3517 57.3864C16.1045 57.625 15.7871 57.8232 15.3993 57.9808C15.0115 58.1385 14.547 58.2173 14.0058 58.2173ZM14.4213 56.6832C14.9497 56.6832 15.4014 56.5788 15.7764 56.37C16.1557 56.1612 16.4433 55.8885 16.6393 55.5518C16.8396 55.2109 16.9398 54.8466 16.9398 54.4588V53.1932C16.8716 53.2614 16.7395 53.3253 16.5435 53.3849C16.3517 53.4403 16.1322 53.4893 15.8851 53.532C15.6379 53.5703 15.3972 53.6065 15.1628 53.6406C14.9284 53.6705 14.7324 53.696 14.5747 53.7173C14.204 53.7642 13.8652 53.843 13.5584 53.9538C13.2558 54.0646 13.0129 54.2244 12.8297 54.4332C12.6507 54.6378 12.5612 54.9105 12.5612 55.2514C12.5612 55.7244 12.7359 56.0824 13.0854 56.3253C13.4348 56.5639 13.8801 56.6832 14.4213 56.6832ZM21.3966 61.6818V48.1818H23.2631V49.7734H23.4229C23.5337 49.5689 23.6935 49.3324 23.9023 49.0639C24.1111 48.7955 24.4009 48.5611 24.7716 48.3608C25.1424 48.1562 25.6324 48.054 26.2418 48.054C27.0344 48.054 27.7418 48.2543 28.3639 48.6548C28.9861 49.0554 29.474 49.6328 29.8277 50.3871C30.1857 51.1413 30.3647 52.049 30.3647 53.1101C30.3647 54.1712 30.1878 55.081 29.8341 55.8395C29.4804 56.5937 28.9946 57.1754 28.3767 57.5845C27.7588 57.9893 27.0536 58.1918 26.261 58.1918C25.6644 58.1918 25.1764 58.0916 24.7972 57.8913C24.4222 57.6911 24.1282 57.4567 23.9151 57.1882C23.702 56.9197 23.538 56.6811 23.4229 56.4723H23.3078V61.6818H21.3966ZM23.2695 53.0909C23.2695 53.7812 23.3696 54.3864 23.5699 54.9062C23.7702 55.4261 24.06 55.8331 24.4392 56.1271C24.8185 56.4169 25.283 56.5618 25.8327 56.5618C26.4037 56.5618 26.881 56.4105 27.2645 56.108C27.648 55.8011 27.9378 55.3857 28.1338 54.8615C28.3341 54.3374 28.4343 53.7472 28.4343 53.0909C28.4343 52.4432 28.3362 51.8615 28.1402 51.3459C27.9485 50.8303 27.6587 50.4233 27.2709 50.125C26.8874 49.8267 26.408 49.6776 25.8327 49.6776C25.2787 49.6776 24.81 49.8203 24.4264 50.1058C24.0472 50.3913 23.7595 50.7898 23.5635 51.3011C23.3675 51.8125 23.2695 52.4091 23.2695 53.0909ZM35.3632 58.2173C34.7411 58.2173 34.1786 58.1023 33.6757 57.8722C33.1729 57.6378 32.7745 57.299 32.4804 56.8558C32.1907 56.4126 32.0458 55.8693 32.0458 55.2259C32.0458 54.6719 32.1523 54.2159 32.3654 53.858C32.5784 53.5 32.8661 53.2166 33.2283 53.0078C33.5905 52.799 33.9953 52.6413 34.4428 52.5348C34.8902 52.4283 35.3462 52.3473 35.8107 52.2919C36.3987 52.2237 36.876 52.1683 37.2425 52.1257C37.609 52.0788 37.8753 52.0043 38.0415 51.902C38.2077 51.7997 38.2908 51.6335 38.2908 51.4034V51.3587C38.2908 50.8004 38.1331 50.3679 37.8178 50.0611C37.5067 49.7543 37.0422 49.6009 36.4243 49.6009C35.7809 49.6009 35.2737 49.7436 34.903 50.0291C34.5365 50.3104 34.283 50.6236 34.1424 50.9688L32.3462 50.5597C32.5593 49.9631 32.8703 49.4815 33.2794 49.1151C33.6928 48.7443 34.1679 48.4759 34.7049 48.3097C35.2418 48.1392 35.8064 48.054 36.3987 48.054C36.7908 48.054 37.2063 48.1009 37.6452 48.1946C38.0884 48.2841 38.5017 48.4503 38.8853 48.6932C39.273 48.9361 39.5905 49.2834 39.8377 49.7351C40.0848 50.1825 40.2084 50.7642 40.2084 51.4801V58H38.3419V56.6577H38.2652C38.1416 56.9048 37.9563 57.1477 37.7091 57.3864C37.462 57.625 37.1445 57.8232 36.7567 57.9808C36.3689 58.1385 35.9044 58.2173 35.3632 58.2173ZM35.7787 56.6832C36.3071 56.6832 36.7588 56.5788 37.1338 56.37C37.5131 56.1612 37.8007 55.8885 37.9968 55.5518C38.197 55.2109 38.2972 54.8466 38.2972 54.4588V53.1932C38.229 53.2614 38.0969 53.3253 37.9009 53.3849C37.7091 53.4403 37.4897 53.4893 37.2425 53.532C36.9953 53.5703 36.7546 53.6065 36.5202 53.6406C36.2858 53.6705 36.0898 53.696 35.9321 53.7173C35.5614 53.7642 35.2226 53.843 34.9158 53.9538C34.6132 54.0646 34.3703 54.2244 34.1871 54.4332C34.0081 54.6378 33.9186 54.9105 33.9186 55.2514C33.9186 55.7244 34.0934 56.0824 34.4428 56.3253C34.7922 56.5639 35.2375 56.6832 35.7787 56.6832ZM44.6653 52.1705V58H42.754V48.1818H44.5886V49.7798H44.71C44.9359 49.2599 45.2896 48.8423 45.7711 48.527C46.2569 48.2116 46.8684 48.054 47.6056 48.054C48.2746 48.054 48.8606 48.1946 49.3634 48.4759C49.8663 48.7528 50.2562 49.1662 50.5332 49.7159C50.8101 50.2656 50.9486 50.9453 50.9486 51.755V58H49.0374V51.9851C49.0374 51.2734 48.8521 50.7173 48.4813 50.3168C48.1106 49.9119 47.6013 49.7095 46.9536 49.7095C46.5104 49.7095 46.1163 49.8054 45.7711 49.9972C45.4302 50.1889 45.1596 50.4702 44.9593 50.8409C44.7633 51.2074 44.6653 51.6506 44.6653 52.1705Z" fill="#406D59"/>
</svg>
