<svg width="212" height="68" viewBox="0 0 212 68" fill="none" xmlns="http://www.w3.org/2000/svg">
<rect x="0.5" y="0.5" width="211" height="67" rx="14.5" fill="#F4F4F4" fill-opacity="0.2" stroke="#F6EFC4"/>
<path d="M60.5568 33.2727C60.5568 35.1761 60.196 36.7955 59.4744 38.1307C58.7585 39.4659 57.7813 40.4858 56.5426 41.1903C55.3097 41.8892 53.9233 42.2386 52.3835 42.2386C50.8324 42.2386 49.4403 41.8864 48.2074 41.1818C46.9744 40.4773 46 39.4574 45.2841 38.1222C44.5682 36.7869 44.2102 35.1705 44.2102 33.2727C44.2102 31.3693 44.5682 29.75 45.2841 28.4148C46 27.0795 46.9744 26.0625 48.2074 25.3636C49.4403 24.6591 50.8324 24.3068 52.3835 24.3068C53.9233 24.3068 55.3097 24.6591 56.5426 25.3636C57.7813 26.0625 58.7585 27.0795 59.4744 28.4148C60.196 29.75 60.5568 31.3693 60.5568 33.2727ZM56.8153 33.2727C56.8153 32.0398 56.6307 31 56.2614 30.1534C55.8977 29.3068 55.3835 28.6648 54.7188 28.2273C54.054 27.7898 53.2756 27.571 52.3835 27.571C51.4915 27.571 50.7131 27.7898 50.0483 28.2273C49.3835 28.6648 48.8665 29.3068 48.4972 30.1534C48.1335 31 47.9517 32.0398 47.9517 33.2727C47.9517 34.5057 48.1335 35.5455 48.4972 36.392C48.8665 37.2386 49.3835 37.8807 50.0483 38.3182C50.7131 38.7557 51.4915 38.9744 52.3835 38.9744C53.2756 38.9744 54.054 38.7557 54.7188 38.3182C55.3835 37.8807 55.8977 37.2386 56.2614 36.392C56.6307 35.5455 56.8153 34.5057 56.8153 33.2727ZM63.2223 42V28.9091H66.7422V31.1932H66.8786C67.1172 30.3807 67.5178 29.767 68.0803 29.3523C68.6428 28.9318 69.2905 28.7216 70.0234 28.7216C70.2053 28.7216 70.4013 28.733 70.6115 28.7557C70.8217 28.7784 71.0064 28.8097 71.1655 28.8494V32.071C70.995 32.0199 70.7592 31.9744 70.4581 31.9347C70.157 31.8949 69.8814 31.875 69.6314 31.875C69.0973 31.875 68.62 31.9915 68.1996 32.2244C67.7848 32.4517 67.4553 32.7699 67.2109 33.179C66.9723 33.5881 66.853 34.0597 66.853 34.5938V42H63.2223ZM77.2571 42.2131C76.2628 42.2131 75.3622 41.9574 74.5554 41.446C73.7543 40.929 73.1179 40.1705 72.6463 39.1705C72.1804 38.1648 71.9474 36.9318 71.9474 35.4716C71.9474 33.9716 72.1889 32.7244 72.6719 31.7301C73.1548 30.7301 73.7969 29.983 74.598 29.4886C75.4048 28.9886 76.2884 28.7386 77.2486 28.7386C77.9815 28.7386 78.5923 28.8636 79.081 29.1136C79.5753 29.358 79.973 29.6648 80.2741 30.0341C80.581 30.3977 80.8139 30.7557 80.973 31.108H81.0838V24.5455H84.706V42H81.1264V39.9034H80.973C80.8026 40.267 80.5611 40.6278 80.2486 40.9858C79.9418 41.3381 79.5412 41.6307 79.0469 41.8636C78.5582 42.0966 77.9616 42.2131 77.2571 42.2131ZM78.4077 39.3239C78.9929 39.3239 79.4872 39.1648 79.8906 38.8466C80.2997 38.5227 80.6122 38.071 80.8281 37.4915C81.0497 36.9119 81.1605 36.233 81.1605 35.4545C81.1605 34.6761 81.0526 34 80.8366 33.4261C80.6207 32.8523 80.3082 32.4091 79.8991 32.0966C79.4901 31.7841 78.9929 31.6278 78.4077 31.6278C77.8111 31.6278 77.3082 31.7898 76.8991 32.1136C76.4901 32.4375 76.1804 32.8864 75.9702 33.4602C75.7599 34.0341 75.6548 34.6989 75.6548 35.4545C75.6548 36.2159 75.7599 36.8892 75.9702 37.4744C76.1861 38.054 76.4957 38.5085 76.8991 38.8381C77.3082 39.1619 77.8111 39.3239 78.4077 39.3239ZM93.657 42.2557C92.3104 42.2557 91.1513 41.983 90.1797 41.4375C89.2138 40.8864 88.4695 40.108 87.9467 39.1023C87.424 38.0909 87.1626 36.8949 87.1626 35.5142C87.1626 34.1676 87.424 32.9858 87.9467 31.9688C88.4695 30.9517 89.2053 30.1591 90.1541 29.5909C91.1087 29.0227 92.228 28.7386 93.5121 28.7386C94.3757 28.7386 95.1797 28.8778 95.924 29.1562C96.674 29.429 97.3274 29.8409 97.8842 30.392C98.4467 30.9432 98.8842 31.6364 99.1967 32.4716C99.5092 33.3011 99.6655 34.2727 99.6655 35.3864V36.3835H88.6115V34.1335H96.2479C96.2479 33.6108 96.1342 33.1477 95.907 32.7443C95.6797 32.3409 95.3643 32.0256 94.9609 31.7983C94.5632 31.5653 94.1001 31.4489 93.5717 31.4489C93.0206 31.4489 92.532 31.5767 92.1058 31.8324C91.6854 32.0824 91.3558 32.4205 91.1172 32.8466C90.8786 33.267 90.7564 33.7358 90.7507 34.2528V36.392C90.7507 37.0398 90.87 37.5994 91.1087 38.071C91.353 38.5426 91.6967 38.9062 92.1399 39.1619C92.5831 39.4176 93.1087 39.5455 93.7166 39.5455C94.12 39.5455 94.4893 39.4886 94.8246 39.375C95.1598 39.2614 95.4467 39.0909 95.6854 38.8636C95.924 38.6364 96.1058 38.358 96.2308 38.0284L99.5888 38.25C99.4183 39.0568 99.0689 39.7614 98.5405 40.3636C98.0178 40.9602 97.3416 41.4261 96.5121 41.7614C95.6882 42.0909 94.7365 42.2557 93.657 42.2557ZM102.035 42V28.9091H105.555V31.1932H105.691C105.93 30.3807 106.33 29.767 106.893 29.3523C107.455 28.9318 108.103 28.7216 108.836 28.7216C109.018 28.7216 109.214 28.733 109.424 28.7557C109.634 28.7784 109.819 28.8097 109.978 28.8494V32.071C109.808 32.0199 109.572 31.9744 109.271 31.9347C108.969 31.8949 108.694 31.875 108.444 31.875C107.91 31.875 107.433 31.9915 107.012 32.2244C106.597 32.4517 106.268 32.7699 106.023 33.179C105.785 33.5881 105.665 34.0597 105.665 34.5938V42H102.035ZM132.077 24.5455V42H128.89L121.296 31.0142H121.168V42H117.478V24.5455H120.717L128.251 35.5227H128.404V24.5455H132.077ZM140.973 42.2557C139.649 42.2557 138.504 41.9744 137.538 41.4119C136.578 40.8437 135.837 40.054 135.314 39.0426C134.791 38.0256 134.53 36.8466 134.53 35.5057C134.53 34.1534 134.791 32.9716 135.314 31.9602C135.837 30.9432 136.578 30.1534 137.538 29.5909C138.504 29.0227 139.649 28.7386 140.973 28.7386C142.297 28.7386 143.439 29.0227 144.399 29.5909C145.365 30.1534 146.109 30.9432 146.632 31.9602C147.155 32.9716 147.416 34.1534 147.416 35.5057C147.416 36.8466 147.155 38.0256 146.632 39.0426C146.109 40.054 145.365 40.8437 144.399 41.4119C143.439 41.9744 142.297 42.2557 140.973 42.2557ZM140.99 39.4432C141.592 39.4432 142.095 39.2727 142.499 38.9318C142.902 38.5852 143.206 38.1136 143.411 37.517C143.621 36.9205 143.726 36.2415 143.726 35.4801C143.726 34.7188 143.621 34.0398 143.411 33.4432C143.206 32.8466 142.902 32.375 142.499 32.0284C142.095 31.6818 141.592 31.5085 140.99 31.5085C140.382 31.5085 139.871 31.6818 139.456 32.0284C139.047 32.375 138.737 32.8466 138.527 33.4432C138.322 34.0398 138.22 34.7188 138.22 35.4801C138.22 36.2415 138.322 36.9205 138.527 37.517C138.737 38.1136 139.047 38.5852 139.456 38.9318C139.871 39.2727 140.382 39.4432 140.99 39.4432ZM152.031 42L148.469 28.9091H152.142L154.17 37.7045H154.29L156.403 28.9091H160.009L162.156 37.6534H162.267L164.261 28.9091H167.926L164.372 42H160.528L158.278 33.767H158.116L155.866 42H152.031Z" fill="white"/>
</svg>
