<svg width="73" height="16" viewBox="0 0 73 16" fill="none" xmlns="http://www.w3.org/2000/svg">
<path d="M0.594283 15V0.454545H6.33292C7.43614 0.454545 8.37601 0.665246 9.15252 1.08665C9.92904 1.50331 10.5209 2.08333 10.9281 2.8267C11.34 3.56534 11.546 4.41761 11.546 5.38352C11.546 6.34943 11.3377 7.2017 10.921 7.94034C10.5043 8.67898 9.90063 9.25426 9.10991 9.66619C8.32392 10.0781 7.37222 10.2841 6.25479 10.2841H2.59712V7.8196H5.75763C6.34949 7.8196 6.83718 7.7178 7.2207 7.5142C7.60896 7.30587 7.89779 7.01941 8.08718 6.65483C8.28131 6.28551 8.37837 5.86174 8.37837 5.38352C8.37837 4.90057 8.28131 4.47917 8.08718 4.11932C7.89779 3.75473 7.60896 3.47301 7.2207 3.27415C6.83245 3.07055 6.34002 2.96875 5.74343 2.96875H3.66957V15H0.594283ZM16.3045 15.206C15.6085 15.206 14.9882 15.0852 14.4437 14.8438C13.8992 14.5975 13.4683 14.2353 13.1511 13.7571C12.8386 13.2741 12.6824 12.6728 12.6824 11.9531C12.6824 11.3471 12.7936 10.8381 13.0162 10.4261C13.2387 10.0142 13.5417 9.68277 13.9252 9.43182C14.3088 9.18087 14.7444 8.99148 15.2321 8.86364C15.7245 8.7358 16.2406 8.64583 16.7804 8.59375C17.4148 8.52746 17.9262 8.46591 18.3145 8.40909C18.7027 8.34754 18.9844 8.25758 19.1596 8.1392C19.3348 8.02083 19.4224 7.84564 19.4224 7.61364V7.57102C19.4224 7.12121 19.2804 6.7732 18.9963 6.52699C18.7169 6.28078 18.3192 6.15767 17.8031 6.15767C17.2586 6.15767 16.8253 6.27841 16.5034 6.51989C16.1814 6.75663 15.9683 7.05492 15.8642 7.41477L13.0659 7.1875C13.2079 6.52462 13.4873 5.9517 13.9039 5.46875C14.3206 4.98106 14.858 4.60701 15.5162 4.34659C16.179 4.08144 16.9461 3.94886 17.8173 3.94886C18.4234 3.94886 19.0034 4.01989 19.5574 4.16193C20.1161 4.30398 20.6109 4.52415 21.0417 4.82244C21.4773 5.12074 21.8206 5.50426 22.0716 5.97301C22.3225 6.43703 22.448 6.99337 22.448 7.64205V15H19.5787V13.4872H19.4934C19.3182 13.8281 19.0839 14.1288 18.7903 14.3892C18.4967 14.6449 18.144 14.8461 17.7321 14.9929C17.3201 15.1349 16.8443 15.206 16.3045 15.206ZM17.171 13.1179C17.6161 13.1179 18.0091 13.0303 18.35 12.8551C18.6909 12.6752 18.9584 12.4337 19.1525 12.1307C19.3467 11.8277 19.4437 11.4844 19.4437 11.1009V9.94318C19.349 10.0047 19.2188 10.0616 19.0531 10.1136C18.8921 10.161 18.7098 10.206 18.5062 10.2486C18.3026 10.2865 18.099 10.322 17.8954 10.3551C17.6918 10.3835 17.5072 10.4096 17.3414 10.4332C16.9863 10.4853 16.6762 10.5682 16.411 10.6818C16.1459 10.7955 15.9399 10.9493 15.7931 11.1435C15.6464 11.3329 15.573 11.5696 15.573 11.8537C15.573 12.2656 15.7221 12.5805 16.0204 12.7983C16.3234 13.0114 16.707 13.1179 17.171 13.1179ZM24.7953 15V4.09091H27.7285V5.99432H27.8422C28.041 5.31723 28.3748 4.80587 28.8436 4.46023C29.3123 4.10985 29.8521 3.93466 30.4629 3.93466C30.6144 3.93466 30.7778 3.94413 30.9529 3.96307C31.1281 3.98201 31.282 4.00805 31.4146 4.04119V6.72585C31.2726 6.68324 31.0761 6.64536 30.8251 6.61222C30.5742 6.57907 30.3445 6.5625 30.1362 6.5625C29.6911 6.5625 29.2934 6.65956 28.943 6.85369C28.5974 7.04309 28.3227 7.30824 28.1191 7.64915C27.9203 7.99006 27.8208 8.38305 27.8208 8.82812V15H24.7953ZM39.3283 4.09091V6.36364H32.7587V4.09091H39.3283ZM34.2502 1.47727H37.2757V11.6477C37.2757 11.9271 37.3184 12.1449 37.4036 12.3011C37.4888 12.4527 37.6072 12.5592 37.7587 12.6207C37.915 12.6823 38.0949 12.7131 38.2985 12.7131C38.4405 12.7131 38.5826 12.7012 38.7246 12.6776C38.8667 12.6491 38.9756 12.6278 39.0513 12.6136L39.5272 14.8651C39.3757 14.9124 39.1626 14.9669 38.888 15.0284C38.6133 15.0947 38.2795 15.1349 37.8865 15.1491C37.1574 15.1776 36.5182 15.0805 35.9689 14.858C35.4244 14.6354 35.0007 14.2898 34.6976 13.821C34.3946 13.3523 34.2454 12.7604 34.2502 12.0455V1.47727ZM44.3248 8.69318V15H41.2992V4.09091H44.1827V6.01562H44.3105C44.552 5.38116 44.9569 4.87926 45.525 4.50994C46.0932 4.13589 46.7821 3.94886 47.5918 3.94886C48.3494 3.94886 49.0099 4.11458 49.5733 4.44602C50.1368 4.77746 50.5748 5.25095 50.8873 5.86648C51.1998 6.47727 51.356 7.20644 51.356 8.05398V15H48.3304V8.59375C48.3352 7.92614 48.1647 7.4053 47.8191 7.03125C47.4734 6.65246 46.9976 6.46307 46.3915 6.46307C45.9843 6.46307 45.6245 6.55066 45.312 6.72585C45.0042 6.90104 44.7627 7.15672 44.5875 7.4929C44.4171 7.82434 44.3295 8.22443 44.3248 8.69318ZM58.7122 15.2131C57.59 15.2131 56.6241 14.9858 55.8145 14.5312C55.0095 14.072 54.3893 13.4233 53.9537 12.5852C53.5181 11.7424 53.3002 10.7457 53.3002 9.59517C53.3002 8.47301 53.5181 7.48816 53.9537 6.64062C54.3893 5.79309 55.0024 5.13258 55.7931 4.65909C56.5886 4.18561 57.5214 3.94886 58.5914 3.94886C59.3111 3.94886 59.9811 4.06487 60.6014 4.29688C61.2264 4.52415 61.7709 4.86742 62.2349 5.3267C62.7037 5.78598 63.0682 6.36364 63.3287 7.05966C63.5891 7.75095 63.7193 8.56061 63.7193 9.48864V10.3196H54.5076V8.4446H60.8713C60.8713 8.009 60.7766 7.62311 60.5872 7.28693C60.3978 6.95076 60.135 6.68797 59.7988 6.49858C59.4674 6.30445 59.0815 6.20739 58.6412 6.20739C58.1819 6.20739 57.7747 6.31392 57.4196 6.52699C57.0692 6.73532 56.7946 7.01705 56.5957 7.37216C56.3968 7.72254 56.295 8.11316 56.2903 8.54403V10.3267C56.2903 10.8665 56.3897 11.3329 56.5886 11.7259C56.7922 12.1188 57.0787 12.4219 57.448 12.6349C57.8173 12.848 58.2553 12.9545 58.7619 12.9545C59.0981 12.9545 59.4058 12.9072 59.6852 12.8125C59.9645 12.7178 60.2037 12.5758 60.4025 12.3864C60.6014 12.197 60.7529 11.965 60.8571 11.6903L63.6554 11.875C63.5133 12.5473 63.2221 13.1345 62.7818 13.6364C62.3462 14.1335 61.7827 14.5218 61.0914 14.8011C60.4049 15.0758 59.6118 15.2131 58.7122 15.2131ZM65.6937 15V4.09091H68.627V5.99432H68.7406C68.9395 5.31723 69.2733 4.80587 69.742 4.46023C70.2108 4.10985 70.7505 3.93466 71.3613 3.93466C71.5128 3.93466 71.6762 3.94413 71.8514 3.96307C72.0266 3.98201 72.1805 4.00805 72.313 4.04119V6.72585C72.171 6.68324 71.9745 6.64536 71.7235 6.61222C71.4726 6.57907 71.243 6.5625 71.0346 6.5625C70.5895 6.5625 70.1918 6.65956 69.8414 6.85369C69.4958 7.04309 69.2212 7.30824 69.0176 7.64915C68.8187 7.99006 68.7193 8.38305 68.7193 8.82812V15H65.6937Z" fill="#406D59"/>
</svg>
