<svg width="281" height="77" viewBox="0 0 281 77" fill="none" xmlns="http://www.w3.org/2000/svg">
<rect x="0.5" y="0.5" width="280" height="76" rx="19.5" stroke="black"/>
<path d="M45.8963 48V26.1818H54.5043C56.152 26.1818 57.5582 26.4766 58.723 27.0661C59.8949 27.6484 60.7862 28.4759 61.397 29.5483C62.0149 30.6136 62.3239 31.8672 62.3239 33.3089C62.3239 34.7578 62.0114 36.0043 61.3864 37.0483C60.7614 38.0852 59.8558 38.8807 58.6697 39.4347C57.4908 39.9886 56.0632 40.2656 54.3871 40.2656H48.6236V36.5582H53.6413C54.522 36.5582 55.2536 36.4375 55.8359 36.196C56.4183 35.9545 56.8516 35.5923 57.1357 35.1094C57.4268 34.6264 57.5724 34.0263 57.5724 33.3089C57.5724 32.5845 57.4268 31.9737 57.1357 31.4766C56.8516 30.9794 56.4148 30.603 55.8253 30.3473C55.2429 30.0845 54.5078 29.9531 53.62 29.9531H50.5092V48H45.8963ZM57.679 38.071L63.1016 48H58.0092L52.7038 38.071H57.679ZM72.6923 48.3196C71.0091 48.3196 69.5602 47.9787 68.3457 47.2969C67.1383 46.608 66.2079 45.6349 65.5545 44.3778C64.9011 43.1136 64.5744 41.6186 64.5744 39.8928C64.5744 38.2095 64.9011 36.7322 65.5545 35.4609C66.2079 34.1896 67.1277 33.1989 68.3137 32.4886C69.5069 31.7784 70.9061 31.4233 72.5112 31.4233C73.5907 31.4233 74.5957 31.5973 75.5261 31.9453C76.4636 32.2862 77.2804 32.8011 77.9764 33.4901C78.6795 34.179 79.2264 35.0455 79.617 36.0895C80.0076 37.1264 80.2029 38.3409 80.2029 39.733V40.9794H66.3855V38.1669H75.9309C75.9309 37.5135 75.7889 36.9347 75.5048 36.4304C75.2207 35.9261 74.8265 35.532 74.3223 35.2479C73.8251 34.9567 73.2463 34.8111 72.5858 34.8111C71.8968 34.8111 71.286 34.9709 70.7534 35.2905C70.2278 35.603 69.8159 36.0256 69.5176 36.5582C69.2193 37.0838 69.0666 37.6697 69.0595 38.3161V40.9901C69.0595 41.7997 69.2086 42.4993 69.5069 43.0888C69.8123 43.6783 70.242 44.1328 70.796 44.4524C71.35 44.772 72.0069 44.9318 72.7669 44.9318C73.2711 44.9318 73.7328 44.8608 74.1518 44.7188C74.5708 44.5767 74.9295 44.3636 75.2278 44.0795C75.5261 43.7955 75.7534 43.4474 75.9096 43.0355L80.1071 43.3125C79.894 44.321 79.4572 45.2017 78.7967 45.9545C78.1433 46.7003 77.2981 47.2827 76.2612 47.7017C75.2314 48.1136 74.0417 48.3196 72.6923 48.3196ZM90.5368 54.4773C89.0666 54.4773 87.8059 54.2749 86.7548 53.87C85.7108 53.4723 84.8798 52.929 84.2619 52.2401C83.644 51.5511 83.2427 50.777 83.0581 49.9176L87.2555 49.353C87.3833 49.6797 87.5858 49.9851 87.8627 50.2692C88.1397 50.5533 88.5055 50.7805 88.9601 50.951C89.4217 51.1286 89.9828 51.2173 90.6433 51.2173C91.6305 51.2173 92.4437 50.9759 93.0829 50.4929C93.7292 50.017 94.0524 49.218 94.0524 48.0959V45.1023H93.8606C93.6618 45.5568 93.3635 45.9865 92.9657 46.3913C92.568 46.7962 92.0566 47.1264 91.4316 47.3821C90.8066 47.6378 90.0609 47.7656 89.1944 47.7656C87.9657 47.7656 86.8471 47.4815 85.8386 46.9134C84.8372 46.3381 84.0382 45.4609 83.4416 44.282C82.8521 43.0959 82.5574 41.5973 82.5574 39.7862C82.5574 37.9325 82.8592 36.3842 83.4629 35.1413C84.0666 33.8984 84.8691 32.968 85.8706 32.3501C86.8791 31.7322 87.9835 31.4233 89.1838 31.4233C90.1 31.4233 90.867 31.5795 91.4849 31.892C92.1028 32.1974 92.6 32.581 92.9764 33.0426C93.3599 33.4972 93.6547 33.9446 93.8606 34.3849H94.0311V31.6364H98.5375V48.1598C98.5375 49.5518 98.1966 50.7166 97.5147 51.6541C96.8329 52.5916 95.8883 53.2947 94.6809 53.7635C93.4806 54.2393 92.0993 54.4773 90.5368 54.4773ZM90.6326 44.3565C91.3642 44.3565 91.9821 44.1754 92.4863 43.8132C92.9977 43.4439 93.3883 42.9183 93.6582 42.2365C93.9352 41.5476 94.0737 40.7237 94.0737 39.7649C94.0737 38.8061 93.9387 37.9751 93.6689 37.272C93.399 36.5618 93.0083 36.0114 92.497 35.6207C91.9856 35.2301 91.3642 35.0348 90.6326 35.0348C89.8869 35.0348 89.2583 35.2372 88.747 35.642C88.2356 36.0398 87.8485 36.5937 87.5858 37.304C87.323 38.0142 87.1916 38.8345 87.1916 39.7649C87.1916 40.7095 87.323 41.5263 87.5858 42.2152C87.8556 42.897 88.2427 43.4261 88.747 43.8026C89.2583 44.1719 89.8869 44.3565 90.6326 44.3565ZM102.149 48V31.6364H106.687V48H102.149ZM104.429 29.527C103.754 29.527 103.175 29.3033 102.692 28.8558C102.216 28.4013 101.979 27.858 101.979 27.2259C101.979 26.6009 102.216 26.0646 102.692 25.6172C103.175 25.1626 103.754 24.9354 104.429 24.9354C105.104 24.9354 105.679 25.1626 106.155 25.6172C106.638 26.0646 106.879 26.6009 106.879 27.2259C106.879 27.858 106.638 28.4013 106.155 28.8558C105.679 29.3033 105.104 29.527 104.429 29.527ZM123.938 36.3026L119.783 36.5582C119.712 36.2031 119.559 35.8835 119.325 35.5994C119.091 35.3082 118.782 35.0774 118.398 34.907C118.022 34.7294 117.571 34.6406 117.045 34.6406C116.342 34.6406 115.749 34.7898 115.266 35.0881C114.783 35.3793 114.542 35.7699 114.542 36.2599C114.542 36.6506 114.698 36.9808 115.01 37.2507C115.323 37.5206 115.859 37.7372 116.619 37.9006L119.581 38.4972C121.172 38.8239 122.358 39.3494 123.139 40.0739C123.92 40.7983 124.311 41.75 124.311 42.929C124.311 44.0014 123.995 44.9425 123.363 45.7521C122.738 46.5618 121.878 47.1939 120.784 47.6484C119.698 48.0959 118.444 48.3196 117.024 48.3196C114.858 48.3196 113.132 47.8686 111.846 46.9666C110.568 46.0575 109.819 44.8217 109.598 43.2592L114.062 43.0249C114.197 43.6854 114.524 44.1896 115.042 44.5376C115.561 44.8786 116.225 45.049 117.034 45.049C117.83 45.049 118.469 44.8963 118.952 44.5909C119.442 44.2784 119.691 43.8771 119.698 43.3871C119.691 42.9751 119.517 42.6378 119.176 42.375C118.835 42.1051 118.309 41.8991 117.599 41.7571L114.765 41.1925C113.167 40.8729 111.978 40.3189 111.196 39.5305C110.422 38.7422 110.035 37.7372 110.035 36.5156C110.035 35.4645 110.319 34.5589 110.887 33.799C111.463 33.0391 112.269 32.4531 113.306 32.0412C114.35 31.6293 115.571 31.4233 116.971 31.4233C119.037 31.4233 120.664 31.8601 121.85 32.7337C123.043 33.6072 123.739 34.7969 123.938 36.3026ZM135.872 31.6364V35.0455H126.018V31.6364H135.872ZM128.255 27.7159H132.794V42.9716C132.794 43.3906 132.857 43.7173 132.985 43.9517C133.113 44.179 133.291 44.3388 133.518 44.4311C133.752 44.5234 134.022 44.5696 134.328 44.5696C134.541 44.5696 134.754 44.5518 134.967 44.5163C135.18 44.4737 135.343 44.4418 135.457 44.4205L136.171 47.7976C135.943 47.8686 135.624 47.9503 135.212 48.0426C134.8 48.142 134.299 48.2024 133.71 48.2237C132.616 48.2663 131.657 48.1207 130.833 47.7869C130.017 47.4531 129.381 46.9347 128.926 46.2315C128.472 45.5284 128.248 44.6406 128.255 43.5682V27.7159ZM146.11 48.3196C144.427 48.3196 142.978 47.9787 141.764 47.2969C140.556 46.608 139.626 45.6349 138.972 44.3778C138.319 43.1136 137.992 41.6186 137.992 39.8928C137.992 38.2095 138.319 36.7322 138.972 35.4609C139.626 34.1896 140.546 33.1989 141.732 32.4886C142.925 31.7784 144.324 31.4233 145.929 31.4233C147.009 31.4233 148.014 31.5973 148.944 31.9453C149.882 32.2862 150.698 32.8011 151.394 33.4901C152.097 34.179 152.644 35.0455 153.035 36.0895C153.426 37.1264 153.621 38.3409 153.621 39.733V40.9794H139.803V38.1669H149.349C149.349 37.5135 149.207 36.9347 148.923 36.4304C148.639 35.9261 148.244 35.532 147.74 35.2479C147.243 34.9567 146.664 34.8111 146.004 34.8111C145.315 34.8111 144.704 34.9709 144.171 35.2905C143.646 35.603 143.234 36.0256 142.936 36.5582C142.637 37.0838 142.485 37.6697 142.477 38.3161V40.9901C142.477 41.7997 142.627 42.4993 142.925 43.0888C143.23 43.6783 143.66 44.1328 144.214 44.4524C144.768 44.772 145.425 44.9318 146.185 44.9318C146.689 44.9318 147.151 44.8608 147.57 44.7188C147.989 44.5767 148.347 44.3636 148.646 44.0795C148.944 43.7955 149.171 43.4474 149.328 43.0355L153.525 43.3125C153.312 44.321 152.875 45.2017 152.215 45.9545C151.561 46.7003 150.716 47.2827 149.679 47.7017C148.649 48.1136 147.46 48.3196 146.11 48.3196ZM156.583 48V31.6364H160.982V34.4915H161.153C161.451 33.4759 161.952 32.7088 162.655 32.1903C163.358 31.6648 164.168 31.402 165.084 31.402C165.311 31.402 165.556 31.4162 165.819 31.4446C166.082 31.473 166.313 31.5121 166.512 31.5618V35.5888C166.298 35.5249 166.004 35.468 165.627 35.4183C165.251 35.3686 164.906 35.3438 164.594 35.3438C163.926 35.3438 163.33 35.4893 162.804 35.7805C162.286 36.0646 161.874 36.4624 161.568 36.9737C161.27 37.4851 161.121 38.0746 161.121 38.7422V48H156.583ZM180.34 38.5398V48H175.801V31.6364H180.127V34.5234H180.318C180.681 33.5717 181.288 32.8189 182.14 32.2649C182.992 31.7038 184.026 31.4233 185.24 31.4233C186.377 31.4233 187.367 31.6719 188.213 32.169C189.058 32.6662 189.715 33.3764 190.183 34.2997C190.652 35.2159 190.887 36.3097 190.887 37.581V48H186.348V38.3906C186.355 37.3892 186.1 36.608 185.581 36.0469C185.063 35.4787 184.349 35.1946 183.44 35.1946C182.829 35.1946 182.289 35.326 181.82 35.5888C181.359 35.8516 180.997 36.2351 180.734 36.7393C180.478 37.2365 180.347 37.8366 180.34 38.5398ZM201.857 48.3196C200.202 48.3196 198.771 47.968 197.564 47.2649C196.363 46.5547 195.436 45.5675 194.783 44.3033C194.13 43.032 193.803 41.5582 193.803 39.8821C193.803 38.1918 194.13 36.7145 194.783 35.4503C195.436 34.179 196.363 33.1918 197.564 32.4886C198.771 31.7784 200.202 31.4233 201.857 31.4233C203.512 31.4233 204.939 31.7784 206.14 32.4886C207.347 33.1918 208.277 34.179 208.931 35.4503C209.584 36.7145 209.911 38.1918 209.911 39.8821C209.911 41.5582 209.584 43.032 208.931 44.3033C208.277 45.5675 207.347 46.5547 206.14 47.2649C204.939 47.968 203.512 48.3196 201.857 48.3196ZM201.878 44.804C202.631 44.804 203.26 44.5909 203.764 44.1648C204.268 43.7315 204.648 43.142 204.904 42.3963C205.167 41.6506 205.298 40.8018 205.298 39.8501C205.298 38.8984 205.167 38.0497 204.904 37.304C204.648 36.5582 204.268 35.9687 203.764 35.5355C203.26 35.1023 202.631 34.8857 201.878 34.8857C201.118 34.8857 200.479 35.1023 199.961 35.5355C199.449 35.9687 199.062 36.5582 198.799 37.304C198.544 38.0497 198.416 38.8984 198.416 39.8501C198.416 40.8018 198.544 41.6506 198.799 42.3963C199.062 43.142 199.449 43.7315 199.961 44.1648C200.479 44.5909 201.118 44.804 201.878 44.804ZM215.68 48L211.227 31.6364H215.818L218.354 42.6307H218.503L221.145 31.6364H225.651L228.336 42.5668H228.474L230.967 31.6364H235.548L231.106 48H226.301L223.489 37.7088H223.286L220.474 48H215.68Z" fill="black"/>
</svg>
