<svg width="153" height="32" viewBox="0 0 153 32" fill="none" xmlns="http://www.w3.org/2000/svg">
<rect x="1.46753" y="1.23267" width="150.762" height="30.1385" rx="15.0692" stroke="#406D59"/>
<path d="M14.0972 21.0524H11.4609L15.4779 9.41603H18.6484L22.6597 21.0524H20.0234L17.1086 12.0751H17.0177L14.0972 21.0524ZM13.9325 16.4785H20.1597V18.399H13.9325V16.4785ZM24.0603 21.0524V9.41603H26.4808V13.791H26.5546C26.6607 13.5562 26.8141 13.3176 27.0149 13.0751C27.2194 12.8289 27.4845 12.6244 27.8103 12.4615C28.1399 12.2948 28.5489 12.2115 29.0376 12.2115C29.6739 12.2115 30.2611 12.3782 30.7989 12.7115C31.3368 13.041 31.7667 13.5391 32.0887 14.2058C32.4107 14.8687 32.5717 15.7001 32.5717 16.7001C32.5717 17.6736 32.4145 18.4956 32.1001 19.166C31.7895 19.8327 31.3652 20.3384 30.8274 20.6831C30.2933 21.024 29.6948 21.1944 29.0319 21.1944C28.5622 21.1944 28.1626 21.1168 27.833 20.9615C27.5073 20.8062 27.2402 20.6111 27.0319 20.3763C26.8236 20.1376 26.6645 19.8971 26.5546 19.6547H26.4467V21.0524H24.0603ZM26.4296 16.6888C26.4296 17.2077 26.5016 17.6604 26.6455 18.0467C26.7895 18.4331 26.9978 18.7342 27.2705 18.9501C27.5433 19.1622 27.8747 19.2683 28.2649 19.2683C28.6588 19.2683 28.9921 19.1604 29.2649 18.9444C29.5376 18.7247 29.744 18.4217 29.8842 18.0354C30.0281 17.6452 30.1001 17.1963 30.1001 16.6888C30.1001 16.185 30.03 15.7418 29.8899 15.3592C29.7497 14.9766 29.5433 14.6774 29.2705 14.4615C28.9978 14.2456 28.6626 14.1376 28.2649 14.1376C27.8709 14.1376 27.5376 14.2418 27.2649 14.4501C26.9959 14.6585 26.7895 14.9539 26.6455 15.3365C26.5016 15.7191 26.4296 16.1698 26.4296 16.6888ZM38.1299 21.2229C37.2473 21.2229 36.4841 21.0354 35.8401 20.6604C35.2 20.2816 34.7057 19.7551 34.3572 19.0808C34.0087 18.4028 33.8345 17.6168 33.8345 16.7229C33.8345 15.8213 34.0087 15.0335 34.3572 14.3592C34.7057 13.6812 35.2 13.1547 35.8401 12.7797C36.4841 12.4009 37.2473 12.2115 38.1299 12.2115C39.0125 12.2115 39.7738 12.4009 40.414 12.7797C41.0579 13.1547 41.5542 13.6812 41.9026 14.3592C42.2511 15.0335 42.4254 15.8213 42.4254 16.7229C42.4254 17.6168 42.2511 18.4028 41.9026 19.0808C41.5542 19.7551 41.0579 20.2816 40.414 20.6604C39.7738 21.0354 39.0125 21.2229 38.1299 21.2229ZM38.1413 19.3479C38.5428 19.3479 38.878 19.2342 39.147 19.0069C39.4159 18.7759 39.6185 18.4615 39.7549 18.0638C39.8951 17.666 39.9651 17.2134 39.9651 16.7058C39.9651 16.1982 39.8951 15.7456 39.7549 15.3479C39.6185 14.9501 39.4159 14.6357 39.147 14.4047C38.878 14.1736 38.5428 14.0581 38.1413 14.0581C37.736 14.0581 37.3951 14.1736 37.1185 14.4047C36.8458 14.6357 36.6394 14.9501 36.4992 15.3479C36.3629 15.7456 36.2947 16.1982 36.2947 16.7058C36.2947 17.2134 36.3629 17.666 36.4992 18.0638C36.6394 18.4615 36.8458 18.7759 37.1185 19.0069C37.3951 19.2342 37.736 19.3479 38.1413 19.3479ZM49.5958 17.3365V12.3251H52.0163V21.0524H49.6924V19.4672H49.6015C49.4045 19.9785 49.0769 20.3895 48.6185 20.7001C48.164 21.0107 47.6091 21.166 46.9538 21.166C46.3704 21.166 45.8572 21.0335 45.414 20.7683C44.9708 20.5032 44.6242 20.1263 44.3742 19.6376C44.128 19.149 44.003 18.5638 43.9992 17.8819V12.3251H46.4197V17.4501C46.4235 17.9653 46.5617 18.3725 46.8345 18.6717C47.1072 18.971 47.4727 19.1206 47.931 19.1206C48.2227 19.1206 48.4954 19.0543 48.7492 18.9217C49.003 18.7854 49.2076 18.5846 49.3629 18.3194C49.522 18.0543 49.5996 17.7266 49.5958 17.3365ZM58.5944 12.3251V14.1433H53.3387V12.3251H58.5944ZM54.5319 10.2342H56.9524V18.3706C56.9524 18.5941 56.9864 18.7683 57.0546 18.8933C57.1228 19.0145 57.2175 19.0997 57.3387 19.149C57.4637 19.1982 57.6077 19.2229 57.7705 19.2229C57.8842 19.2229 57.9978 19.2134 58.1114 19.1944C58.2251 19.1717 58.3122 19.1547 58.3728 19.1433L58.7535 20.9444C58.6323 20.9823 58.4618 21.0259 58.2421 21.0751C58.0224 21.1282 57.7554 21.1604 57.441 21.1717C56.8577 21.1944 56.3463 21.1168 55.9069 20.9388C55.4713 20.7607 55.1323 20.4842 54.8899 20.1092C54.6474 19.7342 54.5281 19.2607 54.5319 18.6888V10.2342ZM64.3174 21.0524V9.41603H71.2947V10.666H65.7265V14.5979H70.772V15.8479H65.7265V21.0524H64.3174ZM76.5447 21.2342C75.7038 21.2342 74.9784 21.0486 74.3685 20.6774C73.7625 20.3024 73.2947 19.7797 72.9651 19.1092C72.6394 18.435 72.4765 17.6509 72.4765 16.7569C72.4765 15.863 72.6394 15.0751 72.9651 14.3933C73.2947 13.7077 73.753 13.1736 74.3401 12.791C74.931 12.4047 75.6204 12.2115 76.4083 12.2115C76.8629 12.2115 77.3117 12.2872 77.7549 12.4388C78.1981 12.5903 78.6015 12.8365 78.9651 13.1774C79.3288 13.5145 79.6185 13.9615 79.8345 14.5183C80.0504 15.0751 80.1583 15.7607 80.1583 16.5751V17.1433H73.431V15.9842H78.7947C78.7947 15.4918 78.6962 15.0524 78.4992 14.666C78.306 14.2797 78.0295 13.9747 77.6697 13.7513C77.3136 13.5278 76.8932 13.416 76.4083 13.416C75.8742 13.416 75.4121 13.5486 75.022 13.8138C74.6356 14.0751 74.3382 14.416 74.1299 14.8365C73.9216 15.2569 73.8174 15.7077 73.8174 16.1888V16.9615C73.8174 17.6206 73.931 18.1793 74.1583 18.6376C74.3894 19.0922 74.7095 19.4388 75.1185 19.6774C75.5276 19.9122 76.003 20.0297 76.5447 20.0297C76.897 20.0297 77.2151 19.9804 77.4992 19.8819C77.7871 19.7797 78.0352 19.6282 78.2435 19.4274C78.4519 19.2229 78.6129 18.9691 78.7265 18.666L80.022 19.0297C79.8856 19.4691 79.6564 19.8554 79.3345 20.1888C79.0125 20.5183 78.6148 20.7759 78.1413 20.9615C77.6678 21.1433 77.1356 21.2342 76.5447 21.2342ZM84.7663 21.2569C84.2132 21.2569 83.7113 21.1528 83.2606 20.9444C82.8098 20.7323 82.4519 20.4274 82.1867 20.0297C81.9216 19.6282 81.789 19.1433 81.789 18.5751C81.789 18.0751 81.8875 17.6698 82.0845 17.3592C82.2814 17.0448 82.5447 16.7986 82.8742 16.6206C83.2038 16.4425 83.5674 16.31 83.9651 16.2229C84.3667 16.1319 84.7701 16.06 85.1754 16.0069C85.7057 15.9388 86.1356 15.8876 86.4651 15.8535C86.7985 15.8157 87.0409 15.7532 87.1924 15.666C87.3477 15.5789 87.4254 15.4274 87.4254 15.2115V15.166C87.4254 14.6054 87.272 14.1698 86.9651 13.8592C86.6621 13.5486 86.2019 13.3933 85.5845 13.3933C84.9443 13.3933 84.4424 13.5335 84.0788 13.8138C83.7151 14.0941 83.4595 14.3933 83.3117 14.7115L82.039 14.2569C82.2663 13.7266 82.5693 13.3138 82.9481 13.0183C83.3307 12.7191 83.7473 12.5107 84.1981 12.3933C84.6526 12.2721 85.0996 12.2115 85.539 12.2115C85.8193 12.2115 86.1413 12.2456 86.5049 12.3138C86.8723 12.3782 87.2265 12.5126 87.5674 12.7172C87.9121 12.9217 88.1981 13.2304 88.4254 13.6433C88.6526 14.0562 88.7663 14.6092 88.7663 15.3024V21.0524H87.4254V19.8706H87.3572C87.2663 20.06 87.1148 20.2626 86.9026 20.4785C86.6905 20.6944 86.4083 20.8782 86.056 21.0297C85.7038 21.1812 85.2738 21.2569 84.7663 21.2569ZM84.9708 20.0524C85.5011 20.0524 85.9481 19.9482 86.3117 19.7399C86.6792 19.5316 86.9557 19.2626 87.1413 18.9331C87.3307 18.6035 87.4254 18.2569 87.4254 17.8933V16.666C87.3685 16.7342 87.2435 16.7967 87.0504 16.8535C86.861 16.9066 86.6413 16.9539 86.3913 16.9956C86.1451 17.0335 85.9045 17.0676 85.6697 17.0979C85.4386 17.1244 85.2511 17.1471 85.1072 17.166C84.7587 17.2115 84.4329 17.2854 84.1299 17.3876C83.8307 17.4861 83.5882 17.6357 83.4026 17.8365C83.2208 18.0335 83.1299 18.3024 83.1299 18.6433C83.1299 19.1092 83.3023 19.4615 83.647 19.7001C83.9954 19.935 84.4367 20.0524 84.9708 20.0524ZM97.3955 14.2797L96.191 14.6206C96.1152 14.4198 96.0035 14.2247 95.8558 14.0354C95.7118 13.8422 95.5149 13.6831 95.2649 13.5581C95.0149 13.4331 94.6948 13.3706 94.3046 13.3706C93.7705 13.3706 93.3255 13.4937 92.9694 13.7399C92.6171 13.9823 92.441 14.291 92.441 14.666C92.441 14.9994 92.5622 15.2626 92.8046 15.4558C93.047 15.649 93.4258 15.81 93.941 15.9388L95.2364 16.2569C96.0167 16.4463 96.5982 16.7361 96.9808 17.1263C97.3633 17.5126 97.5546 18.0107 97.5546 18.6206C97.5546 19.1206 97.4107 19.5676 97.1228 19.9615C96.8387 20.3554 96.441 20.666 95.9296 20.8933C95.4183 21.1206 94.8236 21.2342 94.1455 21.2342C93.2554 21.2342 92.5186 21.041 91.9353 20.6547C91.352 20.2683 90.9827 19.7039 90.8274 18.9615L92.1001 18.6433C92.2213 19.113 92.4505 19.4653 92.7876 19.7001C93.1285 19.935 93.5736 20.0524 94.1228 20.0524C94.7478 20.0524 95.244 19.9198 95.6114 19.6547C95.9827 19.3857 96.1683 19.0638 96.1683 18.6888C96.1683 18.3857 96.0622 18.1319 95.8501 17.9274C95.638 17.7191 95.3122 17.5638 94.8728 17.4615L93.4183 17.1206C92.619 16.9312 92.0319 16.6376 91.6569 16.2399C91.2857 15.8384 91.1001 15.3365 91.1001 14.7342C91.1001 14.2418 91.2383 13.8062 91.5149 13.4274C91.7952 13.0486 92.1758 12.7513 92.6569 12.5354C93.1417 12.3194 93.691 12.2115 94.3046 12.2115C95.1683 12.2115 95.8463 12.4009 96.3387 12.7797C96.8349 13.1585 97.1872 13.6585 97.3955 14.2797ZM103.369 12.3251V13.4615H98.8458V12.3251H103.369ZM100.164 10.2342H101.505V18.5524C101.505 18.9312 101.56 19.2153 101.67 19.4047C101.783 19.5903 101.927 19.7153 102.101 19.7797C102.28 19.8403 102.467 19.8706 102.664 19.8706C102.812 19.8706 102.933 19.863 103.028 19.8479C103.122 19.8289 103.198 19.8138 103.255 19.8024L103.528 21.0069C103.437 21.041 103.31 21.0751 103.147 21.1092C102.984 21.1471 102.778 21.166 102.528 21.166C102.149 21.166 101.778 21.0846 101.414 20.9217C101.054 20.7588 100.755 20.5107 100.516 20.1774C100.281 19.8441 100.164 19.4236 100.164 18.916V10.2342ZM105.17 21.0524V9.41603H113.011V11.4444H107.63V14.2172H112.607V16.2456H107.63V19.024H113.033V21.0524H105.17ZM117.41 21.2172C116.853 21.2172 116.357 21.1206 115.921 20.9274C115.485 20.7304 115.141 20.4407 114.887 20.0581C114.637 19.6717 114.512 19.1907 114.512 18.6149C114.512 18.1301 114.601 17.7229 114.779 17.3933C114.957 17.0638 115.2 16.7986 115.506 16.5979C115.813 16.3971 116.162 16.2456 116.552 16.1433C116.946 16.041 117.359 15.9691 117.79 15.9274C118.298 15.8744 118.707 15.8251 119.018 15.7797C119.328 15.7304 119.554 15.6585 119.694 15.5638C119.834 15.4691 119.904 15.3289 119.904 15.1433V15.1092C119.904 14.7494 119.79 14.471 119.563 14.274C119.34 14.077 119.021 13.9785 118.609 13.9785C118.173 13.9785 117.826 14.0751 117.569 14.2683C117.311 14.4577 117.141 14.6963 117.057 14.9842L114.819 14.8024C114.932 14.2721 115.156 13.8138 115.489 13.4274C115.823 13.0372 116.253 12.738 116.779 12.5297C117.309 12.3176 117.923 12.2115 118.62 12.2115C119.105 12.2115 119.569 12.2683 120.012 12.3819C120.459 12.4956 120.855 12.6717 121.2 12.9104C121.548 13.149 121.823 13.4558 122.023 13.8308C122.224 14.202 122.325 14.6471 122.325 15.166V21.0524H120.029V19.8422H119.961C119.821 20.1149 119.633 20.3554 119.398 20.5638C119.164 20.7683 118.881 20.9293 118.552 21.0467C118.222 21.1604 117.842 21.2172 117.41 21.2172ZM118.103 19.5467C118.459 19.5467 118.773 19.4766 119.046 19.3365C119.319 19.1926 119.533 18.9994 119.688 18.7569C119.843 18.5145 119.921 18.2399 119.921 17.9331V17.0069C119.845 17.0562 119.741 17.1016 119.609 17.1433C119.48 17.1812 119.334 17.2172 119.171 17.2513C119.008 17.2816 118.845 17.31 118.682 17.3365C118.52 17.3592 118.372 17.3801 118.239 17.399C117.955 17.4407 117.707 17.5069 117.495 17.5979C117.283 17.6888 117.118 17.8119 117.001 17.9672C116.883 18.1187 116.825 18.3081 116.825 18.5354C116.825 18.8649 116.944 19.1168 117.182 19.291C117.425 19.4615 117.732 19.5467 118.103 19.5467ZM131.464 14.8138L129.248 14.9501C129.21 14.7607 129.128 14.5903 129.003 14.4388C128.878 14.2835 128.714 14.1604 128.509 14.0694C128.308 13.9747 128.068 13.9274 127.788 13.9274C127.413 13.9274 127.096 14.0069 126.839 14.166C126.581 14.3213 126.452 14.5297 126.452 14.791C126.452 14.9994 126.536 15.1755 126.702 15.3194C126.869 15.4634 127.155 15.5789 127.56 15.666L129.14 15.9842C129.988 16.1585 130.621 16.4388 131.038 16.8251C131.454 17.2115 131.663 17.7191 131.663 18.3479C131.663 18.9198 131.494 19.4217 131.157 19.8535C130.824 20.2854 130.365 20.6225 129.782 20.8649C129.202 21.1035 128.534 21.2229 127.776 21.2229C126.621 21.2229 125.7 20.9823 125.015 20.5013C124.333 20.0164 123.933 19.3573 123.816 18.524L126.197 18.399C126.269 18.7513 126.443 19.0202 126.719 19.2058C126.996 19.3876 127.35 19.4785 127.782 19.4785C128.206 19.4785 128.547 19.3971 128.805 19.2342C129.066 19.0676 129.199 18.8535 129.202 18.5922C129.199 18.3725 129.106 18.1926 128.924 18.0524C128.742 17.9085 128.462 17.7986 128.083 17.7229L126.572 17.4217C125.719 17.2513 125.085 16.9558 124.668 16.5354C124.255 16.1149 124.049 15.5789 124.049 14.9274C124.049 14.3668 124.2 13.8838 124.503 13.4785C124.81 13.0732 125.24 12.7607 125.793 12.541C126.35 12.3213 127.002 12.2115 127.748 12.2115C128.85 12.2115 129.718 12.4444 130.35 12.9104C130.986 13.3763 131.358 14.0107 131.464 14.8138ZM137.164 21.2229C136.266 21.2229 135.494 21.041 134.846 20.6774C134.202 20.31 133.706 19.791 133.357 19.1206C133.009 18.4463 132.834 17.649 132.834 16.7285C132.834 15.8308 133.009 15.0429 133.357 14.3649C133.706 13.6869 134.196 13.1585 134.829 12.7797C135.465 12.4009 136.211 12.2115 137.067 12.2115C137.643 12.2115 138.179 12.3043 138.675 12.4899C139.175 12.6717 139.611 12.9463 139.982 13.3138C140.357 13.6812 140.649 14.1433 140.857 14.7001C141.066 15.2532 141.17 15.9009 141.17 16.6433V17.3081H133.8V15.8081H138.891C138.891 15.4596 138.816 15.1509 138.664 14.8819C138.512 14.613 138.302 14.4028 138.033 14.2513C137.768 14.096 137.459 14.0183 137.107 14.0183C136.74 14.0183 136.414 14.1035 136.13 14.274C135.85 14.4407 135.63 14.666 135.471 14.9501C135.312 15.2304 135.23 15.5429 135.226 15.8876V17.3138C135.226 17.7456 135.306 18.1187 135.465 18.4331C135.628 18.7475 135.857 18.9899 136.153 19.1604C136.448 19.3308 136.798 19.416 137.204 19.416C137.473 19.416 137.719 19.3782 137.942 19.3024C138.166 19.2266 138.357 19.113 138.516 18.9615C138.675 18.81 138.797 18.6244 138.88 18.4047L141.119 18.5524C141.005 19.0903 140.772 19.56 140.42 19.9615C140.071 20.3592 139.62 20.6698 139.067 20.8933C138.518 21.113 137.884 21.2229 137.164 21.2229Z" fill="#3F6D59"/>
</svg>
