<svg width="145" height="23" viewBox="0 0 145 23" fill="none" xmlns="http://www.w3.org/2000/svg">
<path d="M0.446733 22V0.181818H13.5291V2.52557H3.08878V9.89773H12.549V12.2415H3.08878V22H0.446733ZM23.3729 22.3409C21.7962 22.3409 20.4361 21.9929 19.2926 21.2969C18.1562 20.5938 17.2791 19.6136 16.6612 18.3565C16.0504 17.0923 15.745 15.6222 15.745 13.946C15.745 12.2699 16.0504 10.7926 16.6612 9.5142C17.2791 8.22869 18.1385 7.22727 19.2393 6.50994C20.3473 5.78551 21.6399 5.4233 23.1172 5.4233C23.9695 5.4233 24.8111 5.56534 25.642 5.84943C26.473 6.13352 27.2294 6.59517 27.9112 7.23438C28.593 7.86648 29.1364 8.70455 29.5412 9.74858C29.946 10.7926 30.1484 12.0781 30.1484 13.6051V14.6705H17.5348V12.4972H27.5916C27.5916 11.5739 27.407 10.75 27.0376 10.0256C26.6754 9.30114 26.157 8.7294 25.4822 8.31037C24.8146 7.89133 24.0263 7.68182 23.1172 7.68182C22.1158 7.68182 21.2493 7.9304 20.5178 8.42756C19.7933 8.91761 19.2358 9.55682 18.8452 10.3452C18.4545 11.1335 18.2592 11.9787 18.2592 12.8807V14.3295C18.2592 15.5653 18.4723 16.6129 18.8984 17.4723C19.3317 18.3246 19.9318 18.9744 20.6989 19.4219C21.4659 19.8622 22.3572 20.0824 23.3729 20.0824C24.0334 20.0824 24.63 19.9901 25.1626 19.8054C25.7024 19.6136 26.1676 19.3295 26.5582 18.9531C26.9489 18.5696 27.2507 18.0937 27.4638 17.5256L29.8928 18.2074C29.6371 19.0312 29.2074 19.7557 28.6037 20.3807C28 20.9986 27.2543 21.4815 26.3665 21.8295C25.4787 22.1705 24.4808 22.3409 23.3729 22.3409ZM38.7884 22.3835C37.7514 22.3835 36.8104 22.1882 35.9652 21.7976C35.12 21.3999 34.4489 20.8281 33.9517 20.0824C33.4545 19.3295 33.206 18.4205 33.206 17.3551C33.206 16.4176 33.3906 15.6577 33.7599 15.0753C34.1293 14.4858 34.6229 14.0241 35.2408 13.6903C35.8587 13.3565 36.5405 13.108 37.2862 12.9446C38.0391 12.7741 38.7955 12.6392 39.5554 12.5398C40.5497 12.4119 41.3558 12.3161 41.9737 12.2521C42.5987 12.1811 43.0533 12.0639 43.3374 11.9006C43.6286 11.7372 43.7741 11.4531 43.7741 11.0483V10.9631C43.7741 9.91193 43.4865 9.09517 42.9112 8.51278C42.343 7.9304 41.4801 7.6392 40.3224 7.6392C39.1222 7.6392 38.1811 7.90199 37.4993 8.42756C36.8175 8.95312 36.3381 9.5142 36.0611 10.1108L33.6747 9.25852C34.1009 8.2642 34.669 7.49006 35.3793 6.93608C36.0966 6.375 36.8778 5.98437 37.723 5.7642C38.5753 5.53693 39.4134 5.4233 40.2372 5.4233C40.7628 5.4233 41.3665 5.48722 42.0483 5.61506C42.7372 5.73579 43.4013 5.98793 44.0405 6.37145C44.6868 6.75497 45.223 7.33381 45.6491 8.10795C46.0753 8.8821 46.2884 9.91903 46.2884 11.2188V22H43.7741V19.7841H43.6463C43.4759 20.1392 43.1918 20.5192 42.794 20.924C42.3963 21.3288 41.8672 21.6733 41.2067 21.9574C40.5462 22.2415 39.7401 22.3835 38.7884 22.3835ZM39.1719 20.125C40.1662 20.125 41.0043 19.9297 41.6861 19.5391C42.375 19.1484 42.8935 18.6442 43.2415 18.0263C43.5966 17.4084 43.7741 16.7585 43.7741 16.0767V13.7756C43.6676 13.9034 43.4332 14.0206 43.071 14.1271C42.7159 14.2266 42.304 14.3153 41.8352 14.3935C41.3736 14.4645 40.9226 14.5284 40.4822 14.5852C40.049 14.6349 39.6974 14.6776 39.4276 14.7131C38.7741 14.7983 38.1634 14.9368 37.5952 15.1286C37.0341 15.3132 36.5795 15.5937 36.2315 15.9702C35.8906 16.3395 35.7202 16.8437 35.7202 17.483C35.7202 18.3565 36.0433 19.017 36.6896 19.4645C37.343 19.9048 38.1705 20.125 39.1719 20.125ZM62.4682 9.30114L60.2097 9.94034C60.0676 9.56392 59.8581 9.19815 59.5811 8.84304C59.3113 8.48082 58.9419 8.18253 58.4732 7.94815C58.0044 7.71378 57.4043 7.59659 56.6728 7.59659C55.6713 7.59659 54.8368 7.82741 54.1692 8.28906C53.5087 8.74361 53.1784 9.32244 53.1784 10.0256C53.1784 10.6506 53.4057 11.1442 53.8603 11.5064C54.3148 11.8686 55.025 12.1705 55.9909 12.4119L58.4199 13.0085C59.883 13.3636 60.9732 13.907 61.6905 14.6385C62.4078 15.3629 62.7665 16.2969 62.7665 17.4403C62.7665 18.3778 62.4966 19.2159 61.9569 19.9545C61.4242 20.6932 60.6784 21.2756 59.7196 21.7017C58.7608 22.1278 57.6458 22.3409 56.3745 22.3409C54.7054 22.3409 53.324 21.9787 52.2303 21.2543C51.1365 20.5298 50.4441 19.4716 50.1529 18.0795L52.5392 17.483C52.7665 18.3636 53.1962 19.0241 53.8283 19.4645C54.4675 19.9048 55.302 20.125 56.3319 20.125C57.5037 20.125 58.4341 19.8764 59.123 19.3793C59.8191 18.875 60.1671 18.2713 60.1671 17.5682C60.1671 17 59.9682 16.5241 59.5705 16.1406C59.1728 15.75 58.562 15.4588 57.7381 15.267L55.0108 14.6278C53.5123 14.2727 52.4114 13.7223 51.7083 12.9766C51.0123 12.2237 50.6642 11.2827 50.6642 10.1534C50.6642 9.23011 50.9235 8.41335 51.4419 7.70312C51.9675 6.9929 52.6813 6.43537 53.5833 6.03054C54.4924 5.62571 55.5222 5.4233 56.6728 5.4233C58.2921 5.4233 59.5634 5.77841 60.4867 6.48864C61.4171 7.19886 62.0776 8.13636 62.4682 9.30114ZM73.6676 5.63636V7.76704H65.1875V5.63636H73.6676ZM67.6591 1.71591H70.1733V17.3125C70.1733 18.0227 70.2763 18.5554 70.4822 18.9105C70.6953 19.2585 70.9652 19.4929 71.2919 19.6136C71.6257 19.7273 71.9773 19.7841 72.3466 19.7841C72.6236 19.7841 72.8509 19.7699 73.0284 19.7415C73.206 19.706 73.348 19.6776 73.4545 19.6562L73.9659 21.9148C73.7955 21.9787 73.5575 22.0426 73.2521 22.1065C72.9467 22.1776 72.5597 22.2131 72.0909 22.2131C71.3807 22.2131 70.6847 22.0604 70.0028 21.755C69.3281 21.4496 68.767 20.9844 68.3196 20.3594C67.8793 19.7344 67.6591 18.946 67.6591 17.9943V1.71591ZM77.0447 22V0.181818H91.7464V3.98508H81.6577V9.18395H90.9901V12.9872H81.6577V18.1967H91.7891V22H77.0447ZM99.9949 22.3089C98.9508 22.3089 98.0204 22.1278 97.2037 21.7656C96.3869 21.3963 95.7406 20.853 95.2647 20.1357C94.796 19.4112 94.5616 18.5092 94.5616 17.4297C94.5616 16.5206 94.7285 15.7571 95.0623 15.1392C95.3961 14.5213 95.8507 14.0241 96.426 13.6477C97.0012 13.2713 97.6547 12.9872 98.3862 12.7955C99.1248 12.6037 99.899 12.4688 100.709 12.3906C101.66 12.2912 102.427 12.1989 103.01 12.1136C103.592 12.0213 104.015 11.8864 104.278 11.7088C104.54 11.5312 104.672 11.2685 104.672 10.9205V10.8565C104.672 10.1818 104.459 9.6598 104.032 9.29048C103.613 8.92116 103.017 8.73651 102.243 8.73651C101.426 8.73651 100.776 8.91761 100.293 9.27983C99.8102 9.63494 99.4906 10.0824 99.3343 10.6222L95.1369 10.2812C95.35 9.28693 95.769 8.42756 96.394 7.70312C97.019 6.97159 97.8251 6.41051 98.8123 6.01989C99.8066 5.62216 100.957 5.4233 102.264 5.4233C103.173 5.4233 104.043 5.52983 104.874 5.7429C105.712 5.95597 106.454 6.28622 107.101 6.73366C107.754 7.18111 108.269 7.75639 108.645 8.45952C109.022 9.15554 109.21 9.99006 109.21 10.9631V22H104.906V19.7308H104.778C104.515 20.2422 104.164 20.6932 103.724 21.0838C103.283 21.4673 102.754 21.7692 102.136 21.9893C101.518 22.2024 100.805 22.3089 99.9949 22.3089ZM101.295 19.1768C101.962 19.1768 102.552 19.0455 103.063 18.7827C103.574 18.5128 103.976 18.1506 104.267 17.696C104.558 17.2415 104.704 16.7266 104.704 16.1513V14.4148C104.562 14.5071 104.366 14.5923 104.118 14.6705C103.876 14.7415 103.603 14.8089 103.297 14.8729C102.992 14.9297 102.687 14.983 102.381 15.0327C102.076 15.0753 101.799 15.1143 101.55 15.1499C101.018 15.228 100.552 15.3523 100.155 15.5227C99.7569 15.6932 99.448 15.924 99.2278 16.2152C99.0076 16.4993 98.8975 16.8544 98.8975 17.2805C98.8975 17.8984 99.1213 18.3707 99.5687 18.6974C100.023 19.017 100.599 19.1768 101.295 19.1768ZM126.346 10.3026L122.191 10.5582C122.12 10.2031 121.968 9.88352 121.733 9.59943C121.499 9.30824 121.19 9.07741 120.806 8.90696C120.43 8.7294 119.979 8.64062 119.453 8.64062C118.75 8.64062 118.157 8.78977 117.674 9.08807C117.191 9.37926 116.95 9.76989 116.95 10.2599C116.95 10.6506 117.106 10.9808 117.419 11.2507C117.731 11.5206 118.267 11.7372 119.027 11.9006L121.989 12.4972C123.58 12.8239 124.766 13.3494 125.547 14.0739C126.328 14.7983 126.719 15.75 126.719 16.929C126.719 18.0014 126.403 18.9425 125.771 19.7521C125.146 20.5618 124.286 21.1939 123.193 21.6484C122.106 22.0959 120.852 22.3196 119.432 22.3196C117.266 22.3196 115.54 21.8686 114.254 20.9666C112.976 20.0575 112.227 18.8217 112.007 17.2592L116.47 17.0249C116.605 17.6854 116.932 18.1896 117.45 18.5376C117.969 18.8786 118.633 19.049 119.443 19.049C120.238 19.049 120.877 18.8963 121.36 18.5909C121.85 18.2784 122.099 17.8771 122.106 17.3871C122.099 16.9751 121.925 16.6378 121.584 16.375C121.243 16.1051 120.718 15.8991 120.007 15.7571L117.173 15.1925C115.575 14.8729 114.386 14.3189 113.605 13.5305C112.83 12.7422 112.443 11.7372 112.443 10.5156C112.443 9.46449 112.727 8.55895 113.296 7.79901C113.871 7.03906 114.677 6.45313 115.714 6.04119C116.758 5.62926 117.98 5.4233 119.379 5.4233C121.445 5.4233 123.072 5.86009 124.258 6.73366C125.451 7.60724 126.147 8.79687 126.346 10.3026ZM137.034 22.3196C135.351 22.3196 133.902 21.9787 132.688 21.2969C131.48 20.608 130.55 19.6349 129.896 18.3778C129.243 17.1136 128.916 15.6186 128.916 13.8928C128.916 12.2095 129.243 10.7322 129.896 9.46094C130.55 8.18963 131.469 7.19886 132.656 6.48864C133.849 5.77841 135.248 5.4233 136.853 5.4233C137.933 5.4233 138.938 5.5973 139.868 5.94531C140.805 6.28622 141.622 6.80114 142.318 7.49006C143.021 8.17898 143.568 9.04545 143.959 10.0895C144.349 11.1264 144.545 12.3409 144.545 13.733V14.9794H130.727V12.1669H140.273C140.273 11.5135 140.131 10.9347 139.847 10.4304C139.563 9.92614 139.168 9.53196 138.664 9.24787C138.167 8.95668 137.588 8.81108 136.928 8.81108C136.239 8.81108 135.628 8.97088 135.095 9.29048C134.57 9.60298 134.158 10.0256 133.859 10.5582C133.561 11.0838 133.408 11.6697 133.401 12.3161V14.9901C133.401 15.7997 133.55 16.4993 133.849 17.0888C134.154 17.6783 134.584 18.1328 135.138 18.4524C135.692 18.772 136.349 18.9318 137.109 18.9318C137.613 18.9318 138.075 18.8608 138.494 18.7188C138.913 18.5767 139.271 18.3636 139.57 18.0795C139.868 17.7955 140.095 17.4474 140.251 17.0355L144.449 17.3125C144.236 18.321 143.799 19.2017 143.138 19.9545C142.485 20.7003 141.64 21.2827 140.603 21.7017C139.573 22.1136 138.384 22.3196 137.034 22.3196Z" fill="#3F6D59"/>
</svg>
