<svg width="797" height="162" viewBox="0 0 797 162" fill="none" xmlns="http://www.w3.org/2000/svg">
<path d="M3.19602 39V9.90909H21.2358V13.6875H7.58523V22.5511H19.9432V26.3153H7.58523V39H3.19602ZM34.0945 39.4403C31.9448 39.4403 30.0935 38.9811 28.5405 38.0625C26.9969 37.1345 25.8037 35.8324 24.9609 34.1562C24.1276 32.4706 23.7109 30.4962 23.7109 28.233C23.7109 25.9981 24.1276 24.0284 24.9609 22.3239C25.8037 20.6193 26.978 19.2888 28.4837 18.3324C29.9988 17.3759 31.7696 16.8977 33.7962 16.8977C35.0272 16.8977 36.2204 17.1013 37.3757 17.5085C38.531 17.9157 39.5679 18.5549 40.4865 19.4261C41.4051 20.2973 42.1295 21.429 42.6598 22.821C43.1901 24.2036 43.4553 25.8845 43.4553 27.8636V29.3693H26.1115V26.1875H39.2933C39.2933 25.0701 39.0661 24.0805 38.6115 23.2188C38.157 22.3475 37.5178 21.661 36.6939 21.1591C35.8795 20.6572 34.9231 20.4062 33.8246 20.4062C32.6314 20.4062 31.5897 20.6998 30.6996 21.2869C29.8189 21.8646 29.1371 22.6222 28.6541 23.5597C28.1806 24.4877 27.9439 25.4962 27.9439 26.5852V29.071C27.9439 30.5294 28.1996 31.7699 28.7109 32.7926C29.2318 33.8153 29.9562 34.5966 30.8842 35.1364C31.8123 35.6667 32.8965 35.9318 34.1371 35.9318C34.942 35.9318 35.6759 35.8182 36.3388 35.5909C37.0017 35.3542 37.5746 35.0038 38.0575 34.5398C38.5405 34.0758 38.9098 33.5028 39.1655 32.821L43.1854 33.5455C42.8634 34.7292 42.2857 35.7661 41.4524 36.6562C40.6286 37.5369 39.5916 38.2235 38.3416 38.7159C37.1011 39.1989 35.6854 39.4403 34.0945 39.4403ZM54.517 39.483C53.1345 39.483 51.8845 39.2273 50.767 38.7159C49.6496 38.1951 48.7642 37.4422 48.1108 36.4574C47.4669 35.4725 47.1449 34.2652 47.1449 32.8352C47.1449 31.6042 47.3816 30.5909 47.8551 29.7955C48.3286 29 48.9678 28.3703 49.7727 27.9062C50.5777 27.4422 51.4773 27.0919 52.4716 26.8551C53.4659 26.6184 54.4792 26.4384 55.5114 26.3153C56.8182 26.1638 57.8788 26.0407 58.6932 25.946C59.5076 25.8419 60.0994 25.6761 60.4688 25.4489C60.8381 25.2216 61.0227 24.8523 61.0227 24.3409V24.2415C61.0227 23.0009 60.6723 22.0398 59.9716 21.358C59.2803 20.6761 58.2481 20.3352 56.875 20.3352C55.4451 20.3352 54.3182 20.6525 53.4943 21.2869C52.6799 21.9119 52.1165 22.608 51.804 23.375L47.8125 22.4659C48.286 21.1402 48.9773 20.0701 49.8864 19.2557C50.8049 18.4318 51.8608 17.8352 53.054 17.4659C54.2472 17.0871 55.5019 16.8977 56.8182 16.8977C57.6894 16.8977 58.6127 17.0019 59.5881 17.2102C60.5729 17.4091 61.4915 17.7784 62.3438 18.3182C63.2055 18.858 63.911 19.6297 64.4602 20.6335C65.0095 21.6278 65.2841 22.9205 65.2841 24.5114V39H61.1364V36.017H60.9659C60.6913 36.5663 60.2794 37.1061 59.7301 37.6364C59.1809 38.1667 58.4754 38.607 57.6136 38.9574C56.7519 39.3078 55.7197 39.483 54.517 39.483ZM55.4403 36.0739C56.6146 36.0739 57.6184 35.8419 58.4517 35.3778C59.2945 34.9138 59.9337 34.3078 60.3693 33.5597C60.8144 32.8021 61.0369 31.9924 61.0369 31.1307V28.3182C60.8854 28.4697 60.5919 28.6117 60.1562 28.7443C59.7301 28.8674 59.2424 28.9763 58.6932 29.071C58.1439 29.1562 57.6089 29.2367 57.0881 29.3125C56.5672 29.3788 56.1316 29.4356 55.7812 29.483C54.9574 29.5871 54.2045 29.7623 53.5227 30.0085C52.8504 30.2547 52.3106 30.6098 51.9034 31.0739C51.5057 31.5284 51.3068 32.1345 51.3068 32.892C51.3068 33.9432 51.6951 34.7386 52.4716 35.2784C53.2481 35.8087 54.2377 36.0739 55.4403 36.0739ZM87.2905 22.5085L83.4411 23.1903C83.2801 22.6979 83.0244 22.2292 82.674 21.7841C82.3331 21.339 81.8691 20.9744 81.282 20.6903C80.6948 20.4062 79.9609 20.2642 79.0803 20.2642C77.8776 20.2642 76.8738 20.5341 76.0689 21.0739C75.264 21.6042 74.8615 22.2907 74.8615 23.1335C74.8615 23.8627 75.1314 24.4498 75.6712 24.8949C76.2109 25.34 77.0821 25.7045 78.2848 25.9886L81.7507 26.7841C83.7583 27.2481 85.2545 27.9631 86.2393 28.929C87.2242 29.8949 87.7166 31.1496 87.7166 32.6932C87.7166 34 87.3378 35.1648 86.5803 36.1875C85.8322 37.2008 84.7857 37.9962 83.4411 38.5739C82.1058 39.1515 80.5575 39.4403 78.7962 39.4403C76.353 39.4403 74.3596 38.9195 72.8161 37.8778C71.2725 36.8267 70.3255 35.3352 69.9751 33.4034L74.0803 32.7784C74.3359 33.8485 74.8615 34.6581 75.657 35.2074C76.4524 35.7472 77.4893 36.017 78.7678 36.017C80.1598 36.017 81.2725 35.7282 82.1058 35.1506C82.9392 34.5634 83.3558 33.8485 83.3558 33.0057C83.3558 32.3239 83.1001 31.7509 82.5888 31.2869C82.0869 30.8229 81.3151 30.4725 80.2734 30.2358L76.5803 29.4261C74.5443 28.9621 73.0386 28.2235 72.0632 27.2102C71.0973 26.197 70.6143 24.9138 70.6143 23.3608C70.6143 22.0729 70.9742 20.946 71.6939 19.9801C72.4136 19.0142 73.4079 18.2614 74.6768 17.7216C75.9458 17.1723 77.3994 16.8977 79.0376 16.8977C81.3956 16.8977 83.2517 17.4091 84.6058 18.4318C85.96 19.4451 86.8549 20.804 87.2905 22.5085ZM102.571 17.1818V20.5909H90.6534V17.1818H102.571ZM93.8494 11.9545H98.0966V32.5938C98.0966 33.4176 98.2197 34.0379 98.4659 34.4545C98.7121 34.8617 99.0294 35.1411 99.4176 35.2926C99.8153 35.4347 100.246 35.5057 100.71 35.5057C101.051 35.5057 101.349 35.482 101.605 35.4347C101.861 35.3873 102.06 35.3494 102.202 35.321L102.969 38.8295C102.723 38.9242 102.372 39.0189 101.918 39.1136C101.463 39.2178 100.895 39.2746 100.213 39.2841C99.0956 39.303 98.054 39.1042 97.0881 38.6875C96.1222 38.2708 95.3409 37.6269 94.7443 36.7557C94.1477 35.8845 93.8494 34.7907 93.8494 33.4744V11.9545ZM106.616 39V9.90909H126.9V15.6193H113.647V21.5852H125.863V27.3097H113.647V33.2898H126.9V39H106.616ZM137.454 39.3693C136.062 39.3693 134.826 39.1373 133.746 38.6733C132.676 38.1998 131.829 37.4896 131.204 36.5426C130.588 35.5862 130.281 34.3883 130.281 32.9489C130.281 31.7367 130.494 30.714 130.92 29.8807C131.346 29.0473 131.933 28.3703 132.681 27.8494C133.429 27.3286 134.291 26.9356 135.266 26.6705C136.242 26.3958 137.283 26.2112 138.391 26.1165C139.632 26.0028 140.631 25.8845 141.388 25.7614C142.146 25.6288 142.695 25.4441 143.036 25.2074C143.387 24.9612 143.562 24.6155 143.562 24.1705V24.0994C143.562 23.3703 143.311 22.8068 142.809 22.4091C142.307 22.0114 141.63 21.8125 140.778 21.8125C139.859 21.8125 139.121 22.0114 138.562 22.4091C138.003 22.8068 137.648 23.3561 137.496 24.0568L131.09 23.8295C131.28 22.5038 131.767 21.3201 132.553 20.2784C133.349 19.2273 134.438 18.4034 135.82 17.8068C137.212 17.2008 138.884 16.8977 140.835 16.8977C142.227 16.8977 143.51 17.0634 144.684 17.3949C145.858 17.7169 146.881 18.1903 147.752 18.8153C148.623 19.4309 149.296 20.1884 149.769 21.0881C150.252 21.9877 150.494 23.0152 150.494 24.1705V39H143.96V35.9602H143.789C143.401 36.6989 142.904 37.3239 142.298 37.8352C141.701 38.3466 140.996 38.7301 140.181 38.9858C139.376 39.2415 138.467 39.3693 137.454 39.3693ZM139.599 34.8239C140.347 34.8239 141.019 34.6723 141.616 34.3693C142.222 34.0663 142.705 33.6496 143.065 33.1193C143.424 32.5795 143.604 31.9545 143.604 31.2443V29.1705C143.406 29.2746 143.164 29.3693 142.88 29.4545C142.605 29.5398 142.302 29.6203 141.971 29.696C141.639 29.7718 141.299 29.8381 140.948 29.8949C140.598 29.9517 140.262 30.0038 139.94 30.0511C139.286 30.1553 138.728 30.3163 138.263 30.5341C137.809 30.7519 137.459 31.036 137.212 31.3864C136.976 31.7273 136.857 32.1345 136.857 32.608C136.857 33.3277 137.113 33.8769 137.624 34.2557C138.145 34.6345 138.803 34.8239 139.599 34.8239ZM173.789 23.8438L167.411 24.0142C167.345 23.5597 167.165 23.1572 166.871 22.8068C166.578 22.447 166.194 22.1676 165.721 21.9688C165.257 21.7604 164.717 21.6562 164.102 21.6562C163.297 21.6562 162.61 21.8172 162.042 22.1392C161.483 22.4612 161.209 22.8968 161.218 23.446C161.209 23.8722 161.379 24.2415 161.729 24.554C162.089 24.8665 162.728 25.1174 163.647 25.3068L167.852 26.1023C170.03 26.5189 171.649 27.2102 172.71 28.1761C173.78 29.142 174.319 30.4205 174.329 32.0114C174.319 33.5076 173.874 34.8097 172.994 35.9176C172.122 37.0256 170.929 37.8873 169.414 38.5028C167.899 39.1089 166.166 39.4119 164.215 39.4119C161.1 39.4119 158.642 38.7727 156.843 37.4943C155.053 36.2064 154.031 34.483 153.775 32.3239L160.636 32.1534C160.787 32.9489 161.18 33.5549 161.815 33.9716C162.449 34.3883 163.259 34.5966 164.244 34.5966C165.134 34.5966 165.858 34.4309 166.417 34.0994C166.976 33.768 167.26 33.3277 167.269 32.7784C167.26 32.286 167.042 31.893 166.616 31.5994C166.19 31.2964 165.522 31.0597 164.613 30.8892L160.806 30.1648C158.619 29.767 156.99 29.0331 155.92 27.9631C154.85 26.8835 154.319 25.5104 154.329 23.8438C154.319 22.3854 154.708 21.1402 155.494 20.108C156.28 19.0663 157.397 18.2708 158.846 17.7216C160.295 17.1723 162.004 16.8977 163.974 16.8977C166.928 16.8977 169.258 17.518 170.962 18.7585C172.667 19.9896 173.609 21.6847 173.789 23.8438ZM187.947 39.4119C185.665 39.4119 183.696 38.9621 182.038 38.0625C180.391 37.1534 179.122 35.8608 178.232 34.1847C177.351 32.4991 176.911 30.4962 176.911 28.1761C176.911 25.9223 177.356 23.9527 178.246 22.267C179.136 20.572 180.391 19.2557 182.01 18.3182C183.629 17.3712 185.537 16.8977 187.734 16.8977C189.287 16.8977 190.708 17.1392 191.996 17.6222C193.284 18.1051 194.396 18.8201 195.334 19.767C196.271 20.714 197 21.8835 197.521 23.2756C198.042 24.6581 198.303 26.2443 198.303 28.0341V29.767H179.339V25.733H191.839C191.83 24.9943 191.655 24.3362 191.314 23.7585C190.973 23.1809 190.504 22.7311 189.908 22.4091C189.321 22.0777 188.643 21.9119 187.876 21.9119C187.1 21.9119 186.404 22.0871 185.788 22.4375C185.173 22.7784 184.685 23.2472 184.325 23.8438C183.965 24.4309 183.776 25.0985 183.757 25.8466V29.9517C183.757 30.8419 183.932 31.6231 184.283 32.2955C184.633 32.9583 185.13 33.4744 185.774 33.8438C186.418 34.2131 187.185 34.3977 188.075 34.3977C188.691 34.3977 189.25 34.3125 189.751 34.142C190.253 33.9716 190.684 33.7206 191.044 33.3892C191.404 33.0578 191.674 32.6506 191.854 32.1676L198.232 32.3523C197.966 33.7822 197.384 35.0275 196.484 36.0881C195.594 37.1392 194.425 37.9583 192.976 38.5455C191.527 39.1231 189.851 39.4119 187.947 39.4119Z" fill="white"/>
<path d="M1.05114 105L5.88068 75.9091H24.517L23.7784 80.3267H10.4119L9.10511 88.2244H21.1932L20.4545 92.642H8.36648L6.32102 105H1.05114ZM23.9489 105L27.5852 83.1818H32.571L31.9602 86.8182H32.1875C32.7841 85.5587 33.6269 84.5881 34.7159 83.9062C35.8144 83.215 36.9886 82.8693 38.2386 82.8693C38.5322 82.8693 38.8494 82.8835 39.1903 82.9119C39.5313 82.9309 39.8248 82.964 40.071 83.0114L39.2756 87.7415C39.0578 87.6657 38.7169 87.5994 38.2528 87.5426C37.7983 87.4763 37.3485 87.4432 36.9034 87.4432C35.9659 87.4432 35.0947 87.6468 34.2898 88.054C33.4943 88.4517 32.822 89.0057 32.2727 89.7159C31.7235 90.4261 31.3684 91.2453 31.2074 92.1733L29.0909 105H23.9489ZM48.5227 105.426C46.3731 105.426 44.5833 104.953 43.1534 104.006C41.733 103.059 40.7339 101.728 40.1562 100.014C39.5786 98.3002 39.4744 96.3116 39.8438 94.0483C40.2131 91.8134 40.9517 89.858 42.0597 88.1818C43.1771 86.5057 44.5833 85.2083 46.2784 84.2898C47.983 83.3617 49.8911 82.8977 52.0028 82.8977C54.1525 82.8977 55.9375 83.3759 57.358 84.3324C58.7784 85.2794 59.7775 86.6098 60.3551 88.3239C60.9422 90.0379 61.0511 92.036 60.6818 94.3182C60.322 96.5436 59.5786 98.4896 58.4517 100.156C57.3343 101.823 55.928 103.12 54.233 104.048C52.5379 104.967 50.6345 105.426 48.5227 105.426ZM48.9489 101.307C50.142 101.307 51.1884 100.985 52.0881 100.341C52.9972 99.6875 53.7405 98.8116 54.3182 97.7131C54.9053 96.6051 55.3125 95.3741 55.5398 94.0199C55.7481 92.7131 55.7528 91.5294 55.554 90.4688C55.3551 89.3987 54.929 88.5511 54.2756 87.9261C53.6316 87.2917 52.7367 86.9744 51.5909 86.9744C50.3977 86.9744 49.3419 87.3059 48.4233 87.9688C47.5142 88.6222 46.7708 89.5028 46.1932 90.6108C45.6155 91.7093 45.2178 92.9356 45 94.2898C44.7822 95.5966 44.7727 96.7803 44.9716 97.8409C45.1705 98.9015 45.5966 99.7443 46.25 100.369C46.9034 100.994 47.803 101.307 48.9489 101.307ZM63.299 105L66.9354 83.1818H71.8643L71.2393 86.8892H71.5092C72.1721 85.6392 73.0859 84.6638 74.2507 83.9631C75.4155 83.2528 76.727 82.8977 78.1854 82.8977C79.6532 82.8977 80.8369 83.2576 81.7365 83.9773C82.6456 84.6875 83.2043 85.6581 83.4126 86.8892H83.6399C84.3217 85.6676 85.2971 84.697 86.5661 83.9773C87.8445 83.2576 89.2791 82.8977 90.87 82.8977C92.8587 82.8977 94.3833 83.5322 95.4439 84.8011C96.5045 86.0701 96.8312 87.9214 96.424 90.3551L93.9808 105H88.8388L91.1683 91.1506C91.3767 89.7964 91.1683 88.8068 90.5433 88.1818C89.9278 87.5473 89.0992 87.2301 88.0575 87.2301C86.817 87.2301 85.7848 87.6136 84.9609 88.3807C84.1465 89.1477 83.6447 90.1515 83.4553 91.392L81.1683 105H76.1257L78.4837 90.9375C78.6541 89.8106 78.4553 88.911 77.8871 88.2386C77.3284 87.5663 76.5045 87.2301 75.4155 87.2301C74.6768 87.2301 73.9714 87.4195 73.299 87.7983C72.6267 88.1771 72.0537 88.7074 71.5803 89.3892C71.1162 90.0616 70.8132 90.8428 70.6712 91.733L68.4553 105H63.299ZM118.679 105.426C116.529 105.426 114.74 104.953 113.31 104.006C111.889 103.059 110.89 101.728 110.312 100.014C109.735 98.3002 109.631 96.3116 110 94.0483C110.369 91.8134 111.108 89.858 112.216 88.1818C113.333 86.5057 114.74 85.2083 116.435 84.2898C118.139 83.3617 120.047 82.8977 122.159 82.8977C124.309 82.8977 126.094 83.3759 127.514 84.3324C128.935 85.2794 129.934 86.6098 130.511 88.3239C131.098 90.0379 131.207 92.036 130.838 94.3182C130.478 96.5436 129.735 98.4896 128.608 100.156C127.491 101.823 126.084 103.12 124.389 104.048C122.694 104.967 120.791 105.426 118.679 105.426ZM119.105 101.307C120.298 101.307 121.345 100.985 122.244 100.341C123.153 99.6875 123.897 98.8116 124.474 97.7131C125.062 96.6051 125.469 95.3741 125.696 94.0199C125.904 92.7131 125.909 91.5294 125.71 90.4688C125.511 89.3987 125.085 88.5511 124.432 87.9261C123.788 87.2917 122.893 86.9744 121.747 86.9744C120.554 86.9744 119.498 87.3059 118.58 87.9688C117.67 88.6222 116.927 89.5028 116.349 90.6108C115.772 91.7093 115.374 92.9356 115.156 94.2898C114.938 95.5966 114.929 96.7803 115.128 97.8409C115.327 98.9015 115.753 99.7443 116.406 100.369C117.06 100.994 117.959 101.307 119.105 101.307ZM148.867 95.8239L150.984 83.1818H156.126L152.489 105H147.504L148.157 101.122H147.93C147.248 102.344 146.272 103.343 145.004 104.119C143.744 104.896 142.295 105.284 140.657 105.284C139.227 105.284 138.02 104.967 137.035 104.332C136.05 103.688 135.349 102.756 134.933 101.534C134.525 100.303 134.464 98.8163 134.748 97.0739L137.077 83.1818H142.219L140.032 96.2784C139.814 97.661 140.013 98.7595 140.629 99.5739C141.254 100.388 142.182 100.795 143.413 100.795C144.17 100.795 144.933 100.611 145.7 100.241C146.476 99.8722 147.153 99.3229 147.731 98.5938C148.308 97.8551 148.687 96.9318 148.867 95.8239ZM157.777 105L161.413 83.1818H166.399L165.788 86.8182H166.016C166.612 85.5587 167.455 84.5881 168.544 83.9062C169.643 83.215 170.817 82.8693 172.067 82.8693C172.36 82.8693 172.678 82.8835 173.018 82.9119C173.359 82.9309 173.653 82.964 173.899 83.0114L173.104 87.7415C172.886 87.6657 172.545 87.5994 172.081 87.5426C171.626 87.4763 171.177 87.4432 170.732 87.4432C169.794 87.4432 168.923 87.6468 168.118 88.054C167.322 88.4517 166.65 89.0057 166.101 89.7159C165.552 90.4261 165.196 91.2453 165.036 92.1733L162.919 105H157.777ZM189.407 98.1534L190.415 91.946H191.239L200.572 83.1818H206.58L195.16 93.9205H194.109L189.407 98.1534ZM183.597 105L188.427 75.9091H193.569L188.739 105H183.597ZM197.29 105L191.836 95.071L195.913 91.4489L203.441 105H197.29ZM206.371 105L210.007 83.1818H215.149L211.513 105H206.371ZM213.331 80.0568C212.507 80.0568 211.825 79.7822 211.286 79.233C210.746 78.6837 210.509 78.0256 210.575 77.2585C210.642 76.4915 210.987 75.8333 211.612 75.2841C212.247 74.7348 212.971 74.4602 213.786 74.4602C214.609 74.4602 215.286 74.7348 215.817 75.2841C216.357 75.8333 216.593 76.4915 216.527 77.2585C216.47 78.0256 216.125 78.6837 215.49 79.233C214.865 79.7822 214.145 80.0568 213.331 80.0568ZM231.332 83.1818L230.664 87.1591H218.136L218.789 83.1818H231.332ZM222.738 77.9545H227.88L224.471 98.4375C224.367 99.1288 224.386 99.6591 224.528 100.028C224.679 100.388 224.921 100.634 225.252 100.767C225.593 100.9 225.977 100.966 226.403 100.966C226.715 100.966 227.009 100.942 227.283 100.895C227.558 100.838 227.776 100.795 227.937 100.767L228.164 104.787C227.852 104.882 227.43 104.986 226.9 105.099C226.379 105.213 225.754 105.279 225.025 105.298C223.718 105.327 222.582 105.128 221.616 104.702C220.659 104.266 219.959 103.598 219.513 102.699C219.078 101.79 218.978 100.653 219.215 99.2898L222.738 77.9545ZM241.222 105.426C239.044 105.426 237.254 104.948 235.852 103.991C234.451 103.035 233.471 101.714 232.912 100.028C232.363 98.3333 232.273 96.3826 232.642 94.1761C233.002 91.9602 233.745 90.0047 234.872 88.3097C236.009 86.6051 237.438 85.2794 239.162 84.3324C240.885 83.3759 242.813 82.8977 244.943 82.8977C246.714 82.8977 248.224 83.2244 249.474 83.8778C250.734 84.5218 251.671 85.4356 252.287 86.6193C252.912 87.7936 253.153 89.1667 253.011 90.7386H248.082C248.063 89.6875 247.737 88.8116 247.102 88.1108C246.468 87.4006 245.54 87.0455 244.318 87.0455C243.258 87.0455 242.282 87.3295 241.392 87.8977C240.502 88.4564 239.749 89.2614 239.134 90.3125C238.518 91.3636 238.092 92.6231 237.855 94.0909C237.609 95.5777 237.614 96.8561 237.869 97.9261C238.134 98.9867 238.613 99.8059 239.304 100.384C240.005 100.952 240.89 101.236 241.96 101.236C242.718 101.236 243.423 101.094 244.077 100.81C244.73 100.516 245.303 100.095 245.795 99.5455C246.297 98.9962 246.69 98.3286 246.974 97.5426H251.889C251.501 99.0862 250.81 100.455 249.815 101.648C248.83 102.831 247.609 103.759 246.151 104.432C244.692 105.095 243.049 105.426 241.222 105.426ZM262.12 92.2159L260.018 105H254.862L259.691 75.9091H264.734L262.915 86.8892H263.185C263.877 85.6487 264.819 84.6733 266.012 83.9631C267.215 83.2528 268.659 82.8977 270.344 82.8977C271.841 82.8977 273.1 83.215 274.123 83.8494C275.146 84.4839 275.865 85.4119 276.282 86.6335C276.708 87.8551 276.779 89.3466 276.495 91.108L274.165 105H269.009L271.197 91.9034C271.433 90.4356 271.239 89.2945 270.614 88.4801C269.999 87.6562 269.023 87.2443 267.688 87.2443C266.77 87.2443 265.922 87.4432 265.146 87.8409C264.369 88.2292 263.716 88.7926 263.185 89.5312C262.665 90.2699 262.309 91.1648 262.12 92.2159ZM288.981 105.426C286.793 105.426 284.985 104.972 283.555 104.062C282.125 103.144 281.121 101.847 280.543 100.17C279.975 98.4848 279.88 96.5009 280.259 94.2188C280.629 91.9744 281.381 90.0047 282.518 88.3097C283.654 86.6051 285.075 85.2794 286.779 84.3324C288.493 83.3759 290.387 82.8977 292.461 82.8977C293.806 82.8977 295.041 83.1155 296.168 83.5511C297.295 83.9773 298.247 84.6402 299.023 85.5398C299.8 86.4394 300.335 87.5852 300.629 88.9773C300.922 90.3598 300.908 92.0076 300.586 93.9205L300.344 95.4972H282.447L283.001 92.0312H295.955C296.126 91.0464 296.069 90.1705 295.785 89.4034C295.501 88.6269 295.027 88.0161 294.364 87.571C293.701 87.1259 292.873 86.9034 291.879 86.9034C290.865 86.9034 289.918 87.1638 289.038 87.6847C288.166 88.196 287.433 88.8589 286.836 89.6733C286.239 90.4877 285.861 91.3447 285.7 92.2443L285.117 95.5682C284.909 96.9318 284.956 98.0445 285.259 98.9062C285.562 99.768 286.093 100.402 286.85 100.81C287.608 101.217 288.564 101.42 289.719 101.42C290.477 101.42 291.178 101.316 291.822 101.108C292.466 100.9 293.039 100.587 293.54 100.17C294.052 99.7443 294.478 99.2235 294.819 98.608L299.521 99.1477C299 100.417 298.237 101.525 297.234 102.472C296.23 103.409 295.027 104.138 293.626 104.659C292.234 105.17 290.685 105.426 288.981 105.426ZM310.401 92.2159L308.299 105H303.143L306.779 83.1818H311.708L311.083 86.8892H311.353C312.035 85.6676 312.991 84.697 314.222 83.9773C315.453 83.2576 316.888 82.8977 318.526 82.8977C320.013 82.8977 321.263 83.2197 322.276 83.8636C323.29 84.4981 324.009 85.4309 324.435 86.6619C324.862 87.8835 324.928 89.3655 324.634 91.108L322.305 105H317.163L319.336 91.9034C319.582 90.4545 319.397 89.3182 318.782 88.4943C318.176 87.661 317.201 87.2443 315.856 87.2443C314.956 87.2443 314.128 87.4432 313.37 87.8409C312.612 88.2292 311.973 88.7926 311.452 89.5312C310.941 90.2699 310.591 91.1648 310.401 92.2159ZM15.3551 131.182L14.6875 135.159H2.15909L2.8125 131.182H15.3551ZM6.76136 125.955H11.9034L8.49432 146.438C8.39015 147.129 8.40909 147.659 8.55114 148.028C8.70265 148.388 8.94413 148.634 9.27557 148.767C9.61648 148.9 10 148.966 10.4261 148.966C10.7386 148.966 11.0322 148.942 11.3068 148.895C11.5814 148.838 11.7992 148.795 11.9602 148.767L12.1875 152.787C11.875 152.882 11.4536 152.986 10.9233 153.099C10.4025 153.213 9.77746 153.279 9.0483 153.298C7.74148 153.327 6.60511 153.128 5.6392 152.702C4.68277 152.266 3.98201 151.598 3.53693 150.699C3.10133 149.79 3.00189 148.653 3.23864 147.29L6.76136 125.955ZM25.3587 153.426C23.209 153.426 21.4193 152.953 19.9893 152.006C18.5689 151.059 17.5698 149.728 16.9922 148.014C16.4145 146.3 16.3104 144.312 16.6797 142.048C17.049 139.813 17.7876 137.858 18.8956 136.182C20.013 134.506 21.4193 133.208 23.1143 132.29C24.8189 131.362 26.727 130.898 28.8388 130.898C30.9884 130.898 32.7734 131.376 34.1939 132.332C35.6143 133.279 36.6134 134.61 37.1911 136.324C37.7782 138.038 37.8871 140.036 37.5178 142.318C37.1579 144.544 36.4145 146.49 35.2876 148.156C34.1702 149.823 32.764 151.12 31.0689 152.048C29.3738 152.967 27.4704 153.426 25.3587 153.426ZM25.7848 149.307C26.978 149.307 28.0244 148.985 28.924 148.341C29.8331 147.687 30.5765 146.812 31.1541 145.713C31.7412 144.605 32.1484 143.374 32.3757 142.02C32.584 140.713 32.5888 139.529 32.3899 138.469C32.1911 137.399 31.7649 136.551 31.1115 135.926C30.4676 135.292 29.5727 134.974 28.4268 134.974C27.2337 134.974 26.1778 135.306 25.2592 135.969C24.3501 136.622 23.6068 137.503 23.0291 138.611C22.4515 139.709 22.0537 140.936 21.8359 142.29C21.6181 143.597 21.6087 144.78 21.8075 145.841C22.0064 146.902 22.4325 147.744 23.0859 148.369C23.7393 148.994 24.639 149.307 25.7848 149.307ZM51.9034 161.182C51.2027 161.182 50.5634 161.125 49.9858 161.011C49.4176 160.907 48.9678 160.784 48.6364 160.642L50.5114 156.636C51.2216 156.854 51.8608 156.949 52.429 156.92C53.0066 156.902 53.5369 156.707 54.0199 156.338C54.5123 155.978 54.9953 155.386 55.4688 154.562L56.1222 153.384L51.946 131.182H57.2017L59.4744 147.688H59.7017L67.5 131.182H73.1676L60.3977 155.614C59.7822 156.797 59.0672 157.801 58.2528 158.625C57.4384 159.458 56.5057 160.093 55.4545 160.528C54.4129 160.964 53.2292 161.182 51.9034 161.182ZM81.9212 153.426C79.7715 153.426 77.9818 152.953 76.5518 152.006C75.1314 151.059 74.1323 149.728 73.5547 148.014C72.977 146.3 72.8729 144.312 73.2422 142.048C73.6115 139.813 74.3501 137.858 75.4581 136.182C76.5755 134.506 77.9818 133.208 79.6768 132.29C81.3814 131.362 83.2895 130.898 85.4013 130.898C87.5509 130.898 89.3359 131.376 90.7564 132.332C92.1768 133.279 93.1759 134.61 93.7536 136.324C94.3407 138.038 94.4496 140.036 94.0803 142.318C93.7204 144.544 92.977 146.49 91.8501 148.156C90.7327 149.823 89.3265 151.12 87.6314 152.048C85.9363 152.967 84.0329 153.426 81.9212 153.426ZM82.3473 149.307C83.5405 149.307 84.5869 148.985 85.4865 148.341C86.3956 147.687 87.139 146.812 87.7166 145.713C88.3037 144.605 88.7109 143.374 88.9382 142.02C89.1465 140.713 89.1513 139.529 88.9524 138.469C88.7536 137.399 88.3274 136.551 87.674 135.926C87.0301 135.292 86.1352 134.974 84.9893 134.974C83.7962 134.974 82.7403 135.306 81.8217 135.969C80.9126 136.622 80.1693 137.503 79.5916 138.611C79.014 139.709 78.6162 140.936 78.3984 142.29C78.1806 143.597 78.1712 144.78 78.37 145.841C78.5689 146.902 78.995 147.744 79.6484 148.369C80.3018 148.994 81.2015 149.307 82.3473 149.307ZM112.109 143.824L114.226 131.182H119.368L115.732 153H110.746L111.399 149.122H111.172C110.49 150.344 109.515 151.343 108.246 152.119C106.986 152.896 105.537 153.284 103.899 153.284C102.469 153.284 101.262 152.967 100.277 152.332C99.2921 151.688 98.5914 150.756 98.1747 149.534C97.7675 148.303 97.706 146.816 97.9901 145.074L100.32 131.182H105.462L103.274 144.278C103.056 145.661 103.255 146.759 103.871 147.574C104.496 148.388 105.424 148.795 106.655 148.795C107.412 148.795 108.175 148.611 108.942 148.241C109.718 147.872 110.395 147.323 110.973 146.594C111.551 145.855 111.929 144.932 112.109 143.824ZM121.019 153L124.656 131.182H129.641L129.031 134.818H129.258C129.854 133.559 130.697 132.588 131.786 131.906C132.885 131.215 134.059 130.869 135.309 130.869C135.603 130.869 135.92 130.884 136.261 130.912C136.602 130.931 136.895 130.964 137.141 131.011L136.346 135.741C136.128 135.666 135.787 135.599 135.323 135.543C134.869 135.476 134.419 135.443 133.974 135.443C133.036 135.443 132.165 135.647 131.36 136.054C130.565 136.452 129.892 137.006 129.343 137.716C128.794 138.426 128.439 139.245 128.278 140.173L126.161 153H121.019ZM156.442 153.426C154.254 153.426 152.446 152.972 151.016 152.062C149.586 151.144 148.582 149.847 148.004 148.17C147.436 146.485 147.341 144.501 147.72 142.219C148.089 139.974 148.842 138.005 149.979 136.31C151.115 134.605 152.536 133.279 154.24 132.332C155.954 131.376 157.848 130.898 159.922 130.898C161.267 130.898 162.502 131.116 163.629 131.551C164.756 131.977 165.708 132.64 166.484 133.54C167.261 134.439 167.796 135.585 168.089 136.977C168.383 138.36 168.369 140.008 168.047 141.92L167.805 143.497H149.908L150.462 140.031H163.416C163.587 139.046 163.53 138.17 163.246 137.403C162.962 136.627 162.488 136.016 161.825 135.571C161.162 135.126 160.334 134.903 159.339 134.903C158.326 134.903 157.379 135.164 156.499 135.685C155.627 136.196 154.893 136.859 154.297 137.673C153.7 138.488 153.321 139.345 153.161 140.244L152.578 143.568C152.37 144.932 152.417 146.045 152.72 146.906C153.023 147.768 153.554 148.402 154.311 148.81C155.069 149.217 156.025 149.42 157.18 149.42C157.938 149.42 158.639 149.316 159.283 149.108C159.927 148.9 160.5 148.587 161.001 148.17C161.513 147.744 161.939 147.223 162.28 146.608L166.982 147.148C166.461 148.417 165.698 149.525 164.695 150.472C163.691 151.409 162.488 152.138 161.087 152.659C159.695 153.17 158.146 153.426 156.442 153.426ZM193.089 131.182L181.683 153H176.001L171.868 131.182H177.152L179.482 147.389H179.709L187.422 131.182H193.089ZM201.871 153.426C199.684 153.426 197.875 152.972 196.445 152.062C195.015 151.144 194.012 149.847 193.434 148.17C192.866 146.485 192.771 144.501 193.15 142.219C193.519 139.974 194.272 138.005 195.408 136.31C196.545 134.605 197.965 133.279 199.67 132.332C201.384 131.376 203.278 130.898 205.352 130.898C206.696 130.898 207.932 131.116 209.059 131.551C210.186 131.977 211.138 132.64 211.914 133.54C212.691 134.439 213.226 135.585 213.519 136.977C213.813 138.36 213.799 140.008 213.477 141.92L213.235 143.497H195.337L195.891 140.031H208.846C209.016 139.046 208.96 138.17 208.675 137.403C208.391 136.627 207.918 136.016 207.255 135.571C206.592 135.126 205.763 134.903 204.769 134.903C203.756 134.903 202.809 135.164 201.928 135.685C201.057 136.196 200.323 136.859 199.727 137.673C199.13 138.488 198.751 139.345 198.59 140.244L198.008 143.568C197.799 144.932 197.847 146.045 198.15 146.906C198.453 147.768 198.983 148.402 199.741 148.81C200.498 149.217 201.455 149.42 202.61 149.42C203.368 149.42 204.068 149.316 204.712 149.108C205.356 148.9 205.929 148.587 206.431 148.17C206.942 147.744 207.369 147.223 207.71 146.608L212.411 147.148C211.89 148.417 211.128 149.525 210.124 150.472C209.121 151.409 207.918 152.138 206.516 152.659C205.124 153.17 203.576 153.426 201.871 153.426ZM223.292 140.216L221.19 153H216.033L219.67 131.182H224.599L223.974 134.889H224.244C224.925 133.668 225.882 132.697 227.113 131.977C228.344 131.258 229.779 130.898 231.417 130.898C232.904 130.898 234.154 131.22 235.167 131.864C236.18 132.498 236.9 133.431 237.326 134.662C237.752 135.884 237.818 137.366 237.525 139.108L235.195 153H230.053L232.227 139.903C232.473 138.455 232.288 137.318 231.673 136.494C231.067 135.661 230.091 135.244 228.746 135.244C227.847 135.244 227.018 135.443 226.261 135.841C225.503 136.229 224.864 136.793 224.343 137.531C223.832 138.27 223.481 139.165 223.292 140.216ZM254.925 131.182L254.258 135.159H241.729L242.383 131.182H254.925ZM246.332 125.955H251.474L248.065 146.438C247.96 147.129 247.979 147.659 248.121 148.028C248.273 148.388 248.514 148.634 248.846 148.767C249.187 148.9 249.57 148.966 249.996 148.966C250.309 148.966 250.603 148.942 250.877 148.895C251.152 148.838 251.37 148.795 251.531 148.767L251.758 152.787C251.445 152.882 251.024 152.986 250.494 153.099C249.973 153.213 249.348 153.279 248.619 153.298C247.312 153.327 246.175 153.128 245.21 152.702C244.253 152.266 243.552 151.598 243.107 150.699C242.672 149.79 242.572 148.653 242.809 147.29L246.332 125.955ZM259.055 153.312C258.184 153.312 257.464 153.009 256.896 152.403C256.328 151.797 256.063 151.059 256.101 150.188C256.139 149.335 256.484 148.611 257.138 148.014C257.791 147.418 258.544 147.119 259.396 147.119C260.239 147.119 260.954 147.422 261.541 148.028C262.138 148.634 262.408 149.354 262.351 150.188C262.313 150.775 262.133 151.305 261.811 151.778C261.499 152.252 261.101 152.626 260.618 152.901C260.135 153.175 259.614 153.312 259.055 153.312Z" fill="white"/>
</svg>
