<svg width="126" height="16" viewBox="0 0 126 16" fill="none" xmlns="http://www.w3.org/2000/svg">
<path d="M0.482955 15V0.454545H3.55824V6.8679H3.75L8.98438 0.454545H12.6705L7.27273 6.96733L12.7344 15H9.0554L5.07102 9.01989L3.55824 10.8665V15H0.482955ZM17.326 15.206C16.63 15.206 16.0097 15.0852 15.4652 14.8438C14.9207 14.5975 14.4898 14.2353 14.1726 13.7571C13.8601 13.2741 13.7038 12.6728 13.7038 11.9531C13.7038 11.3471 13.8151 10.8381 14.0376 10.4261C14.2602 10.0142 14.5632 9.68277 14.9467 9.43182C15.3303 9.18087 15.7659 8.99148 16.2536 8.86364C16.746 8.7358 17.2621 8.64583 17.8018 8.59375C18.4363 8.52746 18.9477 8.46591 19.3359 8.40909C19.7242 8.34754 20.0059 8.25758 20.1811 8.1392C20.3563 8.02083 20.4439 7.84564 20.4439 7.61364V7.57102C20.4439 7.12121 20.3018 6.7732 20.0178 6.52699C19.7384 6.28078 19.3407 6.15767 18.8246 6.15767C18.2801 6.15767 17.8468 6.27841 17.5249 6.51989C17.2029 6.75663 16.9898 7.05492 16.8857 7.41477L14.0874 7.1875C14.2294 6.52462 14.5088 5.9517 14.9254 5.46875C15.3421 4.98106 15.8795 4.60701 16.5376 4.34659C17.2005 4.08144 17.9676 3.94886 18.8388 3.94886C19.4448 3.94886 20.0249 4.01989 20.5788 4.16193C21.1375 4.30398 21.6323 4.52415 22.0632 4.82244C22.4988 5.12074 22.8421 5.50426 23.093 5.97301C23.344 6.43703 23.4695 6.99337 23.4695 7.64205V15H20.6001V13.4872H20.5149C20.3397 13.8281 20.1054 14.1288 19.8118 14.3892C19.5182 14.6449 19.1655 14.8461 18.7536 14.9929C18.3416 15.1349 17.8658 15.206 17.326 15.206ZM18.1925 13.1179C18.6375 13.1179 19.0305 13.0303 19.3714 12.8551C19.7124 12.6752 19.9799 12.4337 20.174 12.1307C20.3681 11.8277 20.4652 11.4844 20.4652 11.1009V9.94318C20.3705 10.0047 20.2403 10.0616 20.0746 10.1136C19.9136 10.161 19.7313 10.206 19.5277 10.2486C19.3241 10.2865 19.1205 10.322 18.9169 10.3551C18.7133 10.3835 18.5286 10.4096 18.3629 10.4332C18.0078 10.4853 17.6977 10.5682 17.4325 10.6818C17.1674 10.7955 16.9614 10.9493 16.8146 11.1435C16.6679 11.3329 16.5945 11.5696 16.5945 11.8537C16.5945 12.2656 16.7436 12.5805 17.0419 12.7983C17.3449 13.0114 17.7285 13.1179 18.1925 13.1179ZM28.8423 8.69318V15H25.8168V4.09091H28.7003V6.01562H28.8281C29.0696 5.38116 29.4744 4.87926 30.0426 4.50994C30.6108 4.13589 31.2997 3.94886 32.1094 3.94886C32.867 3.94886 33.5275 4.11458 34.0909 4.44602C34.6544 4.77746 35.0923 5.25095 35.4048 5.86648C35.7173 6.47727 35.8736 7.20644 35.8736 8.05398V15H32.848V8.59375C32.8527 7.92614 32.6823 7.4053 32.3366 7.03125C31.991 6.65246 31.5152 6.46307 30.9091 6.46307C30.5019 6.46307 30.142 6.55066 29.8295 6.72585C29.5218 6.90104 29.2803 7.15672 29.1051 7.4929C28.9347 7.82434 28.8471 8.22443 28.8423 8.69318ZM44.0607 4.09091V6.36364H37.4911V4.09091H44.0607ZM38.9826 1.47727H42.0082V11.6477C42.0082 11.9271 42.0508 12.1449 42.136 12.3011C42.2212 12.4527 42.3396 12.5592 42.4911 12.6207C42.6474 12.6823 42.8273 12.7131 43.0309 12.7131C43.1729 12.7131 43.315 12.7012 43.457 12.6776C43.5991 12.6491 43.708 12.6278 43.7837 12.6136L44.2596 14.8651C44.1081 14.9124 43.895 14.9669 43.6204 15.0284C43.3458 15.0947 43.012 15.1349 42.619 15.1491C41.8898 15.1776 41.2506 15.0805 40.7013 14.858C40.1568 14.6354 39.7331 14.2898 39.43 13.821C39.127 13.3523 38.9779 12.7604 38.9826 12.0455V1.47727ZM50.8434 15.2131C49.7402 15.2131 48.7861 14.9787 47.9812 14.5099C47.181 14.0365 46.5631 13.3783 46.1275 12.5355C45.6919 11.688 45.4741 10.7055 45.4741 9.58807C45.4741 8.46117 45.6919 7.47633 46.1275 6.63352C46.5631 5.78598 47.181 5.12784 47.9812 4.65909C48.7861 4.18561 49.7402 3.94886 50.8434 3.94886C51.9466 3.94886 52.8983 4.18561 53.6985 4.65909C54.5034 5.12784 55.1237 5.78598 55.5593 6.63352C55.9949 7.47633 56.2127 8.46117 56.2127 9.58807C56.2127 10.7055 55.9949 11.688 55.5593 12.5355C55.1237 13.3783 54.5034 14.0365 53.6985 14.5099C52.8983 14.9787 51.9466 15.2131 50.8434 15.2131ZM50.8576 12.8693C51.3595 12.8693 51.7785 12.7273 52.1147 12.4432C52.4509 12.1544 52.7042 11.7614 52.8746 11.2642C53.0498 10.767 53.1374 10.2012 53.1374 9.56676C53.1374 8.93229 53.0498 8.36648 52.8746 7.86932C52.7042 7.37216 52.4509 6.97917 52.1147 6.69034C51.7785 6.40151 51.3595 6.2571 50.8576 6.2571C50.351 6.2571 49.9248 6.40151 49.5792 6.69034C49.2383 6.97917 48.9802 7.37216 48.805 7.86932C48.6346 8.36648 48.5494 8.93229 48.5494 9.56676C48.5494 10.2012 48.6346 10.767 48.805 11.2642C48.9802 11.7614 49.2383 12.1544 49.5792 12.4432C49.9248 12.7273 50.351 12.8693 50.8576 12.8693ZM58.18 15V4.09091H61.1133V5.99432H61.2269C61.4258 5.31723 61.7596 4.80587 62.2283 4.46023C62.6971 4.10985 63.2369 3.93466 63.8477 3.93466C63.9992 3.93466 64.1625 3.94413 64.3377 3.96307C64.5129 3.98201 64.6668 4.00805 64.7994 4.04119V6.72585C64.6573 6.68324 64.4608 6.64536 64.2099 6.61222C63.9589 6.57907 63.7293 6.5625 63.521 6.5625C63.0759 6.5625 62.6781 6.65956 62.3278 6.85369C61.9821 7.04309 61.7075 7.30824 61.5039 7.64915C61.305 7.99006 61.2056 8.38305 61.2056 8.82812V15H58.18ZM71.0494 15V0.454545H76.788C77.8912 0.454545 78.8311 0.665246 79.6076 1.08665C80.3841 1.50331 80.976 2.08333 81.3832 2.8267C81.7951 3.56534 82.0011 4.41761 82.0011 5.38352C82.0011 6.34943 81.7927 7.2017 81.3761 7.94034C80.9594 8.67898 80.3557 9.25426 79.565 9.66619C78.779 10.0781 77.8273 10.2841 76.7099 10.2841H73.0522V7.8196H76.2127C76.8046 7.8196 77.2923 7.7178 77.6758 7.5142C78.064 7.30587 78.3529 7.01941 78.5423 6.65483C78.7364 6.28551 78.8335 5.86174 78.8335 5.38352C78.8335 4.90057 78.7364 4.47917 78.5423 4.11932C78.3529 3.75473 78.064 3.47301 77.6758 3.27415C77.2875 3.07055 76.7951 2.96875 76.1985 2.96875H74.1246V15H71.0494ZM90.9375 10.3551V4.09091H93.9631V15H91.0582V13.0185H90.9446C90.6984 13.6577 90.2888 14.1714 89.7159 14.5597C89.1477 14.9479 88.4541 15.142 87.6349 15.142C86.9058 15.142 86.2642 14.9763 85.7102 14.6449C85.1563 14.3134 84.723 13.8423 84.4105 13.2315C84.1027 12.6207 83.9465 11.8892 83.9418 11.0369V4.09091H86.9673V10.4972C86.9721 11.1411 87.1449 11.6501 87.4858 12.0241C87.8267 12.3982 88.2836 12.5852 88.8565 12.5852C89.2211 12.5852 89.562 12.5024 89.8793 12.3366C90.1965 12.1662 90.4522 11.9152 90.6463 11.5838C90.8452 11.2524 90.9422 10.8428 90.9375 10.3551ZM105.46 7.2017L102.69 7.37216C102.643 7.13542 102.541 6.92235 102.385 6.73295C102.228 6.53883 102.022 6.38494 101.767 6.27131C101.516 6.15294 101.215 6.09375 100.865 6.09375C100.396 6.09375 100.001 6.19318 99.6786 6.39205C99.3567 6.58617 99.1957 6.84659 99.1957 7.1733C99.1957 7.43371 99.2998 7.65388 99.5082 7.83381C99.7165 8.01373 100.074 8.15814 100.581 8.26705L102.555 8.66477C103.616 8.88258 104.406 9.23295 104.927 9.71591C105.448 10.1989 105.708 10.8333 105.708 11.6193C105.708 12.3343 105.498 12.9616 105.076 13.5014C104.66 14.0412 104.087 14.4626 103.358 14.7656C102.633 15.0639 101.797 15.2131 100.85 15.2131C99.4064 15.2131 98.2558 14.9124 97.3988 14.3111C96.5465 13.705 96.047 12.8812 95.9002 11.8395L98.8761 11.6832C98.966 12.1236 99.1838 12.4598 99.5295 12.6918C99.8751 12.919 100.318 13.0327 100.858 13.0327C101.388 13.0327 101.814 12.9309 102.136 12.7273C102.463 12.5189 102.628 12.2514 102.633 11.9247C102.628 11.6501 102.512 11.4252 102.285 11.25C102.058 11.0701 101.708 10.9328 101.234 10.8381L99.3448 10.4616C98.2795 10.2486 97.4864 9.87926 96.9656 9.35369C96.4495 8.82812 96.1914 8.15814 96.1914 7.34375C96.1914 6.64299 96.3808 6.0393 96.7596 5.53267C97.1431 5.02604 97.6805 4.63542 98.3718 4.3608C99.0678 4.08617 99.8822 3.94886 100.815 3.94886C102.193 3.94886 103.277 4.24006 104.068 4.82244C104.863 5.40483 105.327 6.19792 105.46 7.2017ZM110.724 15.206C110.028 15.206 109.408 15.0852 108.864 14.8438C108.319 14.5975 107.888 14.2353 107.571 13.7571C107.259 13.2741 107.102 12.6728 107.102 11.9531C107.102 11.3471 107.214 10.8381 107.436 10.4261C107.659 10.0142 107.962 9.68277 108.345 9.43182C108.729 9.18087 109.164 8.99148 109.652 8.86364C110.144 8.7358 110.661 8.64583 111.2 8.59375C111.835 8.52746 112.346 8.46591 112.734 8.40909C113.123 8.34754 113.404 8.25758 113.58 8.1392C113.755 8.02083 113.842 7.84564 113.842 7.61364V7.57102C113.842 7.12121 113.7 6.7732 113.416 6.52699C113.137 6.28078 112.739 6.15767 112.223 6.15767C111.679 6.15767 111.245 6.27841 110.923 6.51989C110.601 6.75663 110.388 7.05492 110.284 7.41477L107.486 7.1875C107.628 6.52462 107.907 5.9517 108.324 5.46875C108.741 4.98106 109.278 4.60701 109.936 4.34659C110.599 4.08144 111.366 3.94886 112.237 3.94886C112.843 3.94886 113.423 4.01989 113.977 4.16193C114.536 4.30398 115.031 4.52415 115.462 4.82244C115.897 5.12074 116.241 5.50426 116.491 5.97301C116.742 6.43703 116.868 6.99337 116.868 7.64205V15H113.999V13.4872H113.913C113.738 13.8281 113.504 14.1288 113.21 14.3892C112.917 14.6449 112.564 14.8461 112.152 14.9929C111.74 15.1349 111.264 15.206 110.724 15.206ZM111.591 13.1179C112.036 13.1179 112.429 13.0303 112.77 12.8551C113.111 12.6752 113.378 12.4337 113.572 12.1307C113.767 11.8277 113.864 11.4844 113.864 11.1009V9.94318C113.769 10.0047 113.639 10.0616 113.473 10.1136C113.312 10.161 113.13 10.206 112.926 10.2486C112.723 10.2865 112.519 10.322 112.315 10.3551C112.112 10.3835 111.927 10.4096 111.761 10.4332C111.406 10.4853 111.096 10.5682 110.831 10.6818C110.566 10.7955 110.36 10.9493 110.213 11.1435C110.066 11.3329 109.993 11.5696 109.993 11.8537C109.993 12.2656 110.142 12.5805 110.44 12.7983C110.743 13.0114 111.127 13.1179 111.591 13.1179ZM125.018 4.09091V6.36364H118.448V4.09091H125.018ZM119.94 1.47727H122.965V11.6477C122.965 11.9271 123.008 12.1449 123.093 12.3011C123.178 12.4527 123.297 12.5592 123.448 12.6207C123.604 12.6823 123.784 12.7131 123.988 12.7131C124.13 12.7131 124.272 12.7012 124.414 12.6776C124.556 12.6491 124.665 12.6278 124.741 12.6136L125.217 14.8651C125.065 14.9124 124.852 14.9669 124.577 15.0284C124.303 15.0947 123.969 15.1349 123.576 15.1491C122.847 15.1776 122.208 15.0805 121.658 14.858C121.114 14.6354 120.69 14.2898 120.387 13.821C120.084 13.3523 119.935 12.7604 119.94 12.0455V1.47727Z" fill="#406D59"/>
</svg>
