<svg width="189" height="84" viewBox="0 0 189 84" fill="none" xmlns="http://www.w3.org/2000/svg">
<path d="M9.70939 5.04474C9.58581 4.65696 9.41962 4.30966 9.21081 4.00284C9.00626 3.69176 8.76124 3.42756 8.47572 3.21023C8.19021 2.98864 7.86422 2.82031 7.49774 2.70526C7.13553 2.5902 6.73709 2.53267 6.30243 2.53267C5.56521 2.53267 4.90044 2.7223 4.30811 3.10156C3.71578 3.48082 3.24703 4.03693 2.90186 4.76989C2.56095 5.49858 2.3905 6.39133 2.3905 7.44815C2.3905 8.50923 2.56308 9.40625 2.90825 10.1392C3.25342 10.8722 3.72644 11.4283 4.32729 11.8075C4.92814 12.1868 5.61209 12.3764 6.37913 12.3764C7.09078 12.3764 7.71081 12.2315 8.23922 11.9418C8.77189 11.652 9.18311 11.2429 9.47288 10.7145C9.76692 10.1818 9.91394 9.5554 9.91394 8.83523L10.4253 8.93111H6.67956V7.30114H11.8252V8.79048C11.8252 9.88991 11.5908 10.8445 11.122 11.6541C10.6575 12.4595 10.0141 13.0817 9.19163 13.5206C8.37345 13.9595 7.43595 14.179 6.37913 14.179C5.19447 14.179 4.1547 13.9062 3.25982 13.3608C2.36919 12.8153 1.67459 12.0419 1.17601 11.0405C0.677429 10.0348 0.428139 8.84162 0.428139 7.46094C0.428139 6.4169 0.573026 5.4794 0.862799 4.64844C1.15257 3.81747 1.55953 3.11222 2.08368 2.53267C2.61209 1.94886 3.23212 1.50355 3.94376 1.19673C4.65967 0.885653 5.44163 0.730113 6.28965 0.730113C6.99703 0.730113 7.65541 0.834517 8.26479 1.04332C8.87842 1.25213 9.42388 1.54829 9.90115 1.93182C10.3827 2.31534 10.7811 2.77131 11.0965 3.29972C11.4118 3.82386 11.6249 4.40554 11.7357 5.04474H9.70939ZM14.7943 14V4.18182H16.7055V14H14.7943ZM15.7595 2.6669C15.4271 2.6669 15.1416 2.55611 14.9029 2.33452C14.6686 2.10866 14.5514 1.8402 14.5514 1.52912C14.5514 1.21378 14.6686 0.945312 14.9029 0.723721C15.1416 0.497869 15.4271 0.384943 15.7595 0.384943C16.0918 0.384943 16.3752 0.497869 16.6096 0.723721C16.8482 0.945312 16.9676 1.21378 16.9676 1.52912C16.9676 1.8402 16.8482 2.10866 16.6096 2.33452C16.3752 2.55611 16.0918 2.6669 15.7595 2.6669ZM24.5182 0.909091H26.4869V10.1903C26.4869 11.0298 26.3207 11.7479 25.9883 12.3445C25.6602 12.9411 25.1978 13.397 24.6013 13.7124C24.0047 14.0234 23.3058 14.179 22.5047 14.179C21.7675 14.179 21.1048 14.0447 20.5167 13.7763C19.9329 13.5078 19.4706 13.1179 19.1297 12.6065C18.793 12.0909 18.6247 11.4645 18.6247 10.7273H20.5871C20.5871 11.0895 20.6701 11.4027 20.8363 11.6669C21.0068 11.9311 21.239 12.1378 21.5331 12.2869C21.8314 12.4318 22.1723 12.5043 22.5558 12.5043C22.9734 12.5043 23.3271 12.4169 23.6169 12.2422C23.9109 12.0632 24.1346 11.8011 24.288 11.456C24.4415 11.1108 24.5182 10.6889 24.5182 10.1903V0.909091ZM29.2083 14V4.18182H31.1195V14H29.2083ZM30.1735 2.6669C29.8411 2.6669 29.5556 2.55611 29.317 2.33452C29.0826 2.10866 28.9654 1.8402 28.9654 1.52912C28.9654 1.21378 29.0826 0.945312 29.317 0.723721C29.5556 0.497869 29.8411 0.384943 30.1735 0.384943C30.5059 0.384943 30.7893 0.497869 31.0237 0.723721C31.2623 0.945312 31.3816 1.21378 31.3816 1.52912C31.3816 1.8402 31.2623 2.10866 31.0237 2.33452C30.7893 2.55611 30.5059 2.6669 30.1735 2.6669ZM35.4486 10.6697L35.4358 8.33665H35.7682L39.6801 4.18182H41.9684L37.5068 8.91193H37.2064L35.4486 10.6697ZM33.6907 14V0.909091H35.602V14H33.6907ZM39.891 14L36.3754 9.33381L37.6922 7.99787L42.2369 14H39.891ZM9.70939 27.0447C9.58581 26.657 9.41962 26.3097 9.21081 26.0028C9.00626 25.6918 8.76124 25.4276 8.47572 25.2102C8.19021 24.9886 7.86422 24.8203 7.49774 24.7053C7.13553 24.5902 6.73709 24.5327 6.30243 24.5327C5.56521 24.5327 4.90044 24.7223 4.30811 25.1016C3.71578 25.4808 3.24703 26.0369 2.90186 26.7699C2.56095 27.4986 2.3905 28.3913 2.3905 29.4482C2.3905 30.5092 2.56308 31.4062 2.90825 32.1392C3.25342 32.8722 3.72644 33.4283 4.32729 33.8075C4.92814 34.1868 5.61209 34.3764 6.37913 34.3764C7.09078 34.3764 7.71081 34.2315 8.23922 33.9418C8.77189 33.652 9.18311 33.2429 9.47288 32.7145C9.76692 32.1818 9.91394 31.5554 9.91394 30.8352L10.4253 30.9311H6.67956V29.3011H11.8252V30.7905C11.8252 31.8899 11.5908 32.8445 11.122 33.6541C10.6575 34.4595 10.0141 35.0817 9.19163 35.5206C8.37345 35.9595 7.43595 36.179 6.37913 36.179C5.19447 36.179 4.1547 35.9062 3.25982 35.3608C2.36919 34.8153 1.67459 34.0419 1.17601 33.0405C0.677429 32.0348 0.428139 30.8416 0.428139 29.4609C0.428139 28.4169 0.573026 27.4794 0.862799 26.6484C1.15257 25.8175 1.55953 25.1122 2.08368 24.5327C2.61209 23.9489 3.23212 23.5036 3.94376 23.1967C4.65967 22.8857 5.44163 22.7301 6.28965 22.7301C6.99703 22.7301 7.65541 22.8345 8.26479 23.0433C8.87842 23.2521 9.42388 23.5483 9.90115 23.9318C10.3827 24.3153 10.7811 24.7713 11.0965 25.2997C11.4118 25.8239 11.6249 26.4055 11.7357 27.0447H9.70939ZM14.179 36V26.1818H16.0263V27.7415H16.1286C16.3076 27.2131 16.6229 26.7976 17.0746 26.495C17.5306 26.1882 18.0462 26.0348 18.6215 26.0348C18.7408 26.0348 18.8814 26.0391 19.0434 26.0476C19.2096 26.0561 19.3395 26.0668 19.4333 26.0795V27.9077C19.3566 27.8864 19.2202 27.8629 19.0242 27.8374C18.8282 27.8075 18.6322 27.7926 18.4361 27.7926C17.9844 27.7926 17.5817 27.8885 17.228 28.0803C16.8786 28.2678 16.6016 28.5298 16.3971 28.8665C16.1925 29.1989 16.0902 29.5781 16.0902 30.0043V36H14.179ZM21.0872 36V26.1818H22.9985V36H21.0872ZM22.0524 24.6669C21.72 24.6669 21.4345 24.5561 21.1959 24.3345C20.9615 24.1087 20.8443 23.8402 20.8443 23.5291C20.8443 23.2138 20.9615 22.9453 21.1959 22.7237C21.4345 22.4979 21.72 22.3849 22.0524 22.3849C22.3848 22.3849 22.6682 22.4979 22.9026 22.7237C23.1412 22.9453 23.2605 23.2138 23.2605 23.5291C23.2605 23.8402 23.1412 24.1087 22.9026 24.3345C22.6682 24.5561 22.3848 24.6669 22.0524 24.6669ZM25.7231 36V22.9091H27.6343V27.7734H27.7493C27.8601 27.5689 28.0199 27.3324 28.2287 27.0639C28.4376 26.7955 28.7273 26.5611 29.0981 26.3608C29.4688 26.1562 29.9589 26.054 30.5682 26.054C31.3608 26.054 32.0682 26.2543 32.6904 26.6548C33.3126 27.0554 33.8005 27.6328 34.1542 28.3871C34.5121 29.1413 34.6911 30.049 34.6911 31.1101C34.6911 32.1712 34.5143 33.081 34.1606 33.8395C33.8069 34.5937 33.3211 35.1754 32.7032 35.5845C32.0853 35.9893 31.38 36.1918 30.5874 36.1918C29.9908 36.1918 29.5029 36.0916 29.1236 35.8913C28.7486 35.6911 28.4546 35.4567 28.2415 35.1882C28.0285 34.9197 27.8644 34.6811 27.7493 34.4723H27.5895V36H25.7231ZM27.5959 31.0909C27.5959 31.7812 27.6961 32.3864 27.8964 32.9062C28.0966 33.4261 28.3864 33.8331 28.7657 34.1271C29.1449 34.4169 29.6094 34.5618 30.1591 34.5618C30.7302 34.5618 31.2074 34.4105 31.591 34.108C31.9745 33.8011 32.2643 33.3857 32.4603 32.8615C32.6606 32.3374 32.7607 31.7472 32.7607 31.0909C32.7607 30.4432 32.6627 29.8615 32.4667 29.3459C32.2749 28.8303 31.9851 28.4233 31.5974 28.125C31.2138 27.8267 30.7344 27.6776 30.1591 27.6776C29.6052 27.6776 29.1364 27.8203 28.7529 28.1058C28.3736 28.3913 28.086 28.7898 27.89 29.3011C27.6939 29.8125 27.5959 30.4091 27.5959 31.0909ZM0.204418 46.6094V44.9091H10.3358V46.6094H6.25129V58H4.28254V46.6094H0.204418ZM12.4212 58V48.1818H14.3324V58H12.4212ZM13.3864 46.6669C13.054 46.6669 12.7685 46.5561 12.5299 46.3345C12.2955 46.1087 12.1783 45.8402 12.1783 45.5291C12.1783 45.2138 12.2955 44.9453 12.5299 44.7237C12.7685 44.4979 13.054 44.3849 13.3864 44.3849C13.7188 44.3849 14.0022 44.4979 14.2366 44.7237C14.4752 44.9453 14.5945 45.2138 14.5945 45.5291C14.5945 45.8402 14.4752 46.1087 14.2366 46.3345C14.0022 46.5561 13.7188 46.6669 13.3864 46.6669ZM18.6614 54.6697L18.6487 52.3366H18.9811L22.893 48.1818H25.1813L20.7197 52.9119H20.4193L18.6614 54.6697ZM16.9036 58V44.9091H18.8149V58H16.9036ZM23.1039 58L19.5883 53.3338L20.9051 51.9979L25.4498 58H23.1039ZM26.9232 58V48.1818H28.8344V58H26.9232ZM27.8884 46.6669C27.556 46.6669 27.2705 46.5561 27.0318 46.3345C26.7975 46.1087 26.6803 45.8402 26.6803 45.5291C26.6803 45.2138 26.7975 44.9453 27.0318 44.7237C27.2705 44.4979 27.556 44.3849 27.8884 44.3849C28.2208 44.3849 28.5041 44.4979 28.7385 44.7237C28.9771 44.9453 29.0965 45.2138 29.0965 45.5291C29.0965 45.8402 28.9771 46.1087 28.7385 46.3345C28.5041 46.5561 28.2208 46.6669 27.8884 46.6669ZM31.4056 61.6818V48.1818H33.2721V49.7734H33.4319C33.5427 49.5689 33.7025 49.3324 33.9113 49.0639C34.1201 48.7955 34.4099 48.5611 34.7806 48.3608C35.1513 48.1562 35.6414 48.054 36.2508 48.054C37.0434 48.054 37.7508 48.2543 38.3729 48.6548C38.9951 49.0554 39.483 49.6328 39.8367 50.3871C40.1947 51.1413 40.3736 52.049 40.3736 53.1101C40.3736 54.1712 40.1968 55.081 39.8431 55.8395C39.4894 56.5937 39.0036 57.1754 38.3857 57.5845C37.7678 57.9893 37.0626 58.1918 36.2699 58.1918C35.6733 58.1918 35.1854 58.0916 34.8062 57.8913C34.4312 57.6911 34.1371 57.4567 33.9241 57.1882C33.711 56.9197 33.5469 56.6811 33.4319 56.4723H33.3168V61.6818H31.4056ZM33.2785 53.0909C33.2785 53.7812 33.3786 54.3864 33.5789 54.9062C33.7792 55.4261 34.0689 55.8331 34.4482 56.1271C34.8275 56.4169 35.292 56.5618 35.8417 56.5618C36.4127 56.5618 36.89 56.4105 37.2735 56.108C37.657 55.8011 37.9468 55.3857 38.1428 54.8615C38.3431 54.3374 38.4432 53.7472 38.4432 53.0909C38.4432 52.4432 38.3452 51.8615 38.1492 51.3459C37.9574 50.8303 37.6677 50.4233 37.2799 50.125C36.8964 49.8267 36.417 49.6776 35.8417 49.6776C35.2877 49.6776 34.8189 49.8203 34.4354 50.1058C34.0562 50.3913 33.7685 50.7898 33.5725 51.3011C33.3765 51.8125 33.2785 52.4091 33.2785 53.0909ZM42.515 58V48.1818H44.4262V58H42.515ZM43.4802 46.6669C43.1478 46.6669 42.8623 46.5561 42.6236 46.3345C42.3893 46.1087 42.2721 45.8402 42.2721 45.5291C42.2721 45.2138 42.3893 44.9453 42.6236 44.7237C42.8623 44.4979 43.1478 44.3849 43.4802 44.3849C43.8126 44.3849 44.0959 44.4979 44.3303 44.7237C44.5689 44.9453 44.6883 45.2138 44.6883 45.5291C44.6883 45.8402 44.5689 46.1087 44.3303 46.3345C44.0959 46.5561 43.8126 46.6669 43.4802 46.6669ZM50.6728 58.1918C49.8802 58.1918 49.1728 57.9893 48.5507 57.5845C47.9328 57.1754 47.447 56.5937 47.0933 55.8395C46.7438 55.081 46.5691 54.1712 46.5691 53.1101C46.5691 52.049 46.746 51.1413 47.0997 50.3871C47.4576 49.6328 47.9477 49.0554 48.5698 48.6548C49.192 48.2543 49.8972 48.054 50.6856 48.054C51.295 48.054 51.785 48.1562 52.1558 48.3608C52.5308 48.5611 52.8205 48.7955 53.0251 49.0639C53.2339 49.3324 53.3958 49.5689 53.5109 49.7734H53.6259V44.9091H55.5372V58H53.6707V56.4723H53.5109C53.3958 56.6811 53.2296 56.9197 53.0123 57.1882C52.7992 57.4567 52.5052 57.6911 52.1302 57.8913C51.7552 58.0916 51.2694 58.1918 50.6728 58.1918ZM51.0947 56.5618C51.6444 56.5618 52.1089 56.4169 52.4882 56.1271C52.8717 55.8331 53.1614 55.4261 53.3575 54.9062C53.5578 54.3864 53.6579 53.7812 53.6579 53.0909C53.6579 52.4091 53.5599 51.8125 53.3639 51.3011C53.1678 50.7898 52.8802 50.3913 52.5009 50.1058C52.1217 49.8203 51.6529 49.6776 51.0947 49.6776C50.5194 49.6776 50.04 49.8267 49.6565 50.125C49.273 50.4233 48.9832 50.8303 48.7872 51.3459C48.5954 51.8615 48.4995 52.4432 48.4995 53.0909C48.4995 53.7472 48.5975 54.3374 48.7936 54.8615C48.9896 55.3857 49.2793 55.8011 49.6629 56.108C50.0507 56.4105 50.5279 56.5618 51.0947 56.5618ZM58.265 58V48.1818H60.1762V58H58.265ZM59.2302 46.6669C58.8978 46.6669 58.6123 46.5561 58.3736 46.3345C58.1393 46.1087 58.0221 45.8402 58.0221 45.5291C58.0221 45.2138 58.1393 44.9453 58.3736 44.7237C58.6123 44.4979 58.8978 44.3849 59.2302 44.3849C59.5626 44.3849 59.8459 44.4979 60.0803 44.7237C60.3189 44.9453 60.4383 45.2138 60.4383 45.5291C60.4383 45.8402 60.3189 46.1087 60.0803 46.3345C59.8459 46.5561 59.5626 46.6669 59.2302 46.6669ZM63.9555 61.6818C63.67 61.6818 63.41 61.6584 63.1757 61.6115C62.9413 61.5689 62.7666 61.522 62.6515 61.4709L63.1117 59.9048C63.4612 59.9986 63.7722 60.0391 64.045 60.0263C64.3177 60.0135 64.5585 59.9112 64.7673 59.7195C64.9803 59.5277 65.1678 59.2145 65.3298 58.7798L65.5663 58.1278L61.9739 48.1818H64.0194L66.5059 55.8011H66.6082L69.0947 48.1818H71.1465L67.1004 59.3104C66.9129 59.8217 66.6742 60.2543 66.3845 60.608C66.0947 60.9659 65.7495 61.2344 65.3489 61.4134C64.9484 61.5923 64.4839 61.6818 63.9555 61.6818ZM72.9427 58V48.1818H74.8539V58H72.9427ZM73.9079 46.6669C73.5755 46.6669 73.29 46.5561 73.0514 46.3345C72.817 46.1087 72.6998 45.8402 72.6998 45.5291C72.6998 45.2138 72.817 44.9453 73.0514 44.7237C73.29 44.4979 73.5755 44.3849 73.9079 44.3849C74.2403 44.3849 74.5237 44.4979 74.758 44.7237C74.9967 44.9453 75.116 45.2138 75.116 45.5291C75.116 45.8402 74.9967 46.1087 74.758 46.3345C74.5237 46.5561 74.2403 46.6669 73.9079 46.6669ZM5.93808 66.9091H7.90683V76.1903C7.90683 77.0298 7.74064 77.7479 7.40825 78.3445C7.08013 78.9411 6.61777 79.397 6.02118 79.7124C5.42459 80.0234 4.72572 80.179 3.92459 80.179C3.18737 80.179 2.52473 80.0447 1.93666 79.7763C1.35286 79.5078 0.890497 79.1179 0.549588 78.6065C0.212941 78.0909 0.0446167 77.4645 0.0446167 76.7273H2.00697C2.00697 77.0895 2.09007 77.4027 2.25626 77.6669C2.42672 77.9311 2.65896 78.1378 2.953 78.2869C3.25129 78.4318 3.5922 78.5043 3.97572 78.5043C4.39334 78.5043 4.74703 78.4169 5.0368 78.2422C5.33084 78.0632 5.55456 77.8011 5.70797 77.456C5.86138 77.1108 5.93808 76.6889 5.93808 76.1903V66.9091ZM14.8598 80.1982C13.8925 80.1982 13.0594 79.9915 12.3605 79.5781C11.6659 79.1605 11.129 78.5746 10.7497 77.8203C10.3747 77.0618 10.1872 76.1733 10.1872 75.1548C10.1872 74.1491 10.3747 73.2628 10.7497 72.4957C11.129 71.7287 11.6574 71.13 12.3349 70.6996C13.0167 70.2692 13.8136 70.054 14.7255 70.054C15.2795 70.054 15.8165 70.1456 16.3363 70.3288C16.8562 70.5121 17.3228 70.7997 17.7362 71.1918C18.1496 71.5838 18.4755 72.093 18.7142 72.7195C18.9528 73.3416 19.0721 74.098 19.0721 74.9886V75.6662H11.2675V74.2344H17.1993C17.1993 73.7315 17.097 73.2862 16.8925 72.8984C16.6879 72.5064 16.4003 72.1974 16.0295 71.9716C15.663 71.7457 15.2326 71.6328 14.7383 71.6328C14.2014 71.6328 13.7326 71.7649 13.3321 72.0291C12.9358 72.2891 12.629 72.63 12.4116 73.0518C12.1986 73.4695 12.092 73.9233 12.092 74.4134V75.532C12.092 76.1882 12.2071 76.7464 12.4372 77.2067C12.6716 77.6669 12.9976 78.0185 13.4152 78.2614C13.8328 78.5 14.3207 78.6193 14.879 78.6193C15.2412 78.6193 15.5714 78.5682 15.8697 78.4659C16.168 78.3594 16.4258 78.2017 16.6432 77.9929C16.8605 77.7841 17.0267 77.5263 17.1417 77.2195L18.9507 77.5455C18.8058 78.0781 18.5459 78.5447 18.1709 78.9453C17.8001 79.3416 17.3335 79.6506 16.771 79.8722C16.2128 80.0895 15.5757 80.1982 14.8598 80.1982ZM23.1039 74.1705V80H21.1927V70.1818H23.0272V71.7798H23.1487C23.3745 71.2599 23.7282 70.8423 24.2097 70.527C24.6955 70.2116 25.307 70.054 26.0443 70.054C26.7133 70.054 27.2992 70.1946 27.8021 70.4759C28.3049 70.7528 28.6948 71.1662 28.9718 71.7159C29.2488 72.2656 29.3873 72.9453 29.3873 73.755V80H27.4761V73.9851C27.4761 73.2734 27.2907 72.7173 26.92 72.3168C26.5492 71.9119 26.04 71.7095 25.3923 71.7095C24.9491 71.7095 24.5549 71.8054 24.2097 71.9972C23.8688 72.1889 23.5982 72.4702 23.398 72.8409C23.2019 73.2074 23.1039 73.6506 23.1039 74.1705ZM35.6259 80.1918C34.8333 80.1918 34.1259 79.9893 33.5038 79.5845C32.8859 79.1754 32.4001 78.5937 32.0464 77.8395C31.697 77.081 31.5222 76.1712 31.5222 75.1101C31.5222 74.049 31.6991 73.1413 32.0528 72.3871C32.4107 71.6328 32.9008 71.0554 33.523 70.6548C34.1451 70.2543 34.8504 70.054 35.6387 70.054C36.2481 70.054 36.7382 70.1562 37.1089 70.3608C37.4839 70.5611 37.7737 70.7955 37.9782 71.0639C38.187 71.3324 38.3489 71.5689 38.464 71.7734H38.5791V66.9091H40.4903V80H38.6238V78.4723H38.464C38.3489 78.6811 38.1828 78.9197 37.9654 79.1882C37.7524 79.4567 37.4583 79.6911 37.0833 79.8913C36.7083 80.0916 36.2225 80.1918 35.6259 80.1918ZM36.0478 78.5618C36.5975 78.5618 37.062 78.4169 37.4413 78.1271C37.8248 77.8331 38.1146 77.4261 38.3106 76.9062C38.5109 76.3864 38.611 75.7812 38.611 75.0909C38.611 74.4091 38.513 73.8125 38.317 73.3011C38.121 72.7898 37.8333 72.3913 37.4541 72.1058C37.0748 71.8203 36.6061 71.6776 36.0478 71.6776C35.4725 71.6776 34.9931 71.8267 34.6096 72.125C34.2261 72.4233 33.9363 72.8303 33.7403 73.3459C33.5485 73.8615 33.4526 74.4432 33.4526 75.0909C33.4526 75.7472 33.5507 76.3374 33.7467 76.8615C33.9427 77.3857 34.2325 77.8011 34.616 78.108C35.0038 78.4105 35.4811 78.5618 36.0478 78.5618ZM43.2181 80V70.1818H45.0654V71.7415H45.1677C45.3466 71.2131 45.662 70.7976 46.1137 70.495C46.5697 70.1882 47.0853 70.0348 47.6606 70.0348C47.7799 70.0348 47.9205 70.0391 48.0824 70.0476C48.2486 70.0561 48.3786 70.0668 48.4724 70.0795V71.9077C48.3956 71.8864 48.2593 71.8629 48.0633 71.8374C47.8672 71.8075 47.6712 71.7926 47.4752 71.7926C47.0235 71.7926 46.6208 71.8885 46.2671 72.0803C45.9177 72.2678 45.6407 72.5298 45.4361 72.8665C45.2316 73.1989 45.1293 73.5781 45.1293 74.0043V80H43.2181ZM52.8956 80.2173C52.2735 80.2173 51.711 80.1023 51.2081 79.8722C50.7053 79.6378 50.3069 79.299 50.0128 78.8558C49.7231 78.4126 49.5782 77.8693 49.5782 77.2259C49.5782 76.6719 49.6847 76.2159 49.8978 75.858C50.1108 75.5 50.3985 75.2166 50.7607 75.0078C51.1229 74.799 51.5277 74.6413 51.9752 74.5348C52.4226 74.4283 52.8786 74.3473 53.3431 74.2919C53.9312 74.2237 54.4084 74.1683 54.7749 74.1257C55.1414 74.0788 55.4077 74.0043 55.5739 73.902C55.7401 73.7997 55.8232 73.6335 55.8232 73.4034V73.3587C55.8232 72.8004 55.6655 72.3679 55.3502 72.0611C55.0391 71.7543 54.5746 71.6009 53.9567 71.6009C53.3133 71.6009 52.8062 71.7436 52.4354 72.0291C52.0689 72.3104 51.8154 72.6236 51.6748 72.9688L49.8786 72.5597C50.0917 71.9631 50.4027 71.4815 50.8118 71.1151C51.2252 70.7443 51.7003 70.4759 52.2373 70.3097C52.7742 70.1392 53.3388 70.054 53.9312 70.054C54.3232 70.054 54.7387 70.1009 55.1776 70.1946C55.6208 70.2841 56.0341 70.4503 56.4177 70.6932C56.8054 70.9361 57.1229 71.2834 57.3701 71.7351C57.6172 72.1825 57.7408 72.7642 57.7408 73.4801V80H55.8743V78.6577H55.7976C55.6741 78.9048 55.4887 79.1477 55.2415 79.3864C54.9944 79.625 54.6769 79.8232 54.2891 79.9808C53.9013 80.1385 53.4368 80.2173 52.8956 80.2173ZM53.3111 78.6832C53.8395 78.6832 54.2912 78.5788 54.6662 78.37C55.0455 78.1612 55.3331 77.8885 55.5292 77.5518C55.7295 77.2109 55.8296 76.8466 55.8296 76.4588V75.1932C55.7614 75.2614 55.6293 75.3253 55.4333 75.3849C55.2415 75.4403 55.0221 75.4893 54.7749 75.532C54.5277 75.5703 54.287 75.6065 54.0526 75.6406C53.8182 75.6705 53.6222 75.696 53.4645 75.7173C53.0938 75.7642 52.755 75.843 52.4482 75.9538C52.1456 76.0646 51.9027 76.2244 51.7195 76.4332C51.5405 76.6378 51.451 76.9105 51.451 77.2514C51.451 77.7244 51.6258 78.0824 51.9752 78.3253C52.3246 78.5639 52.7699 78.6832 53.3111 78.6832ZM62.1977 66.9091V80H60.2864V66.9091H62.1977ZM69.686 80V66.9091H74.3521C75.3706 66.9091 76.2144 67.0945 76.8834 67.4652C77.5524 67.8359 78.0531 68.343 78.3855 68.9865C78.7179 69.6257 78.8841 70.3459 78.8841 71.147C78.8841 71.9524 78.7158 72.6768 78.3791 73.3203C78.0467 73.9595 77.5439 74.4666 76.8706 74.8416C76.2016 75.2124 75.36 75.3977 74.3458 75.3977H71.1369V73.723H74.1668C74.8102 73.723 75.3323 73.6122 75.7328 73.3906C76.1334 73.1648 76.4274 72.858 76.6149 72.4702C76.8024 72.0824 76.8962 71.6413 76.8962 71.147C76.8962 70.6527 76.8024 70.2138 76.6149 69.8303C76.4274 69.4467 76.1313 69.1463 75.7264 68.929C75.3259 68.7116 74.7975 68.603 74.1412 68.603H71.6611V80H69.686ZM83.8156 80.2173C83.1934 80.2173 82.6309 80.1023 82.1281 79.8722C81.6252 79.6378 81.2268 79.299 80.9328 78.8558C80.643 78.4126 80.4981 77.8693 80.4981 77.2259C80.4981 76.6719 80.6046 76.2159 80.8177 75.858C81.0308 75.5 81.3184 75.2166 81.6806 75.0078C82.0428 74.799 82.4477 74.6413 82.8951 74.5348C83.3426 74.4283 83.7985 74.3473 84.263 74.2919C84.8511 74.2237 85.3284 74.1683 85.6948 74.1257C86.0613 74.0788 86.3276 74.0043 86.4938 73.902C86.66 73.7997 86.7431 73.6335 86.7431 73.4034V73.3587C86.7431 72.8004 86.5855 72.3679 86.2701 72.0611C85.959 71.7543 85.4945 71.6009 84.8766 71.6009C84.2332 71.6009 83.7261 71.7436 83.3553 72.0291C82.9889 72.3104 82.7353 72.6236 82.5947 72.9688L80.7985 72.5597C81.0116 71.9631 81.3227 71.4815 81.7318 71.1151C82.1451 70.7443 82.6203 70.4759 83.1572 70.3097C83.6941 70.1392 84.2588 70.054 84.8511 70.054C85.2431 70.054 85.6586 70.1009 86.0975 70.1946C86.5407 70.2841 86.9541 70.4503 87.3376 70.6932C87.7254 70.9361 88.0428 71.2834 88.29 71.7351C88.5372 72.1825 88.6607 72.7642 88.6607 73.4801V80H86.7943V78.6577H86.7176C86.594 78.9048 86.4086 79.1477 86.1614 79.3864C85.9143 79.625 85.5968 79.8232 85.209 79.9808C84.8213 80.1385 84.3568 80.2173 83.8156 80.2173ZM84.2311 78.6832C84.7595 78.6832 85.2112 78.5788 85.5862 78.37C85.9654 78.1612 86.2531 77.8885 86.4491 77.5518C86.6494 77.2109 86.7495 76.8466 86.7495 76.4588V75.1932C86.6813 75.2614 86.5492 75.3253 86.3532 75.3849C86.1614 75.4403 85.942 75.4893 85.6948 75.532C85.4477 75.5703 85.2069 75.6065 84.9725 75.6406C84.7382 75.6705 84.5421 75.696 84.3845 75.7173C84.0137 75.7642 83.6749 75.843 83.3681 75.9538C83.0656 76.0646 82.8227 76.2244 82.6394 76.4332C82.4605 76.6378 82.371 76.9105 82.371 77.2514C82.371 77.7244 82.5457 78.0824 82.8951 78.3253C83.2445 78.5639 83.6899 78.6832 84.2311 78.6832ZM91.2064 70.1818H93.1176V80.6392C93.1176 81.2955 92.9983 81.8494 92.7596 82.3011C92.5253 82.7528 92.1758 83.0959 91.7113 83.3303C91.2511 83.5646 90.6822 83.6818 90.0047 83.6818C89.9365 83.6818 89.8726 83.6818 89.8129 83.6818C89.749 83.6818 89.6829 83.6797 89.6148 83.6754V82.0327C89.6744 82.0327 89.7277 82.0327 89.7746 82.0327C89.8172 82.0327 89.8662 82.0327 89.9216 82.0327C90.3733 82.0327 90.6993 81.9112 90.8996 81.6683C91.1041 81.4297 91.2064 81.0824 91.2064 80.6264V70.1818ZM92.1524 68.6669C91.82 68.6669 91.5345 68.5561 91.2959 68.3345C91.0615 68.1087 90.9443 67.8402 90.9443 67.5291C90.9443 67.2138 91.0615 66.9453 91.2959 66.7237C91.5345 66.4979 91.82 66.3849 92.1524 66.3849C92.4848 66.3849 92.7682 66.4979 93.0025 66.7237C93.2412 66.9453 93.3605 67.2138 93.3605 67.5291C93.3605 67.8402 93.2412 68.1087 93.0025 68.3345C92.7682 68.5561 92.4848 68.6669 92.1524 68.6669ZM98.546 80.2173C97.9239 80.2173 97.3614 80.1023 96.8585 79.8722C96.3557 79.6378 95.9573 79.299 95.6632 78.8558C95.3735 78.4126 95.2286 77.8693 95.2286 77.2259C95.2286 76.6719 95.3351 76.2159 95.5482 75.858C95.7612 75.5 96.0489 75.2166 96.4111 75.0078C96.7733 74.799 97.1781 74.6413 97.6256 74.5348C98.073 74.4283 98.529 74.3473 98.9935 74.2919C99.5815 74.2237 100.059 74.1683 100.425 74.1257C100.792 74.0788 101.058 74.0043 101.224 73.902C101.39 73.7997 101.474 73.6335 101.474 73.4034V73.3587C101.474 72.8004 101.316 72.3679 101.001 72.0611C100.69 71.7543 100.225 71.6009 99.6071 71.6009C98.9637 71.6009 98.4565 71.7436 98.0858 72.0291C97.7193 72.3104 97.4658 72.6236 97.3252 72.9688L95.529 72.5597C95.7421 71.9631 96.0531 71.4815 96.4622 71.1151C96.8756 70.7443 97.3507 70.4759 97.8877 70.3097C98.4246 70.1392 98.9892 70.054 99.5815 70.054C99.9736 70.054 100.389 70.1009 100.828 70.1946C101.271 70.2841 101.685 70.4503 102.068 70.6932C102.456 70.9361 102.773 71.2834 103.02 71.7351C103.268 72.1825 103.391 72.7642 103.391 73.4801V80H101.525V78.6577H101.448C101.324 78.9048 101.139 79.1477 100.892 79.3864C100.645 79.625 100.327 79.8232 99.9395 79.9808C99.5517 80.1385 99.0872 80.2173 98.546 80.2173ZM98.9615 78.6832C99.4899 78.6832 99.9416 78.5788 100.317 78.37C100.696 78.1612 100.984 77.8885 101.18 77.5518C101.38 77.2109 101.48 76.8466 101.48 76.4588V75.1932C101.412 75.2614 101.28 75.3253 101.084 75.3849C100.892 75.4403 100.672 75.4893 100.425 75.532C100.178 75.5703 99.9374 75.6065 99.703 75.6406C99.4686 75.6705 99.2726 75.696 99.1149 75.7173C98.7442 75.7642 98.4054 75.843 98.0986 75.9538C97.796 76.0646 97.5531 76.2244 97.3699 76.4332C97.1909 76.6378 97.1014 76.9105 97.1014 77.2514C97.1014 77.7244 97.2762 78.0824 97.6256 78.3253C97.975 78.5639 98.4203 78.6832 98.9615 78.6832ZM107.695 76.6697L107.682 74.3366H108.014L111.926 70.1818H114.215L109.753 74.9119H109.452L107.695 76.6697ZM105.937 80V66.9091H107.848V80H105.937ZM112.137 80L108.621 75.3338L109.938 73.9979L114.483 80H112.137ZM120.873 80V66.9091H125.54C126.554 66.9091 127.395 67.0838 128.065 67.4332C128.738 67.7827 129.241 68.2663 129.573 68.8842C129.905 69.4979 130.072 70.2074 130.072 71.0128C130.072 71.8139 129.903 72.5192 129.567 73.1286C129.234 73.7337 128.731 74.2045 128.058 74.5412C127.389 74.8778 126.547 75.0462 125.533 75.0462H121.998V73.3459H125.354C125.993 73.3459 126.513 73.2543 126.914 73.071C127.319 72.8878 127.615 72.6214 127.802 72.272C127.99 71.9226 128.084 71.5028 128.084 71.0128C128.084 70.5185 127.988 70.0902 127.796 69.728C127.609 69.3658 127.312 69.0888 126.908 68.897C126.507 68.701 125.981 68.603 125.329 68.603H122.849V80H120.873ZM127.336 74.0938L130.57 80H128.32L125.15 74.0938H127.336ZM138.541 75.9283V70.1818H140.459V80H138.579V78.2997H138.477C138.251 78.8239 137.889 79.2607 137.39 79.6101C136.896 79.9553 136.28 80.1278 135.543 80.1278C134.913 80.1278 134.354 79.9893 133.868 79.7124C133.387 79.4311 133.008 79.0156 132.731 78.4659C132.458 77.9162 132.322 77.2365 132.322 76.4268V70.1818H134.233V76.1967C134.233 76.8658 134.418 77.3984 134.789 77.7947C135.16 78.1911 135.641 78.3892 136.234 78.3892C136.591 78.3892 136.947 78.2997 137.301 78.1207C137.659 77.9418 137.955 77.6712 138.19 77.3089C138.428 76.9467 138.545 76.4865 138.541 75.9283ZM143.18 80V66.9091H145.091V71.7734H145.206C145.317 71.5689 145.477 71.3324 145.686 71.0639C145.895 70.7955 146.184 70.5611 146.555 70.3608C146.926 70.1562 147.416 70.054 148.025 70.054C148.818 70.054 149.525 70.2543 150.147 70.6548C150.77 71.0554 151.258 71.6328 151.611 72.3871C151.969 73.1413 152.148 74.049 152.148 75.1101C152.148 76.1712 151.971 77.081 151.618 77.8395C151.264 78.5937 150.778 79.1754 150.16 79.5845C149.542 79.9893 148.837 80.1918 148.044 80.1918C147.448 80.1918 146.96 80.0916 146.581 79.8913C146.206 79.6911 145.912 79.4567 145.699 79.1882C145.485 78.9197 145.321 78.6811 145.206 78.4723H145.047V80H143.18ZM145.053 75.0909C145.053 75.7812 145.153 76.3864 145.353 76.9062C145.554 77.4261 145.843 77.8331 146.223 78.1271C146.602 78.4169 147.066 78.5618 147.616 78.5618C148.187 78.5618 148.664 78.4105 149.048 78.108C149.432 77.8011 149.721 77.3857 149.917 76.8615C150.118 76.3374 150.218 75.7472 150.218 75.0909C150.218 74.4432 150.12 73.8615 149.924 73.3459C149.732 72.8303 149.442 72.4233 149.054 72.125C148.671 71.8267 148.191 71.6776 147.616 71.6776C147.062 71.6776 146.593 71.8203 146.21 72.1058C145.831 72.3913 145.543 72.7898 145.347 73.3011C145.151 73.8125 145.053 74.4091 145.053 75.0909ZM154.294 80V70.1818H156.205V80H154.294ZM155.259 68.6669C154.927 68.6669 154.642 68.5561 154.403 68.3345C154.169 68.1087 154.051 67.8402 154.051 67.5291C154.051 67.2138 154.169 66.9453 154.403 66.7237C154.642 66.4979 154.927 66.3849 155.259 66.3849C155.592 66.3849 155.875 66.4979 156.11 66.7237C156.348 66.9453 156.468 67.2138 156.468 67.5291C156.468 67.8402 156.348 68.1087 156.11 68.3345C155.875 68.5561 155.592 68.6669 155.259 68.6669ZM162.912 80.1982C161.962 80.1982 161.144 79.983 160.458 79.5526C159.776 79.1179 159.252 78.5192 158.885 77.7564C158.519 76.9936 158.336 76.12 158.336 75.1357C158.336 74.1385 158.523 73.2585 158.898 72.4957C159.273 71.7287 159.802 71.13 160.483 70.6996C161.165 70.2692 161.968 70.054 162.893 70.054C163.639 70.054 164.304 70.1925 164.887 70.4695C165.471 70.7422 165.942 71.1257 166.3 71.62C166.662 72.1143 166.878 72.6918 166.946 73.3523H165.086C164.983 72.892 164.749 72.4957 164.383 72.1634C164.02 71.831 163.534 71.6648 162.925 71.6648C162.392 71.6648 161.926 71.8054 161.525 72.0866C161.129 72.3636 160.82 72.7599 160.598 73.2756C160.377 73.7869 160.266 74.392 160.266 75.0909C160.266 75.8068 160.375 76.4247 160.592 76.9446C160.809 77.4645 161.116 77.8672 161.512 78.1527C161.913 78.4382 162.384 78.581 162.925 78.581C163.287 78.581 163.615 78.5149 163.909 78.3828C164.208 78.2464 164.457 78.0526 164.657 77.8011C164.862 77.5497 165.005 77.2472 165.086 76.8935H166.946C166.878 77.5284 166.671 78.0952 166.326 78.5938C165.981 79.0923 165.518 79.4844 164.939 79.7699C164.363 80.0554 163.688 80.1982 162.912 80.1982ZM173.125 80.1982C172.205 80.1982 171.402 79.9872 170.715 79.5653C170.029 79.1435 169.497 78.5533 169.117 77.7947C168.738 77.0362 168.549 76.1499 168.549 75.1357C168.549 74.1172 168.738 73.2266 169.117 72.4638C169.497 71.701 170.029 71.1087 170.715 70.6868C171.402 70.2649 172.205 70.054 173.125 70.054C174.046 70.054 174.849 70.2649 175.535 70.6868C176.221 71.1087 176.754 71.701 177.133 72.4638C177.512 73.2266 177.702 74.1172 177.702 75.1357C177.702 76.1499 177.512 77.0362 177.133 77.7947C176.754 78.5533 176.221 79.1435 175.535 79.5653C174.849 79.9872 174.046 80.1982 173.125 80.1982ZM173.132 78.5938C173.728 78.5938 174.223 78.4361 174.615 78.1207C175.007 77.8054 175.296 77.3857 175.484 76.8615C175.676 76.3374 175.772 75.7599 175.772 75.1293C175.772 74.5028 175.676 73.9276 175.484 73.4034C175.296 72.875 175.007 72.451 174.615 72.1314C174.223 71.8118 173.728 71.652 173.132 71.652C172.531 71.652 172.032 71.8118 171.636 72.1314C171.244 72.451 170.952 72.875 170.76 73.4034C170.573 73.9276 170.479 74.5028 170.479 75.1293C170.479 75.7599 170.573 76.3374 170.76 76.8615C170.952 77.3857 171.244 77.8054 171.636 78.1207C172.032 78.4361 172.531 78.5938 173.132 78.5938ZM181.746 74.1705V80H179.835V70.1818H181.67V71.7798H181.791C182.017 71.2599 182.371 70.8423 182.852 70.527C183.338 70.2116 183.95 70.054 184.687 70.054C185.356 70.054 185.942 70.1946 186.445 70.4759C186.947 70.7528 187.337 71.1662 187.614 71.7159C187.891 72.2656 188.03 72.9453 188.03 73.755V80H186.119V73.9851C186.119 73.2734 185.933 72.7173 185.563 72.3168C185.192 71.9119 184.683 71.7095 184.035 71.7095C183.592 71.7095 183.197 71.8054 182.852 71.9972C182.511 72.1889 182.241 72.4702 182.041 72.8409C181.845 73.2074 181.746 73.6506 181.746 74.1705Z" fill="#406D59"/>
</svg>
